G04 EAGLE Gerber RS-274X export*
G75*
%MOMM*%
%FSLAX34Y34*%
%LPD*%
%INCopper Layer 2*%
%IPPOS*%
%AMOC8*
5,1,8,0,0,1.08239X$1,22.5*%
G01*
%ADD10C,0.000241*%

G36*
X1005700Y473873D02*
X1005700Y473873D01*
X1005743Y473885D01*
X1005808Y473892D01*
X1008081Y474502D01*
X1008122Y474521D01*
X1008185Y474539D01*
X1010318Y475534D01*
X1010355Y475560D01*
X1010414Y475589D01*
X1012341Y476939D01*
X1012373Y476971D01*
X1012383Y476978D01*
X1012405Y476991D01*
X1012411Y476999D01*
X1012426Y477010D01*
X1014090Y478674D01*
X1014116Y478711D01*
X1014161Y478759D01*
X1015511Y480686D01*
X1015530Y480727D01*
X1015566Y480782D01*
X1016561Y482915D01*
X1016572Y482958D01*
X1016598Y483019D01*
X1017208Y485292D01*
X1017211Y485336D01*
X1017227Y485400D01*
X1017432Y487745D01*
X1017430Y487769D01*
X1017434Y487800D01*
X1017434Y502800D01*
X1017430Y502824D01*
X1017432Y502855D01*
X1017227Y505200D01*
X1017215Y505243D01*
X1017208Y505308D01*
X1016598Y507581D01*
X1016579Y507622D01*
X1016561Y507685D01*
X1015566Y509818D01*
X1015540Y509855D01*
X1015511Y509914D01*
X1014161Y511841D01*
X1014129Y511873D01*
X1014090Y511926D01*
X1012426Y513590D01*
X1012389Y513616D01*
X1012341Y513661D01*
X1010414Y515011D01*
X1010373Y515030D01*
X1010318Y515066D01*
X1008185Y516061D01*
X1008142Y516072D01*
X1008081Y516098D01*
X1005808Y516708D01*
X1005764Y516711D01*
X1005700Y516727D01*
X1003355Y516932D01*
X1003311Y516928D01*
X1003245Y516932D01*
X1000900Y516727D01*
X1000857Y516715D01*
X1000792Y516708D01*
X998519Y516098D01*
X998478Y516079D01*
X998415Y516061D01*
X996282Y515066D01*
X996245Y515040D01*
X996186Y515011D01*
X994259Y513661D01*
X994227Y513629D01*
X994174Y513590D01*
X992510Y511926D01*
X992484Y511889D01*
X992439Y511841D01*
X991089Y509914D01*
X991070Y509873D01*
X991034Y509818D01*
X990039Y507685D01*
X990028Y507642D01*
X990002Y507581D01*
X989392Y505308D01*
X989389Y505264D01*
X989373Y505200D01*
X989168Y502855D01*
X989170Y502831D01*
X989166Y502800D01*
X989166Y487800D01*
X989170Y487776D01*
X989168Y487745D01*
X989373Y485400D01*
X989385Y485357D01*
X989392Y485292D01*
X990002Y483019D01*
X990021Y482978D01*
X990039Y482915D01*
X991034Y480782D01*
X991060Y480745D01*
X991089Y480686D01*
X992439Y478759D01*
X992471Y478727D01*
X992510Y478674D01*
X994174Y477010D01*
X994206Y476988D01*
X994225Y476967D01*
X994234Y476963D01*
X994259Y476939D01*
X996186Y475589D01*
X996227Y475570D01*
X996282Y475534D01*
X998415Y474539D01*
X998458Y474528D01*
X998519Y474502D01*
X1000792Y473892D01*
X1000836Y473889D01*
X1000900Y473873D01*
X1003245Y473668D01*
X1003289Y473672D01*
X1003355Y473668D01*
X1005700Y473873D01*
G37*
G36*
X205600Y473873D02*
X205600Y473873D01*
X205643Y473885D01*
X205708Y473892D01*
X207981Y474502D01*
X208022Y474521D01*
X208085Y474539D01*
X210218Y475534D01*
X210255Y475560D01*
X210314Y475589D01*
X212241Y476939D01*
X212273Y476971D01*
X212283Y476978D01*
X212305Y476991D01*
X212311Y476999D01*
X212326Y477010D01*
X213990Y478674D01*
X214016Y478711D01*
X214061Y478759D01*
X215411Y480686D01*
X215430Y480727D01*
X215466Y480782D01*
X216461Y482915D01*
X216472Y482958D01*
X216498Y483019D01*
X217108Y485292D01*
X217111Y485336D01*
X217127Y485400D01*
X217332Y487745D01*
X217330Y487769D01*
X217334Y487800D01*
X217334Y502800D01*
X217330Y502824D01*
X217332Y502855D01*
X217127Y505200D01*
X217115Y505243D01*
X217108Y505308D01*
X216498Y507581D01*
X216479Y507622D01*
X216461Y507685D01*
X215466Y509818D01*
X215440Y509855D01*
X215411Y509914D01*
X214061Y511841D01*
X214029Y511873D01*
X213990Y511926D01*
X212326Y513590D01*
X212289Y513616D01*
X212241Y513661D01*
X210314Y515011D01*
X210273Y515030D01*
X210218Y515066D01*
X208085Y516061D01*
X208042Y516072D01*
X207981Y516098D01*
X205708Y516708D01*
X205664Y516711D01*
X205600Y516727D01*
X203255Y516932D01*
X203211Y516928D01*
X203145Y516932D01*
X200800Y516727D01*
X200757Y516715D01*
X200692Y516708D01*
X198419Y516098D01*
X198378Y516079D01*
X198315Y516061D01*
X196182Y515066D01*
X196145Y515040D01*
X196086Y515011D01*
X194159Y513661D01*
X194127Y513629D01*
X194074Y513590D01*
X192410Y511926D01*
X192384Y511889D01*
X192339Y511841D01*
X190989Y509914D01*
X190970Y509873D01*
X190934Y509818D01*
X189939Y507685D01*
X189928Y507642D01*
X189902Y507581D01*
X189292Y505308D01*
X189289Y505264D01*
X189273Y505200D01*
X189068Y502855D01*
X189070Y502831D01*
X189066Y502800D01*
X189066Y487800D01*
X189070Y487776D01*
X189068Y487745D01*
X189273Y485400D01*
X189285Y485357D01*
X189292Y485292D01*
X189902Y483019D01*
X189921Y482978D01*
X189939Y482915D01*
X190934Y480782D01*
X190960Y480745D01*
X190989Y480686D01*
X192339Y478759D01*
X192371Y478727D01*
X192410Y478674D01*
X194074Y477010D01*
X194106Y476988D01*
X194125Y476967D01*
X194134Y476963D01*
X194159Y476939D01*
X196086Y475589D01*
X196127Y475570D01*
X196182Y475534D01*
X198315Y474539D01*
X198358Y474528D01*
X198419Y474502D01*
X200692Y473892D01*
X200736Y473889D01*
X200800Y473873D01*
X203145Y473668D01*
X203189Y473672D01*
X203255Y473668D01*
X205600Y473873D01*
G37*
G36*
X319900Y473873D02*
X319900Y473873D01*
X319943Y473885D01*
X320008Y473892D01*
X322281Y474502D01*
X322322Y474521D01*
X322385Y474539D01*
X324518Y475534D01*
X324555Y475560D01*
X324614Y475589D01*
X326541Y476939D01*
X326573Y476971D01*
X326583Y476978D01*
X326605Y476991D01*
X326611Y476999D01*
X326626Y477010D01*
X328290Y478674D01*
X328316Y478711D01*
X328361Y478759D01*
X329711Y480686D01*
X329730Y480727D01*
X329766Y480782D01*
X330761Y482915D01*
X330772Y482958D01*
X330798Y483019D01*
X331408Y485292D01*
X331411Y485336D01*
X331427Y485400D01*
X331632Y487745D01*
X331630Y487769D01*
X331634Y487800D01*
X331634Y502800D01*
X331630Y502824D01*
X331632Y502855D01*
X331427Y505200D01*
X331415Y505243D01*
X331408Y505308D01*
X330798Y507581D01*
X330779Y507622D01*
X330761Y507685D01*
X329766Y509818D01*
X329740Y509855D01*
X329711Y509914D01*
X328361Y511841D01*
X328329Y511873D01*
X328290Y511926D01*
X326626Y513590D01*
X326589Y513616D01*
X326541Y513661D01*
X324614Y515011D01*
X324573Y515030D01*
X324518Y515066D01*
X322385Y516061D01*
X322342Y516072D01*
X322281Y516098D01*
X320008Y516708D01*
X319964Y516711D01*
X319900Y516727D01*
X317555Y516932D01*
X317511Y516928D01*
X317445Y516932D01*
X315100Y516727D01*
X315057Y516715D01*
X314992Y516708D01*
X312719Y516098D01*
X312678Y516079D01*
X312615Y516061D01*
X310482Y515066D01*
X310445Y515040D01*
X310386Y515011D01*
X308459Y513661D01*
X308427Y513629D01*
X308374Y513590D01*
X306710Y511926D01*
X306684Y511889D01*
X306639Y511841D01*
X305289Y509914D01*
X305270Y509873D01*
X305234Y509818D01*
X304239Y507685D01*
X304228Y507642D01*
X304202Y507581D01*
X303592Y505308D01*
X303589Y505264D01*
X303573Y505200D01*
X303368Y502855D01*
X303370Y502831D01*
X303366Y502800D01*
X303366Y487800D01*
X303370Y487776D01*
X303368Y487745D01*
X303573Y485400D01*
X303585Y485357D01*
X303592Y485292D01*
X304202Y483019D01*
X304221Y482978D01*
X304239Y482915D01*
X305234Y480782D01*
X305260Y480745D01*
X305289Y480686D01*
X306639Y478759D01*
X306671Y478727D01*
X306710Y478674D01*
X308374Y477010D01*
X308406Y476988D01*
X308425Y476967D01*
X308434Y476963D01*
X308459Y476939D01*
X310386Y475589D01*
X310427Y475570D01*
X310482Y475534D01*
X312615Y474539D01*
X312658Y474528D01*
X312719Y474502D01*
X314992Y473892D01*
X315036Y473889D01*
X315100Y473873D01*
X317445Y473668D01*
X317489Y473672D01*
X317555Y473668D01*
X319900Y473873D01*
G37*
G36*
X434200Y473873D02*
X434200Y473873D01*
X434243Y473885D01*
X434308Y473892D01*
X436581Y474502D01*
X436622Y474521D01*
X436685Y474539D01*
X438818Y475534D01*
X438855Y475560D01*
X438914Y475589D01*
X440841Y476939D01*
X440873Y476971D01*
X440883Y476978D01*
X440905Y476991D01*
X440911Y476999D01*
X440926Y477010D01*
X442590Y478674D01*
X442616Y478711D01*
X442661Y478759D01*
X444011Y480686D01*
X444030Y480727D01*
X444066Y480782D01*
X445061Y482915D01*
X445072Y482958D01*
X445098Y483019D01*
X445708Y485292D01*
X445711Y485336D01*
X445727Y485400D01*
X445932Y487745D01*
X445930Y487769D01*
X445934Y487800D01*
X445934Y502800D01*
X445930Y502824D01*
X445932Y502855D01*
X445727Y505200D01*
X445715Y505243D01*
X445708Y505308D01*
X445098Y507581D01*
X445079Y507622D01*
X445061Y507685D01*
X444066Y509818D01*
X444040Y509855D01*
X444011Y509914D01*
X442661Y511841D01*
X442629Y511873D01*
X442590Y511926D01*
X440926Y513590D01*
X440889Y513616D01*
X440841Y513661D01*
X438914Y515011D01*
X438873Y515030D01*
X438818Y515066D01*
X436685Y516061D01*
X436642Y516072D01*
X436581Y516098D01*
X434308Y516708D01*
X434264Y516711D01*
X434200Y516727D01*
X431855Y516932D01*
X431811Y516928D01*
X431745Y516932D01*
X429400Y516727D01*
X429357Y516715D01*
X429292Y516708D01*
X427019Y516098D01*
X426978Y516079D01*
X426915Y516061D01*
X424782Y515066D01*
X424745Y515040D01*
X424686Y515011D01*
X422759Y513661D01*
X422727Y513629D01*
X422674Y513590D01*
X421010Y511926D01*
X420984Y511889D01*
X420939Y511841D01*
X419589Y509914D01*
X419570Y509873D01*
X419534Y509818D01*
X418539Y507685D01*
X418528Y507642D01*
X418502Y507581D01*
X417892Y505308D01*
X417889Y505264D01*
X417873Y505200D01*
X417668Y502855D01*
X417670Y502831D01*
X417666Y502800D01*
X417666Y487800D01*
X417670Y487776D01*
X417668Y487745D01*
X417873Y485400D01*
X417885Y485357D01*
X417892Y485292D01*
X418502Y483019D01*
X418521Y482978D01*
X418539Y482915D01*
X419534Y480782D01*
X419560Y480745D01*
X419589Y480686D01*
X420939Y478759D01*
X420971Y478727D01*
X421010Y478674D01*
X422674Y477010D01*
X422706Y476988D01*
X422725Y476967D01*
X422734Y476963D01*
X422759Y476939D01*
X424686Y475589D01*
X424727Y475570D01*
X424782Y475534D01*
X426915Y474539D01*
X426958Y474528D01*
X427019Y474502D01*
X429292Y473892D01*
X429336Y473889D01*
X429400Y473873D01*
X431745Y473668D01*
X431789Y473672D01*
X431855Y473668D01*
X434200Y473873D01*
G37*
G36*
X777100Y473873D02*
X777100Y473873D01*
X777143Y473885D01*
X777208Y473892D01*
X779481Y474502D01*
X779522Y474521D01*
X779585Y474539D01*
X781718Y475534D01*
X781755Y475560D01*
X781814Y475589D01*
X783741Y476939D01*
X783773Y476971D01*
X783783Y476978D01*
X783805Y476991D01*
X783811Y476999D01*
X783826Y477010D01*
X785490Y478674D01*
X785516Y478711D01*
X785561Y478759D01*
X786911Y480686D01*
X786930Y480727D01*
X786966Y480782D01*
X787961Y482915D01*
X787972Y482958D01*
X787998Y483019D01*
X788608Y485292D01*
X788611Y485336D01*
X788627Y485400D01*
X788832Y487745D01*
X788830Y487769D01*
X788834Y487800D01*
X788834Y502800D01*
X788830Y502824D01*
X788832Y502855D01*
X788627Y505200D01*
X788615Y505243D01*
X788608Y505308D01*
X787998Y507581D01*
X787979Y507622D01*
X787961Y507685D01*
X786966Y509818D01*
X786940Y509855D01*
X786911Y509914D01*
X785561Y511841D01*
X785529Y511873D01*
X785490Y511926D01*
X783826Y513590D01*
X783789Y513616D01*
X783741Y513661D01*
X781814Y515011D01*
X781773Y515030D01*
X781718Y515066D01*
X779585Y516061D01*
X779542Y516072D01*
X779481Y516098D01*
X777208Y516708D01*
X777164Y516711D01*
X777100Y516727D01*
X774755Y516932D01*
X774711Y516928D01*
X774645Y516932D01*
X772300Y516727D01*
X772257Y516715D01*
X772192Y516708D01*
X769919Y516098D01*
X769878Y516079D01*
X769815Y516061D01*
X767682Y515066D01*
X767645Y515040D01*
X767586Y515011D01*
X765659Y513661D01*
X765627Y513629D01*
X765574Y513590D01*
X763910Y511926D01*
X763884Y511889D01*
X763839Y511841D01*
X762489Y509914D01*
X762470Y509873D01*
X762434Y509818D01*
X761439Y507685D01*
X761428Y507642D01*
X761402Y507581D01*
X760792Y505308D01*
X760789Y505264D01*
X760773Y505200D01*
X760568Y502855D01*
X760570Y502831D01*
X760566Y502800D01*
X760566Y487800D01*
X760570Y487776D01*
X760568Y487745D01*
X760773Y485400D01*
X760785Y485357D01*
X760792Y485292D01*
X761402Y483019D01*
X761421Y482978D01*
X761439Y482915D01*
X762434Y480782D01*
X762460Y480745D01*
X762489Y480686D01*
X763839Y478759D01*
X763871Y478727D01*
X763910Y478674D01*
X765574Y477010D01*
X765606Y476988D01*
X765625Y476967D01*
X765634Y476963D01*
X765659Y476939D01*
X767586Y475589D01*
X767627Y475570D01*
X767682Y475534D01*
X769815Y474539D01*
X769858Y474528D01*
X769919Y474502D01*
X772192Y473892D01*
X772236Y473889D01*
X772300Y473873D01*
X774645Y473668D01*
X774689Y473672D01*
X774755Y473668D01*
X777100Y473873D01*
G37*
G36*
X548500Y473873D02*
X548500Y473873D01*
X548543Y473885D01*
X548608Y473892D01*
X550881Y474502D01*
X550922Y474521D01*
X550985Y474539D01*
X553118Y475534D01*
X553155Y475560D01*
X553214Y475589D01*
X555141Y476939D01*
X555173Y476971D01*
X555183Y476978D01*
X555205Y476991D01*
X555211Y476999D01*
X555226Y477010D01*
X556890Y478674D01*
X556916Y478711D01*
X556961Y478759D01*
X558311Y480686D01*
X558330Y480727D01*
X558366Y480782D01*
X559361Y482915D01*
X559372Y482958D01*
X559398Y483019D01*
X560008Y485292D01*
X560011Y485336D01*
X560027Y485400D01*
X560232Y487745D01*
X560230Y487769D01*
X560234Y487800D01*
X560234Y502800D01*
X560230Y502824D01*
X560232Y502855D01*
X560027Y505200D01*
X560015Y505243D01*
X560008Y505308D01*
X559398Y507581D01*
X559379Y507622D01*
X559361Y507685D01*
X558366Y509818D01*
X558340Y509855D01*
X558311Y509914D01*
X556961Y511841D01*
X556929Y511873D01*
X556890Y511926D01*
X555226Y513590D01*
X555189Y513616D01*
X555141Y513661D01*
X553214Y515011D01*
X553173Y515030D01*
X553118Y515066D01*
X550985Y516061D01*
X550942Y516072D01*
X550881Y516098D01*
X548608Y516708D01*
X548564Y516711D01*
X548500Y516727D01*
X546155Y516932D01*
X546111Y516928D01*
X546045Y516932D01*
X543700Y516727D01*
X543657Y516715D01*
X543592Y516708D01*
X541319Y516098D01*
X541278Y516079D01*
X541215Y516061D01*
X539082Y515066D01*
X539045Y515040D01*
X538986Y515011D01*
X537059Y513661D01*
X537027Y513629D01*
X536974Y513590D01*
X535310Y511926D01*
X535284Y511889D01*
X535239Y511841D01*
X533889Y509914D01*
X533870Y509873D01*
X533834Y509818D01*
X532839Y507685D01*
X532828Y507642D01*
X532802Y507581D01*
X532192Y505308D01*
X532189Y505264D01*
X532173Y505200D01*
X531968Y502855D01*
X531970Y502831D01*
X531966Y502800D01*
X531966Y487800D01*
X531970Y487776D01*
X531968Y487745D01*
X532173Y485400D01*
X532185Y485357D01*
X532192Y485292D01*
X532802Y483019D01*
X532821Y482978D01*
X532839Y482915D01*
X533834Y480782D01*
X533860Y480745D01*
X533889Y480686D01*
X535239Y478759D01*
X535271Y478727D01*
X535310Y478674D01*
X536974Y477010D01*
X537006Y476988D01*
X537025Y476967D01*
X537034Y476963D01*
X537059Y476939D01*
X538986Y475589D01*
X539027Y475570D01*
X539082Y475534D01*
X541215Y474539D01*
X541258Y474528D01*
X541319Y474502D01*
X543592Y473892D01*
X543636Y473889D01*
X543700Y473873D01*
X546045Y473668D01*
X546089Y473672D01*
X546155Y473668D01*
X548500Y473873D01*
G37*
G36*
X891400Y473873D02*
X891400Y473873D01*
X891443Y473885D01*
X891508Y473892D01*
X893781Y474502D01*
X893822Y474521D01*
X893885Y474539D01*
X896018Y475534D01*
X896055Y475560D01*
X896114Y475589D01*
X898041Y476939D01*
X898073Y476971D01*
X898083Y476978D01*
X898105Y476991D01*
X898111Y476999D01*
X898126Y477010D01*
X899790Y478674D01*
X899816Y478711D01*
X899861Y478759D01*
X901211Y480686D01*
X901230Y480727D01*
X901266Y480782D01*
X902261Y482915D01*
X902272Y482958D01*
X902298Y483019D01*
X902908Y485292D01*
X902911Y485336D01*
X902927Y485400D01*
X903132Y487745D01*
X903130Y487769D01*
X903134Y487800D01*
X903134Y502800D01*
X903130Y502824D01*
X903132Y502855D01*
X902927Y505200D01*
X902915Y505243D01*
X902908Y505308D01*
X902298Y507581D01*
X902279Y507622D01*
X902261Y507685D01*
X901266Y509818D01*
X901240Y509855D01*
X901211Y509914D01*
X899861Y511841D01*
X899829Y511873D01*
X899790Y511926D01*
X898126Y513590D01*
X898089Y513616D01*
X898041Y513661D01*
X896114Y515011D01*
X896073Y515030D01*
X896018Y515066D01*
X893885Y516061D01*
X893842Y516072D01*
X893781Y516098D01*
X891508Y516708D01*
X891464Y516711D01*
X891400Y516727D01*
X889055Y516932D01*
X889011Y516928D01*
X888945Y516932D01*
X886600Y516727D01*
X886557Y516715D01*
X886492Y516708D01*
X884219Y516098D01*
X884178Y516079D01*
X884115Y516061D01*
X881982Y515066D01*
X881945Y515040D01*
X881886Y515011D01*
X879959Y513661D01*
X879927Y513629D01*
X879874Y513590D01*
X878210Y511926D01*
X878184Y511889D01*
X878139Y511841D01*
X876789Y509914D01*
X876770Y509873D01*
X876734Y509818D01*
X875739Y507685D01*
X875728Y507642D01*
X875702Y507581D01*
X875092Y505308D01*
X875089Y505264D01*
X875073Y505200D01*
X874868Y502855D01*
X874870Y502831D01*
X874866Y502800D01*
X874866Y487800D01*
X874870Y487776D01*
X874868Y487745D01*
X875073Y485400D01*
X875085Y485357D01*
X875092Y485292D01*
X875702Y483019D01*
X875721Y482978D01*
X875739Y482915D01*
X876734Y480782D01*
X876760Y480745D01*
X876789Y480686D01*
X878139Y478759D01*
X878171Y478727D01*
X878210Y478674D01*
X879874Y477010D01*
X879906Y476988D01*
X879925Y476967D01*
X879934Y476963D01*
X879959Y476939D01*
X881886Y475589D01*
X881927Y475570D01*
X881982Y475534D01*
X884115Y474539D01*
X884158Y474528D01*
X884219Y474502D01*
X886492Y473892D01*
X886536Y473889D01*
X886600Y473873D01*
X888945Y473668D01*
X888989Y473672D01*
X889055Y473668D01*
X891400Y473873D01*
G37*
G36*
X662800Y473873D02*
X662800Y473873D01*
X662843Y473885D01*
X662908Y473892D01*
X665181Y474502D01*
X665222Y474521D01*
X665285Y474539D01*
X667418Y475534D01*
X667455Y475560D01*
X667514Y475589D01*
X669441Y476939D01*
X669473Y476971D01*
X669483Y476978D01*
X669504Y476991D01*
X669511Y476999D01*
X669526Y477010D01*
X671190Y478674D01*
X671216Y478711D01*
X671261Y478759D01*
X672611Y480686D01*
X672630Y480727D01*
X672666Y480782D01*
X673661Y482915D01*
X673672Y482958D01*
X673698Y483019D01*
X674308Y485292D01*
X674311Y485336D01*
X674327Y485400D01*
X674532Y487745D01*
X674530Y487769D01*
X674534Y487800D01*
X674534Y502800D01*
X674530Y502824D01*
X674532Y502855D01*
X674327Y505200D01*
X674315Y505243D01*
X674308Y505308D01*
X673698Y507581D01*
X673679Y507622D01*
X673661Y507685D01*
X672666Y509818D01*
X672640Y509855D01*
X672611Y509914D01*
X671261Y511841D01*
X671229Y511873D01*
X671190Y511926D01*
X669526Y513590D01*
X669489Y513616D01*
X669441Y513661D01*
X667514Y515011D01*
X667473Y515030D01*
X667418Y515066D01*
X665285Y516061D01*
X665242Y516072D01*
X665181Y516098D01*
X662908Y516708D01*
X662864Y516711D01*
X662800Y516727D01*
X660455Y516932D01*
X660411Y516928D01*
X660345Y516932D01*
X658000Y516727D01*
X657957Y516715D01*
X657892Y516708D01*
X655619Y516098D01*
X655578Y516079D01*
X655515Y516061D01*
X653382Y515066D01*
X653345Y515040D01*
X653286Y515011D01*
X651359Y513661D01*
X651327Y513629D01*
X651274Y513590D01*
X649610Y511926D01*
X649584Y511889D01*
X649539Y511841D01*
X648189Y509914D01*
X648170Y509873D01*
X648134Y509818D01*
X647139Y507685D01*
X647128Y507642D01*
X647102Y507581D01*
X646492Y505308D01*
X646489Y505264D01*
X646473Y505200D01*
X646268Y502855D01*
X646270Y502831D01*
X646266Y502800D01*
X646266Y487800D01*
X646270Y487776D01*
X646268Y487745D01*
X646473Y485400D01*
X646485Y485357D01*
X646492Y485292D01*
X647102Y483019D01*
X647121Y482978D01*
X647139Y482915D01*
X648134Y480782D01*
X648160Y480745D01*
X648189Y480686D01*
X649539Y478759D01*
X649571Y478727D01*
X649610Y478674D01*
X651274Y477010D01*
X651306Y476988D01*
X651325Y476967D01*
X651334Y476963D01*
X651359Y476939D01*
X653286Y475589D01*
X653327Y475570D01*
X653382Y475534D01*
X655515Y474539D01*
X655558Y474528D01*
X655619Y474502D01*
X657892Y473892D01*
X657936Y473889D01*
X658000Y473873D01*
X660345Y473668D01*
X660389Y473672D01*
X660455Y473668D01*
X662800Y473873D01*
G37*
G36*
X548500Y397673D02*
X548500Y397673D01*
X548543Y397685D01*
X548608Y397692D01*
X550881Y398302D01*
X550922Y398321D01*
X550985Y398339D01*
X553118Y399334D01*
X553155Y399360D01*
X553214Y399389D01*
X555141Y400739D01*
X555173Y400771D01*
X555183Y400778D01*
X555205Y400791D01*
X555211Y400799D01*
X555226Y400810D01*
X556890Y402474D01*
X556916Y402511D01*
X556961Y402559D01*
X558311Y404486D01*
X558330Y404527D01*
X558366Y404582D01*
X559361Y406715D01*
X559372Y406758D01*
X559398Y406819D01*
X560008Y409092D01*
X560011Y409136D01*
X560027Y409200D01*
X560232Y411545D01*
X560230Y411569D01*
X560234Y411600D01*
X560234Y426600D01*
X560230Y426624D01*
X560232Y426655D01*
X560027Y429000D01*
X560015Y429043D01*
X560008Y429108D01*
X559398Y431381D01*
X559379Y431422D01*
X559361Y431485D01*
X558366Y433618D01*
X558340Y433655D01*
X558311Y433714D01*
X556961Y435641D01*
X556929Y435673D01*
X556890Y435726D01*
X555226Y437390D01*
X555189Y437416D01*
X555141Y437461D01*
X553214Y438811D01*
X553173Y438830D01*
X553118Y438866D01*
X550985Y439861D01*
X550942Y439872D01*
X550881Y439898D01*
X548608Y440508D01*
X548564Y440511D01*
X548500Y440527D01*
X546155Y440732D01*
X546111Y440728D01*
X546045Y440732D01*
X543700Y440527D01*
X543657Y440515D01*
X543592Y440508D01*
X541319Y439898D01*
X541278Y439879D01*
X541215Y439861D01*
X539082Y438866D01*
X539045Y438840D01*
X538986Y438811D01*
X537059Y437461D01*
X537027Y437429D01*
X536974Y437390D01*
X535310Y435726D01*
X535284Y435689D01*
X535239Y435641D01*
X533889Y433714D01*
X533870Y433673D01*
X533834Y433618D01*
X532839Y431485D01*
X532828Y431442D01*
X532802Y431381D01*
X532192Y429108D01*
X532189Y429064D01*
X532173Y429000D01*
X531968Y426655D01*
X531970Y426631D01*
X531966Y426600D01*
X531966Y411600D01*
X531970Y411576D01*
X531968Y411545D01*
X532173Y409200D01*
X532185Y409157D01*
X532192Y409092D01*
X532802Y406819D01*
X532821Y406778D01*
X532839Y406715D01*
X533834Y404582D01*
X533860Y404545D01*
X533889Y404486D01*
X535239Y402559D01*
X535271Y402527D01*
X535310Y402474D01*
X536974Y400810D01*
X537006Y400788D01*
X537025Y400767D01*
X537034Y400763D01*
X537059Y400739D01*
X538986Y399389D01*
X539027Y399370D01*
X539082Y399334D01*
X541215Y398339D01*
X541258Y398328D01*
X541319Y398302D01*
X543592Y397692D01*
X543636Y397689D01*
X543700Y397673D01*
X546045Y397468D01*
X546089Y397472D01*
X546155Y397468D01*
X548500Y397673D01*
G37*
G36*
X662800Y397673D02*
X662800Y397673D01*
X662843Y397685D01*
X662908Y397692D01*
X665181Y398302D01*
X665222Y398321D01*
X665285Y398339D01*
X667418Y399334D01*
X667455Y399360D01*
X667514Y399389D01*
X669441Y400739D01*
X669473Y400771D01*
X669483Y400778D01*
X669505Y400791D01*
X669511Y400799D01*
X669526Y400810D01*
X671190Y402474D01*
X671216Y402511D01*
X671261Y402559D01*
X672611Y404486D01*
X672630Y404527D01*
X672666Y404582D01*
X673661Y406715D01*
X673672Y406758D01*
X673698Y406819D01*
X674308Y409092D01*
X674311Y409136D01*
X674327Y409200D01*
X674532Y411545D01*
X674530Y411569D01*
X674534Y411600D01*
X674534Y426600D01*
X674530Y426624D01*
X674532Y426655D01*
X674327Y429000D01*
X674315Y429043D01*
X674308Y429108D01*
X673698Y431381D01*
X673679Y431422D01*
X673661Y431485D01*
X672666Y433618D01*
X672640Y433655D01*
X672611Y433714D01*
X671261Y435641D01*
X671229Y435673D01*
X671190Y435726D01*
X669526Y437390D01*
X669489Y437416D01*
X669441Y437461D01*
X667514Y438811D01*
X667473Y438830D01*
X667418Y438866D01*
X665285Y439861D01*
X665242Y439872D01*
X665181Y439898D01*
X662908Y440508D01*
X662864Y440511D01*
X662800Y440527D01*
X660455Y440732D01*
X660411Y440728D01*
X660345Y440732D01*
X658000Y440527D01*
X657957Y440515D01*
X657892Y440508D01*
X655619Y439898D01*
X655578Y439879D01*
X655515Y439861D01*
X653382Y438866D01*
X653345Y438840D01*
X653286Y438811D01*
X651359Y437461D01*
X651327Y437429D01*
X651274Y437390D01*
X649610Y435726D01*
X649584Y435689D01*
X649539Y435641D01*
X648189Y433714D01*
X648170Y433673D01*
X648134Y433618D01*
X647139Y431485D01*
X647128Y431442D01*
X647102Y431381D01*
X646492Y429108D01*
X646489Y429064D01*
X646473Y429000D01*
X646268Y426655D01*
X646270Y426631D01*
X646266Y426600D01*
X646266Y411600D01*
X646270Y411576D01*
X646268Y411545D01*
X646473Y409200D01*
X646485Y409157D01*
X646492Y409092D01*
X647102Y406819D01*
X647121Y406778D01*
X647139Y406715D01*
X648134Y404582D01*
X648160Y404545D01*
X648189Y404486D01*
X649539Y402559D01*
X649571Y402527D01*
X649610Y402474D01*
X651274Y400810D01*
X651306Y400788D01*
X651325Y400767D01*
X651334Y400763D01*
X651359Y400739D01*
X653286Y399389D01*
X653327Y399370D01*
X653382Y399334D01*
X655515Y398339D01*
X655558Y398328D01*
X655619Y398302D01*
X657892Y397692D01*
X657936Y397689D01*
X658000Y397673D01*
X660345Y397468D01*
X660389Y397472D01*
X660455Y397468D01*
X662800Y397673D01*
G37*
G36*
X1005700Y397673D02*
X1005700Y397673D01*
X1005743Y397685D01*
X1005808Y397692D01*
X1008081Y398302D01*
X1008122Y398321D01*
X1008185Y398339D01*
X1010318Y399334D01*
X1010355Y399360D01*
X1010414Y399389D01*
X1012341Y400739D01*
X1012373Y400771D01*
X1012383Y400778D01*
X1012405Y400791D01*
X1012411Y400799D01*
X1012426Y400810D01*
X1014090Y402474D01*
X1014116Y402511D01*
X1014161Y402559D01*
X1015511Y404486D01*
X1015530Y404527D01*
X1015566Y404582D01*
X1016561Y406715D01*
X1016572Y406758D01*
X1016598Y406819D01*
X1017208Y409092D01*
X1017211Y409136D01*
X1017227Y409200D01*
X1017432Y411545D01*
X1017430Y411569D01*
X1017434Y411600D01*
X1017434Y426600D01*
X1017430Y426624D01*
X1017432Y426655D01*
X1017227Y429000D01*
X1017215Y429043D01*
X1017208Y429108D01*
X1016598Y431381D01*
X1016579Y431422D01*
X1016561Y431485D01*
X1015566Y433618D01*
X1015540Y433655D01*
X1015511Y433714D01*
X1014161Y435641D01*
X1014129Y435673D01*
X1014090Y435726D01*
X1012426Y437390D01*
X1012389Y437416D01*
X1012341Y437461D01*
X1010414Y438811D01*
X1010373Y438830D01*
X1010318Y438866D01*
X1008185Y439861D01*
X1008142Y439872D01*
X1008081Y439898D01*
X1005808Y440508D01*
X1005764Y440511D01*
X1005700Y440527D01*
X1003355Y440732D01*
X1003311Y440728D01*
X1003245Y440732D01*
X1000900Y440527D01*
X1000857Y440515D01*
X1000792Y440508D01*
X998519Y439898D01*
X998478Y439879D01*
X998415Y439861D01*
X996282Y438866D01*
X996245Y438840D01*
X996186Y438811D01*
X994259Y437461D01*
X994227Y437429D01*
X994174Y437390D01*
X992510Y435726D01*
X992484Y435689D01*
X992439Y435641D01*
X991089Y433714D01*
X991070Y433673D01*
X991034Y433618D01*
X990039Y431485D01*
X990028Y431442D01*
X990002Y431381D01*
X989392Y429108D01*
X989389Y429064D01*
X989373Y429000D01*
X989168Y426655D01*
X989170Y426631D01*
X989166Y426600D01*
X989166Y411600D01*
X989170Y411576D01*
X989168Y411545D01*
X989373Y409200D01*
X989385Y409157D01*
X989392Y409092D01*
X990002Y406819D01*
X990021Y406778D01*
X990039Y406715D01*
X991034Y404582D01*
X991060Y404545D01*
X991089Y404486D01*
X992439Y402559D01*
X992471Y402527D01*
X992510Y402474D01*
X994174Y400810D01*
X994206Y400788D01*
X994225Y400767D01*
X994234Y400763D01*
X994259Y400739D01*
X996186Y399389D01*
X996227Y399370D01*
X996282Y399334D01*
X998415Y398339D01*
X998458Y398328D01*
X998519Y398302D01*
X1000792Y397692D01*
X1000836Y397689D01*
X1000900Y397673D01*
X1003245Y397468D01*
X1003289Y397472D01*
X1003355Y397468D01*
X1005700Y397673D01*
G37*
G36*
X434200Y397673D02*
X434200Y397673D01*
X434243Y397685D01*
X434308Y397692D01*
X436581Y398302D01*
X436622Y398321D01*
X436685Y398339D01*
X438818Y399334D01*
X438855Y399360D01*
X438914Y399389D01*
X440841Y400739D01*
X440873Y400771D01*
X440883Y400778D01*
X440905Y400791D01*
X440911Y400799D01*
X440926Y400810D01*
X442590Y402474D01*
X442616Y402511D01*
X442661Y402559D01*
X444011Y404486D01*
X444030Y404527D01*
X444066Y404582D01*
X445061Y406715D01*
X445072Y406758D01*
X445098Y406819D01*
X445708Y409092D01*
X445711Y409136D01*
X445727Y409200D01*
X445932Y411545D01*
X445930Y411569D01*
X445934Y411600D01*
X445934Y426600D01*
X445930Y426624D01*
X445932Y426655D01*
X445727Y429000D01*
X445715Y429043D01*
X445708Y429108D01*
X445098Y431381D01*
X445079Y431422D01*
X445061Y431485D01*
X444066Y433618D01*
X444040Y433655D01*
X444011Y433714D01*
X442661Y435641D01*
X442629Y435673D01*
X442590Y435726D01*
X440926Y437390D01*
X440889Y437416D01*
X440841Y437461D01*
X438914Y438811D01*
X438873Y438830D01*
X438818Y438866D01*
X436685Y439861D01*
X436642Y439872D01*
X436581Y439898D01*
X434308Y440508D01*
X434264Y440511D01*
X434200Y440527D01*
X431855Y440732D01*
X431811Y440728D01*
X431745Y440732D01*
X429400Y440527D01*
X429357Y440515D01*
X429292Y440508D01*
X427019Y439898D01*
X426978Y439879D01*
X426915Y439861D01*
X424782Y438866D01*
X424745Y438840D01*
X424686Y438811D01*
X422759Y437461D01*
X422727Y437429D01*
X422674Y437390D01*
X421010Y435726D01*
X420984Y435689D01*
X420939Y435641D01*
X419589Y433714D01*
X419570Y433673D01*
X419534Y433618D01*
X418539Y431485D01*
X418528Y431442D01*
X418502Y431381D01*
X417892Y429108D01*
X417889Y429064D01*
X417873Y429000D01*
X417668Y426655D01*
X417670Y426631D01*
X417666Y426600D01*
X417666Y411600D01*
X417670Y411576D01*
X417668Y411545D01*
X417873Y409200D01*
X417885Y409157D01*
X417892Y409092D01*
X418502Y406819D01*
X418521Y406778D01*
X418539Y406715D01*
X419534Y404582D01*
X419560Y404545D01*
X419589Y404486D01*
X420939Y402559D01*
X420971Y402527D01*
X421010Y402474D01*
X422674Y400810D01*
X422706Y400788D01*
X422725Y400767D01*
X422734Y400763D01*
X422759Y400739D01*
X424686Y399389D01*
X424727Y399370D01*
X424782Y399334D01*
X426915Y398339D01*
X426958Y398328D01*
X427019Y398302D01*
X429292Y397692D01*
X429336Y397689D01*
X429400Y397673D01*
X431745Y397468D01*
X431789Y397472D01*
X431855Y397468D01*
X434200Y397673D01*
G37*
G36*
X319900Y397673D02*
X319900Y397673D01*
X319943Y397685D01*
X320008Y397692D01*
X322281Y398302D01*
X322322Y398321D01*
X322385Y398339D01*
X324518Y399334D01*
X324555Y399360D01*
X324614Y399389D01*
X326541Y400739D01*
X326573Y400771D01*
X326583Y400778D01*
X326605Y400791D01*
X326611Y400799D01*
X326626Y400810D01*
X328290Y402474D01*
X328316Y402511D01*
X328361Y402559D01*
X329711Y404486D01*
X329730Y404527D01*
X329766Y404582D01*
X330761Y406715D01*
X330772Y406758D01*
X330798Y406819D01*
X331408Y409092D01*
X331411Y409136D01*
X331427Y409200D01*
X331632Y411545D01*
X331630Y411569D01*
X331634Y411600D01*
X331634Y426600D01*
X331630Y426624D01*
X331632Y426655D01*
X331427Y429000D01*
X331415Y429043D01*
X331408Y429108D01*
X330798Y431381D01*
X330779Y431422D01*
X330761Y431485D01*
X329766Y433618D01*
X329740Y433655D01*
X329711Y433714D01*
X328361Y435641D01*
X328329Y435673D01*
X328290Y435726D01*
X326626Y437390D01*
X326589Y437416D01*
X326541Y437461D01*
X324614Y438811D01*
X324573Y438830D01*
X324518Y438866D01*
X322385Y439861D01*
X322342Y439872D01*
X322281Y439898D01*
X320008Y440508D01*
X319964Y440511D01*
X319900Y440527D01*
X317555Y440732D01*
X317511Y440728D01*
X317445Y440732D01*
X315100Y440527D01*
X315057Y440515D01*
X314992Y440508D01*
X312719Y439898D01*
X312678Y439879D01*
X312615Y439861D01*
X310482Y438866D01*
X310445Y438840D01*
X310386Y438811D01*
X308459Y437461D01*
X308427Y437429D01*
X308374Y437390D01*
X306710Y435726D01*
X306684Y435689D01*
X306639Y435641D01*
X305289Y433714D01*
X305270Y433673D01*
X305234Y433618D01*
X304239Y431485D01*
X304228Y431442D01*
X304202Y431381D01*
X303592Y429108D01*
X303589Y429064D01*
X303573Y429000D01*
X303368Y426655D01*
X303370Y426631D01*
X303366Y426600D01*
X303366Y411600D01*
X303370Y411576D01*
X303368Y411545D01*
X303573Y409200D01*
X303585Y409157D01*
X303592Y409092D01*
X304202Y406819D01*
X304221Y406778D01*
X304239Y406715D01*
X305234Y404582D01*
X305260Y404545D01*
X305289Y404486D01*
X306639Y402559D01*
X306671Y402527D01*
X306710Y402474D01*
X308374Y400810D01*
X308406Y400788D01*
X308425Y400767D01*
X308434Y400763D01*
X308459Y400739D01*
X310386Y399389D01*
X310427Y399370D01*
X310482Y399334D01*
X312615Y398339D01*
X312658Y398328D01*
X312719Y398302D01*
X314992Y397692D01*
X315036Y397689D01*
X315100Y397673D01*
X317445Y397468D01*
X317489Y397472D01*
X317555Y397468D01*
X319900Y397673D01*
G37*
G36*
X891400Y397673D02*
X891400Y397673D01*
X891443Y397685D01*
X891508Y397692D01*
X893781Y398302D01*
X893822Y398321D01*
X893885Y398339D01*
X896018Y399334D01*
X896055Y399360D01*
X896114Y399389D01*
X898041Y400739D01*
X898073Y400771D01*
X898083Y400778D01*
X898105Y400791D01*
X898111Y400799D01*
X898126Y400810D01*
X899790Y402474D01*
X899816Y402511D01*
X899861Y402559D01*
X901211Y404486D01*
X901230Y404527D01*
X901266Y404582D01*
X902261Y406715D01*
X902272Y406758D01*
X902298Y406819D01*
X902908Y409092D01*
X902911Y409136D01*
X902927Y409200D01*
X903132Y411545D01*
X903130Y411569D01*
X903134Y411600D01*
X903134Y426600D01*
X903130Y426624D01*
X903132Y426655D01*
X902927Y429000D01*
X902915Y429043D01*
X902908Y429108D01*
X902298Y431381D01*
X902279Y431422D01*
X902261Y431485D01*
X901266Y433618D01*
X901240Y433655D01*
X901211Y433714D01*
X899861Y435641D01*
X899829Y435673D01*
X899790Y435726D01*
X898126Y437390D01*
X898089Y437416D01*
X898041Y437461D01*
X896114Y438811D01*
X896073Y438830D01*
X896018Y438866D01*
X893885Y439861D01*
X893842Y439872D01*
X893781Y439898D01*
X891508Y440508D01*
X891464Y440511D01*
X891400Y440527D01*
X889055Y440732D01*
X889011Y440728D01*
X888945Y440732D01*
X886600Y440527D01*
X886557Y440515D01*
X886492Y440508D01*
X884219Y439898D01*
X884178Y439879D01*
X884115Y439861D01*
X881982Y438866D01*
X881945Y438840D01*
X881886Y438811D01*
X879959Y437461D01*
X879927Y437429D01*
X879874Y437390D01*
X878210Y435726D01*
X878184Y435689D01*
X878139Y435641D01*
X876789Y433714D01*
X876770Y433673D01*
X876734Y433618D01*
X875739Y431485D01*
X875728Y431442D01*
X875702Y431381D01*
X875092Y429108D01*
X875089Y429064D01*
X875073Y429000D01*
X874868Y426655D01*
X874870Y426631D01*
X874866Y426600D01*
X874866Y411600D01*
X874870Y411576D01*
X874868Y411545D01*
X875073Y409200D01*
X875085Y409157D01*
X875092Y409092D01*
X875702Y406819D01*
X875721Y406778D01*
X875739Y406715D01*
X876734Y404582D01*
X876760Y404545D01*
X876789Y404486D01*
X878139Y402559D01*
X878171Y402527D01*
X878210Y402474D01*
X879874Y400810D01*
X879906Y400788D01*
X879925Y400767D01*
X879934Y400763D01*
X879959Y400739D01*
X881886Y399389D01*
X881927Y399370D01*
X881982Y399334D01*
X884115Y398339D01*
X884158Y398328D01*
X884219Y398302D01*
X886492Y397692D01*
X886536Y397689D01*
X886600Y397673D01*
X888945Y397468D01*
X888989Y397472D01*
X889055Y397468D01*
X891400Y397673D01*
G37*
G36*
X777100Y397673D02*
X777100Y397673D01*
X777143Y397685D01*
X777208Y397692D01*
X779481Y398302D01*
X779522Y398321D01*
X779585Y398339D01*
X781718Y399334D01*
X781755Y399360D01*
X781814Y399389D01*
X783741Y400739D01*
X783773Y400771D01*
X783783Y400778D01*
X783805Y400791D01*
X783811Y400799D01*
X783826Y400810D01*
X785490Y402474D01*
X785516Y402511D01*
X785561Y402559D01*
X786911Y404486D01*
X786930Y404527D01*
X786966Y404582D01*
X787961Y406715D01*
X787972Y406758D01*
X787998Y406819D01*
X788608Y409092D01*
X788611Y409136D01*
X788627Y409200D01*
X788832Y411545D01*
X788830Y411569D01*
X788834Y411600D01*
X788834Y426600D01*
X788830Y426624D01*
X788832Y426655D01*
X788627Y429000D01*
X788615Y429043D01*
X788608Y429108D01*
X787998Y431381D01*
X787979Y431422D01*
X787961Y431485D01*
X786966Y433618D01*
X786940Y433655D01*
X786911Y433714D01*
X785561Y435641D01*
X785529Y435673D01*
X785490Y435726D01*
X783826Y437390D01*
X783789Y437416D01*
X783741Y437461D01*
X781814Y438811D01*
X781773Y438830D01*
X781718Y438866D01*
X779585Y439861D01*
X779542Y439872D01*
X779481Y439898D01*
X777208Y440508D01*
X777164Y440511D01*
X777100Y440527D01*
X774755Y440732D01*
X774711Y440728D01*
X774645Y440732D01*
X772300Y440527D01*
X772257Y440515D01*
X772192Y440508D01*
X769919Y439898D01*
X769878Y439879D01*
X769815Y439861D01*
X767682Y438866D01*
X767645Y438840D01*
X767586Y438811D01*
X765659Y437461D01*
X765627Y437429D01*
X765574Y437390D01*
X763910Y435726D01*
X763884Y435689D01*
X763839Y435641D01*
X762489Y433714D01*
X762470Y433673D01*
X762434Y433618D01*
X761439Y431485D01*
X761428Y431442D01*
X761402Y431381D01*
X760792Y429108D01*
X760789Y429064D01*
X760773Y429000D01*
X760568Y426655D01*
X760570Y426631D01*
X760566Y426600D01*
X760566Y411600D01*
X760570Y411576D01*
X760568Y411545D01*
X760773Y409200D01*
X760785Y409157D01*
X760792Y409092D01*
X761402Y406819D01*
X761421Y406778D01*
X761439Y406715D01*
X762434Y404582D01*
X762460Y404545D01*
X762489Y404486D01*
X763839Y402559D01*
X763871Y402527D01*
X763910Y402474D01*
X765574Y400810D01*
X765606Y400788D01*
X765625Y400767D01*
X765634Y400763D01*
X765659Y400739D01*
X767586Y399389D01*
X767627Y399370D01*
X767682Y399334D01*
X769815Y398339D01*
X769858Y398328D01*
X769919Y398302D01*
X772192Y397692D01*
X772236Y397689D01*
X772300Y397673D01*
X774645Y397468D01*
X774689Y397472D01*
X774755Y397468D01*
X777100Y397673D01*
G37*
G36*
X205600Y397673D02*
X205600Y397673D01*
X205643Y397685D01*
X205708Y397692D01*
X207981Y398302D01*
X208022Y398321D01*
X208085Y398339D01*
X210218Y399334D01*
X210255Y399360D01*
X210314Y399389D01*
X212241Y400739D01*
X212273Y400771D01*
X212283Y400778D01*
X212305Y400791D01*
X212311Y400799D01*
X212326Y400810D01*
X213990Y402474D01*
X214016Y402511D01*
X214061Y402559D01*
X215411Y404486D01*
X215430Y404527D01*
X215466Y404582D01*
X216461Y406715D01*
X216472Y406758D01*
X216498Y406819D01*
X217108Y409092D01*
X217111Y409136D01*
X217127Y409200D01*
X217332Y411545D01*
X217330Y411569D01*
X217334Y411600D01*
X217334Y426600D01*
X217330Y426624D01*
X217332Y426655D01*
X217127Y429000D01*
X217115Y429043D01*
X217108Y429108D01*
X216498Y431381D01*
X216479Y431422D01*
X216461Y431485D01*
X215466Y433618D01*
X215440Y433655D01*
X215411Y433714D01*
X214061Y435641D01*
X214029Y435673D01*
X213990Y435726D01*
X212326Y437390D01*
X212289Y437416D01*
X212241Y437461D01*
X210314Y438811D01*
X210273Y438830D01*
X210218Y438866D01*
X208085Y439861D01*
X208042Y439872D01*
X207981Y439898D01*
X205708Y440508D01*
X205664Y440511D01*
X205600Y440527D01*
X203255Y440732D01*
X203211Y440728D01*
X203145Y440732D01*
X200800Y440527D01*
X200757Y440515D01*
X200692Y440508D01*
X198419Y439898D01*
X198378Y439879D01*
X198315Y439861D01*
X196182Y438866D01*
X196145Y438840D01*
X196086Y438811D01*
X194159Y437461D01*
X194127Y437429D01*
X194074Y437390D01*
X192410Y435726D01*
X192384Y435689D01*
X192339Y435641D01*
X190989Y433714D01*
X190970Y433673D01*
X190934Y433618D01*
X189939Y431485D01*
X189928Y431442D01*
X189902Y431381D01*
X189292Y429108D01*
X189289Y429064D01*
X189273Y429000D01*
X189068Y426655D01*
X189070Y426631D01*
X189066Y426600D01*
X189066Y411600D01*
X189070Y411576D01*
X189068Y411545D01*
X189273Y409200D01*
X189285Y409157D01*
X189292Y409092D01*
X189902Y406819D01*
X189921Y406778D01*
X189939Y406715D01*
X190934Y404582D01*
X190960Y404545D01*
X190989Y404486D01*
X192339Y402559D01*
X192371Y402527D01*
X192410Y402474D01*
X194074Y400810D01*
X194106Y400788D01*
X194125Y400767D01*
X194134Y400763D01*
X194159Y400739D01*
X196086Y399389D01*
X196127Y399370D01*
X196182Y399334D01*
X198315Y398339D01*
X198358Y398328D01*
X198419Y398302D01*
X200692Y397692D01*
X200736Y397689D01*
X200800Y397673D01*
X203145Y397468D01*
X203189Y397472D01*
X203255Y397468D01*
X205600Y397673D01*
G37*
G36*
X777100Y321473D02*
X777100Y321473D01*
X777143Y321485D01*
X777208Y321492D01*
X779481Y322102D01*
X779522Y322121D01*
X779585Y322139D01*
X781718Y323134D01*
X781755Y323160D01*
X781814Y323189D01*
X783741Y324539D01*
X783773Y324571D01*
X783783Y324578D01*
X783805Y324591D01*
X783811Y324599D01*
X783826Y324610D01*
X785490Y326274D01*
X785516Y326311D01*
X785561Y326359D01*
X786911Y328286D01*
X786930Y328327D01*
X786966Y328382D01*
X787961Y330515D01*
X787972Y330558D01*
X787998Y330619D01*
X788608Y332892D01*
X788611Y332936D01*
X788627Y333000D01*
X788832Y335345D01*
X788830Y335369D01*
X788834Y335400D01*
X788834Y350400D01*
X788830Y350424D01*
X788832Y350455D01*
X788627Y352800D01*
X788615Y352843D01*
X788608Y352908D01*
X787998Y355181D01*
X787979Y355222D01*
X787961Y355285D01*
X786966Y357418D01*
X786940Y357455D01*
X786911Y357514D01*
X785561Y359441D01*
X785529Y359473D01*
X785490Y359526D01*
X783826Y361190D01*
X783789Y361216D01*
X783741Y361261D01*
X781814Y362611D01*
X781773Y362630D01*
X781718Y362666D01*
X779585Y363661D01*
X779542Y363672D01*
X779481Y363698D01*
X777208Y364308D01*
X777164Y364311D01*
X777100Y364327D01*
X774755Y364532D01*
X774711Y364528D01*
X774645Y364532D01*
X772300Y364327D01*
X772257Y364315D01*
X772192Y364308D01*
X769919Y363698D01*
X769878Y363679D01*
X769815Y363661D01*
X767682Y362666D01*
X767645Y362640D01*
X767586Y362611D01*
X765659Y361261D01*
X765627Y361229D01*
X765574Y361190D01*
X763910Y359526D01*
X763884Y359489D01*
X763839Y359441D01*
X762489Y357514D01*
X762470Y357473D01*
X762434Y357418D01*
X761439Y355285D01*
X761428Y355242D01*
X761402Y355181D01*
X760792Y352908D01*
X760789Y352864D01*
X760773Y352800D01*
X760568Y350455D01*
X760570Y350431D01*
X760566Y350400D01*
X760566Y335400D01*
X760570Y335376D01*
X760568Y335345D01*
X760773Y333000D01*
X760785Y332957D01*
X760792Y332892D01*
X761402Y330619D01*
X761421Y330578D01*
X761439Y330515D01*
X762434Y328382D01*
X762460Y328345D01*
X762489Y328286D01*
X763839Y326359D01*
X763871Y326327D01*
X763910Y326274D01*
X765574Y324610D01*
X765606Y324588D01*
X765625Y324567D01*
X765634Y324563D01*
X765659Y324539D01*
X767586Y323189D01*
X767627Y323170D01*
X767682Y323134D01*
X769815Y322139D01*
X769858Y322128D01*
X769919Y322102D01*
X772192Y321492D01*
X772236Y321489D01*
X772300Y321473D01*
X774645Y321268D01*
X774689Y321272D01*
X774755Y321268D01*
X777100Y321473D01*
G37*
G36*
X662800Y321473D02*
X662800Y321473D01*
X662843Y321485D01*
X662908Y321492D01*
X665181Y322102D01*
X665222Y322121D01*
X665285Y322139D01*
X667418Y323134D01*
X667455Y323160D01*
X667514Y323189D01*
X669441Y324539D01*
X669473Y324571D01*
X669483Y324578D01*
X669505Y324591D01*
X669511Y324599D01*
X669526Y324610D01*
X671190Y326274D01*
X671216Y326311D01*
X671261Y326359D01*
X672611Y328286D01*
X672630Y328327D01*
X672666Y328382D01*
X673661Y330515D01*
X673672Y330558D01*
X673698Y330619D01*
X674308Y332892D01*
X674311Y332936D01*
X674327Y333000D01*
X674532Y335345D01*
X674530Y335369D01*
X674534Y335400D01*
X674534Y350400D01*
X674530Y350424D01*
X674532Y350455D01*
X674327Y352800D01*
X674315Y352843D01*
X674308Y352908D01*
X673698Y355181D01*
X673679Y355222D01*
X673661Y355285D01*
X672666Y357418D01*
X672640Y357455D01*
X672611Y357514D01*
X671261Y359441D01*
X671229Y359473D01*
X671190Y359526D01*
X669526Y361190D01*
X669489Y361216D01*
X669441Y361261D01*
X667514Y362611D01*
X667473Y362630D01*
X667418Y362666D01*
X665285Y363661D01*
X665242Y363672D01*
X665181Y363698D01*
X662908Y364308D01*
X662864Y364311D01*
X662800Y364327D01*
X660455Y364532D01*
X660411Y364528D01*
X660345Y364532D01*
X658000Y364327D01*
X657957Y364315D01*
X657892Y364308D01*
X655619Y363698D01*
X655578Y363679D01*
X655515Y363661D01*
X653382Y362666D01*
X653345Y362640D01*
X653286Y362611D01*
X651359Y361261D01*
X651327Y361229D01*
X651274Y361190D01*
X649610Y359526D01*
X649584Y359489D01*
X649539Y359441D01*
X648189Y357514D01*
X648170Y357473D01*
X648134Y357418D01*
X647139Y355285D01*
X647128Y355242D01*
X647102Y355181D01*
X646492Y352908D01*
X646489Y352864D01*
X646473Y352800D01*
X646268Y350455D01*
X646270Y350431D01*
X646266Y350400D01*
X646266Y335400D01*
X646270Y335376D01*
X646268Y335345D01*
X646473Y333000D01*
X646485Y332957D01*
X646492Y332892D01*
X647102Y330619D01*
X647121Y330578D01*
X647139Y330515D01*
X648134Y328382D01*
X648160Y328345D01*
X648189Y328286D01*
X649539Y326359D01*
X649571Y326327D01*
X649610Y326274D01*
X651274Y324610D01*
X651306Y324588D01*
X651325Y324567D01*
X651334Y324563D01*
X651359Y324539D01*
X653286Y323189D01*
X653327Y323170D01*
X653382Y323134D01*
X655515Y322139D01*
X655558Y322128D01*
X655619Y322102D01*
X657892Y321492D01*
X657936Y321489D01*
X658000Y321473D01*
X660345Y321268D01*
X660389Y321272D01*
X660455Y321268D01*
X662800Y321473D01*
G37*
G36*
X891400Y321473D02*
X891400Y321473D01*
X891443Y321485D01*
X891508Y321492D01*
X893781Y322102D01*
X893822Y322121D01*
X893885Y322139D01*
X896018Y323134D01*
X896055Y323160D01*
X896114Y323189D01*
X898041Y324539D01*
X898073Y324571D01*
X898083Y324578D01*
X898105Y324591D01*
X898111Y324599D01*
X898126Y324610D01*
X899790Y326274D01*
X899816Y326311D01*
X899861Y326359D01*
X901211Y328286D01*
X901230Y328327D01*
X901266Y328382D01*
X902261Y330515D01*
X902272Y330558D01*
X902298Y330619D01*
X902908Y332892D01*
X902911Y332936D01*
X902927Y333000D01*
X903132Y335345D01*
X903130Y335369D01*
X903134Y335400D01*
X903134Y350400D01*
X903130Y350424D01*
X903132Y350455D01*
X902927Y352800D01*
X902915Y352843D01*
X902908Y352908D01*
X902298Y355181D01*
X902279Y355222D01*
X902261Y355285D01*
X901266Y357418D01*
X901240Y357455D01*
X901211Y357514D01*
X899861Y359441D01*
X899829Y359473D01*
X899790Y359526D01*
X898126Y361190D01*
X898089Y361216D01*
X898041Y361261D01*
X896114Y362611D01*
X896073Y362630D01*
X896018Y362666D01*
X893885Y363661D01*
X893842Y363672D01*
X893781Y363698D01*
X891508Y364308D01*
X891464Y364311D01*
X891400Y364327D01*
X889055Y364532D01*
X889011Y364528D01*
X888945Y364532D01*
X886600Y364327D01*
X886557Y364315D01*
X886492Y364308D01*
X884219Y363698D01*
X884178Y363679D01*
X884115Y363661D01*
X881982Y362666D01*
X881945Y362640D01*
X881886Y362611D01*
X879959Y361261D01*
X879927Y361229D01*
X879874Y361190D01*
X878210Y359526D01*
X878184Y359489D01*
X878139Y359441D01*
X876789Y357514D01*
X876770Y357473D01*
X876734Y357418D01*
X875739Y355285D01*
X875728Y355242D01*
X875702Y355181D01*
X875092Y352908D01*
X875089Y352864D01*
X875073Y352800D01*
X874868Y350455D01*
X874870Y350431D01*
X874866Y350400D01*
X874866Y335400D01*
X874870Y335376D01*
X874868Y335345D01*
X875073Y333000D01*
X875085Y332957D01*
X875092Y332892D01*
X875702Y330619D01*
X875721Y330578D01*
X875739Y330515D01*
X876734Y328382D01*
X876760Y328345D01*
X876789Y328286D01*
X878139Y326359D01*
X878171Y326327D01*
X878210Y326274D01*
X879874Y324610D01*
X879906Y324588D01*
X879925Y324567D01*
X879934Y324563D01*
X879959Y324539D01*
X881886Y323189D01*
X881927Y323170D01*
X881982Y323134D01*
X884115Y322139D01*
X884158Y322128D01*
X884219Y322102D01*
X886492Y321492D01*
X886536Y321489D01*
X886600Y321473D01*
X888945Y321268D01*
X888989Y321272D01*
X889055Y321268D01*
X891400Y321473D01*
G37*
G36*
X1005700Y321473D02*
X1005700Y321473D01*
X1005743Y321485D01*
X1005808Y321492D01*
X1008081Y322102D01*
X1008122Y322121D01*
X1008185Y322139D01*
X1010318Y323134D01*
X1010355Y323160D01*
X1010414Y323189D01*
X1012341Y324539D01*
X1012373Y324571D01*
X1012383Y324578D01*
X1012405Y324591D01*
X1012411Y324599D01*
X1012426Y324610D01*
X1014090Y326274D01*
X1014116Y326311D01*
X1014161Y326359D01*
X1015511Y328286D01*
X1015530Y328327D01*
X1015566Y328382D01*
X1016561Y330515D01*
X1016572Y330558D01*
X1016598Y330619D01*
X1017208Y332892D01*
X1017211Y332936D01*
X1017227Y333000D01*
X1017432Y335345D01*
X1017430Y335369D01*
X1017434Y335400D01*
X1017434Y350400D01*
X1017430Y350424D01*
X1017432Y350455D01*
X1017227Y352800D01*
X1017215Y352843D01*
X1017208Y352908D01*
X1016598Y355181D01*
X1016579Y355222D01*
X1016561Y355285D01*
X1015566Y357418D01*
X1015540Y357455D01*
X1015511Y357514D01*
X1014161Y359441D01*
X1014129Y359473D01*
X1014090Y359526D01*
X1012426Y361190D01*
X1012389Y361216D01*
X1012341Y361261D01*
X1010414Y362611D01*
X1010373Y362630D01*
X1010318Y362666D01*
X1008185Y363661D01*
X1008142Y363672D01*
X1008081Y363698D01*
X1005808Y364308D01*
X1005764Y364311D01*
X1005700Y364327D01*
X1003355Y364532D01*
X1003311Y364528D01*
X1003245Y364532D01*
X1000900Y364327D01*
X1000857Y364315D01*
X1000792Y364308D01*
X998519Y363698D01*
X998478Y363679D01*
X998415Y363661D01*
X996282Y362666D01*
X996245Y362640D01*
X996186Y362611D01*
X994259Y361261D01*
X994227Y361229D01*
X994174Y361190D01*
X992510Y359526D01*
X992484Y359489D01*
X992439Y359441D01*
X991089Y357514D01*
X991070Y357473D01*
X991034Y357418D01*
X990039Y355285D01*
X990028Y355242D01*
X990002Y355181D01*
X989392Y352908D01*
X989389Y352864D01*
X989373Y352800D01*
X989168Y350455D01*
X989170Y350431D01*
X989166Y350400D01*
X989166Y335400D01*
X989170Y335376D01*
X989168Y335345D01*
X989373Y333000D01*
X989385Y332957D01*
X989392Y332892D01*
X990002Y330619D01*
X990021Y330578D01*
X990039Y330515D01*
X991034Y328382D01*
X991060Y328345D01*
X991089Y328286D01*
X992439Y326359D01*
X992471Y326327D01*
X992510Y326274D01*
X994174Y324610D01*
X994206Y324588D01*
X994225Y324567D01*
X994234Y324563D01*
X994259Y324539D01*
X996186Y323189D01*
X996227Y323170D01*
X996282Y323134D01*
X998415Y322139D01*
X998458Y322128D01*
X998519Y322102D01*
X1000792Y321492D01*
X1000836Y321489D01*
X1000900Y321473D01*
X1003245Y321268D01*
X1003289Y321272D01*
X1003355Y321268D01*
X1005700Y321473D01*
G37*
G36*
X548500Y321473D02*
X548500Y321473D01*
X548543Y321485D01*
X548608Y321492D01*
X550881Y322102D01*
X550922Y322121D01*
X550985Y322139D01*
X553118Y323134D01*
X553155Y323160D01*
X553214Y323189D01*
X555141Y324539D01*
X555173Y324571D01*
X555183Y324578D01*
X555205Y324591D01*
X555211Y324599D01*
X555226Y324610D01*
X556890Y326274D01*
X556916Y326311D01*
X556961Y326359D01*
X558311Y328286D01*
X558330Y328327D01*
X558366Y328382D01*
X559361Y330515D01*
X559372Y330558D01*
X559398Y330619D01*
X560008Y332892D01*
X560011Y332936D01*
X560027Y333000D01*
X560232Y335345D01*
X560230Y335369D01*
X560234Y335400D01*
X560234Y350400D01*
X560230Y350424D01*
X560232Y350455D01*
X560027Y352800D01*
X560015Y352843D01*
X560008Y352908D01*
X559398Y355181D01*
X559379Y355222D01*
X559361Y355285D01*
X558366Y357418D01*
X558340Y357455D01*
X558311Y357514D01*
X556961Y359441D01*
X556929Y359473D01*
X556890Y359526D01*
X555226Y361190D01*
X555189Y361216D01*
X555141Y361261D01*
X553214Y362611D01*
X553173Y362630D01*
X553118Y362666D01*
X550985Y363661D01*
X550942Y363672D01*
X550881Y363698D01*
X548608Y364308D01*
X548564Y364311D01*
X548500Y364327D01*
X546155Y364532D01*
X546111Y364528D01*
X546045Y364532D01*
X543700Y364327D01*
X543657Y364315D01*
X543592Y364308D01*
X541319Y363698D01*
X541278Y363679D01*
X541215Y363661D01*
X539082Y362666D01*
X539045Y362640D01*
X538986Y362611D01*
X537059Y361261D01*
X537027Y361229D01*
X536974Y361190D01*
X535310Y359526D01*
X535284Y359489D01*
X535239Y359441D01*
X533889Y357514D01*
X533870Y357473D01*
X533834Y357418D01*
X532839Y355285D01*
X532828Y355242D01*
X532802Y355181D01*
X532192Y352908D01*
X532189Y352864D01*
X532173Y352800D01*
X531968Y350455D01*
X531970Y350431D01*
X531966Y350400D01*
X531966Y335400D01*
X531970Y335376D01*
X531968Y335345D01*
X532173Y333000D01*
X532185Y332957D01*
X532192Y332892D01*
X532802Y330619D01*
X532821Y330578D01*
X532839Y330515D01*
X533834Y328382D01*
X533860Y328345D01*
X533889Y328286D01*
X535239Y326359D01*
X535271Y326327D01*
X535310Y326274D01*
X536974Y324610D01*
X537006Y324588D01*
X537025Y324567D01*
X537034Y324563D01*
X537059Y324539D01*
X538986Y323189D01*
X539027Y323170D01*
X539082Y323134D01*
X541215Y322139D01*
X541258Y322128D01*
X541319Y322102D01*
X543592Y321492D01*
X543636Y321489D01*
X543700Y321473D01*
X546045Y321268D01*
X546089Y321272D01*
X546155Y321268D01*
X548500Y321473D01*
G37*
G36*
X434200Y321473D02*
X434200Y321473D01*
X434243Y321485D01*
X434308Y321492D01*
X436581Y322102D01*
X436622Y322121D01*
X436685Y322139D01*
X438818Y323134D01*
X438855Y323160D01*
X438914Y323189D01*
X440841Y324539D01*
X440873Y324571D01*
X440883Y324578D01*
X440905Y324591D01*
X440911Y324599D01*
X440926Y324610D01*
X442590Y326274D01*
X442616Y326311D01*
X442661Y326359D01*
X444011Y328286D01*
X444030Y328327D01*
X444066Y328382D01*
X445061Y330515D01*
X445072Y330558D01*
X445098Y330619D01*
X445708Y332892D01*
X445711Y332936D01*
X445727Y333000D01*
X445932Y335345D01*
X445930Y335369D01*
X445934Y335400D01*
X445934Y350400D01*
X445930Y350424D01*
X445932Y350455D01*
X445727Y352800D01*
X445715Y352843D01*
X445708Y352908D01*
X445098Y355181D01*
X445079Y355222D01*
X445061Y355285D01*
X444066Y357418D01*
X444040Y357455D01*
X444011Y357514D01*
X442661Y359441D01*
X442629Y359473D01*
X442590Y359526D01*
X440926Y361190D01*
X440889Y361216D01*
X440841Y361261D01*
X438914Y362611D01*
X438873Y362630D01*
X438818Y362666D01*
X436685Y363661D01*
X436642Y363672D01*
X436581Y363698D01*
X434308Y364308D01*
X434264Y364311D01*
X434200Y364327D01*
X431855Y364532D01*
X431811Y364528D01*
X431745Y364532D01*
X429400Y364327D01*
X429357Y364315D01*
X429292Y364308D01*
X427019Y363698D01*
X426978Y363679D01*
X426915Y363661D01*
X424782Y362666D01*
X424745Y362640D01*
X424686Y362611D01*
X422759Y361261D01*
X422727Y361229D01*
X422674Y361190D01*
X421010Y359526D01*
X420984Y359489D01*
X420939Y359441D01*
X419589Y357514D01*
X419570Y357473D01*
X419534Y357418D01*
X418539Y355285D01*
X418528Y355242D01*
X418502Y355181D01*
X417892Y352908D01*
X417889Y352864D01*
X417873Y352800D01*
X417668Y350455D01*
X417670Y350431D01*
X417666Y350400D01*
X417666Y335400D01*
X417670Y335376D01*
X417668Y335345D01*
X417873Y333000D01*
X417885Y332957D01*
X417892Y332892D01*
X418502Y330619D01*
X418521Y330578D01*
X418539Y330515D01*
X419534Y328382D01*
X419560Y328345D01*
X419589Y328286D01*
X420939Y326359D01*
X420971Y326327D01*
X421010Y326274D01*
X422674Y324610D01*
X422706Y324588D01*
X422725Y324567D01*
X422734Y324563D01*
X422759Y324539D01*
X424686Y323189D01*
X424727Y323170D01*
X424782Y323134D01*
X426915Y322139D01*
X426958Y322128D01*
X427019Y322102D01*
X429292Y321492D01*
X429336Y321489D01*
X429400Y321473D01*
X431745Y321268D01*
X431789Y321272D01*
X431855Y321268D01*
X434200Y321473D01*
G37*
G36*
X319900Y321473D02*
X319900Y321473D01*
X319943Y321485D01*
X320008Y321492D01*
X322281Y322102D01*
X322322Y322121D01*
X322385Y322139D01*
X324518Y323134D01*
X324555Y323160D01*
X324614Y323189D01*
X326541Y324539D01*
X326573Y324571D01*
X326583Y324578D01*
X326605Y324591D01*
X326611Y324599D01*
X326626Y324610D01*
X328290Y326274D01*
X328316Y326311D01*
X328361Y326359D01*
X329711Y328286D01*
X329730Y328327D01*
X329766Y328382D01*
X330761Y330515D01*
X330772Y330558D01*
X330798Y330619D01*
X331408Y332892D01*
X331411Y332936D01*
X331427Y333000D01*
X331632Y335345D01*
X331630Y335369D01*
X331634Y335400D01*
X331634Y350400D01*
X331630Y350424D01*
X331632Y350455D01*
X331427Y352800D01*
X331415Y352843D01*
X331408Y352908D01*
X330798Y355181D01*
X330779Y355222D01*
X330761Y355285D01*
X329766Y357418D01*
X329740Y357455D01*
X329711Y357514D01*
X328361Y359441D01*
X328329Y359473D01*
X328290Y359526D01*
X326626Y361190D01*
X326589Y361216D01*
X326541Y361261D01*
X324614Y362611D01*
X324573Y362630D01*
X324518Y362666D01*
X322385Y363661D01*
X322342Y363672D01*
X322281Y363698D01*
X320008Y364308D01*
X319964Y364311D01*
X319900Y364327D01*
X317555Y364532D01*
X317511Y364528D01*
X317445Y364532D01*
X315100Y364327D01*
X315057Y364315D01*
X314992Y364308D01*
X312719Y363698D01*
X312678Y363679D01*
X312615Y363661D01*
X310482Y362666D01*
X310445Y362640D01*
X310386Y362611D01*
X308459Y361261D01*
X308427Y361229D01*
X308374Y361190D01*
X306710Y359526D01*
X306684Y359489D01*
X306639Y359441D01*
X305289Y357514D01*
X305270Y357473D01*
X305234Y357418D01*
X304239Y355285D01*
X304228Y355242D01*
X304202Y355181D01*
X303592Y352908D01*
X303589Y352864D01*
X303573Y352800D01*
X303368Y350455D01*
X303370Y350431D01*
X303366Y350400D01*
X303366Y335400D01*
X303370Y335376D01*
X303368Y335345D01*
X303573Y333000D01*
X303585Y332957D01*
X303592Y332892D01*
X304202Y330619D01*
X304221Y330578D01*
X304239Y330515D01*
X305234Y328382D01*
X305260Y328345D01*
X305289Y328286D01*
X306639Y326359D01*
X306671Y326327D01*
X306710Y326274D01*
X308374Y324610D01*
X308406Y324588D01*
X308425Y324567D01*
X308434Y324563D01*
X308459Y324539D01*
X310386Y323189D01*
X310427Y323170D01*
X310482Y323134D01*
X312615Y322139D01*
X312658Y322128D01*
X312719Y322102D01*
X314992Y321492D01*
X315036Y321489D01*
X315100Y321473D01*
X317445Y321268D01*
X317489Y321272D01*
X317555Y321268D01*
X319900Y321473D01*
G37*
G36*
X205600Y321473D02*
X205600Y321473D01*
X205643Y321485D01*
X205708Y321492D01*
X207981Y322102D01*
X208022Y322121D01*
X208085Y322139D01*
X210218Y323134D01*
X210255Y323160D01*
X210314Y323189D01*
X212241Y324539D01*
X212273Y324571D01*
X212283Y324578D01*
X212305Y324591D01*
X212311Y324599D01*
X212326Y324610D01*
X213990Y326274D01*
X214016Y326311D01*
X214061Y326359D01*
X215411Y328286D01*
X215430Y328327D01*
X215466Y328382D01*
X216461Y330515D01*
X216472Y330558D01*
X216498Y330619D01*
X217108Y332892D01*
X217111Y332936D01*
X217127Y333000D01*
X217332Y335345D01*
X217330Y335369D01*
X217334Y335400D01*
X217334Y350400D01*
X217330Y350424D01*
X217332Y350455D01*
X217127Y352800D01*
X217115Y352843D01*
X217108Y352908D01*
X216498Y355181D01*
X216479Y355222D01*
X216461Y355285D01*
X215466Y357418D01*
X215440Y357455D01*
X215411Y357514D01*
X214061Y359441D01*
X214029Y359473D01*
X213990Y359526D01*
X212326Y361190D01*
X212289Y361216D01*
X212241Y361261D01*
X210314Y362611D01*
X210273Y362630D01*
X210218Y362666D01*
X208085Y363661D01*
X208042Y363672D01*
X207981Y363698D01*
X205708Y364308D01*
X205664Y364311D01*
X205600Y364327D01*
X203255Y364532D01*
X203211Y364528D01*
X203145Y364532D01*
X200800Y364327D01*
X200757Y364315D01*
X200692Y364308D01*
X198419Y363698D01*
X198378Y363679D01*
X198315Y363661D01*
X196182Y362666D01*
X196145Y362640D01*
X196086Y362611D01*
X194159Y361261D01*
X194127Y361229D01*
X194074Y361190D01*
X192410Y359526D01*
X192384Y359489D01*
X192339Y359441D01*
X190989Y357514D01*
X190970Y357473D01*
X190934Y357418D01*
X189939Y355285D01*
X189928Y355242D01*
X189902Y355181D01*
X189292Y352908D01*
X189289Y352864D01*
X189273Y352800D01*
X189068Y350455D01*
X189070Y350431D01*
X189066Y350400D01*
X189066Y335400D01*
X189070Y335376D01*
X189068Y335345D01*
X189273Y333000D01*
X189285Y332957D01*
X189292Y332892D01*
X189902Y330619D01*
X189921Y330578D01*
X189939Y330515D01*
X190934Y328382D01*
X190960Y328345D01*
X190989Y328286D01*
X192339Y326359D01*
X192371Y326327D01*
X192410Y326274D01*
X194074Y324610D01*
X194106Y324588D01*
X194125Y324567D01*
X194134Y324563D01*
X194159Y324539D01*
X196086Y323189D01*
X196127Y323170D01*
X196182Y323134D01*
X198315Y322139D01*
X198358Y322128D01*
X198419Y322102D01*
X200692Y321492D01*
X200736Y321489D01*
X200800Y321473D01*
X203145Y321268D01*
X203189Y321272D01*
X203255Y321268D01*
X205600Y321473D01*
G37*
D10*
X203200Y522800D03*
X203200Y467800D03*
X203000Y495300D03*
X203200Y446600D03*
X203200Y391600D03*
X203000Y419100D03*
X203200Y370400D03*
X203200Y315400D03*
X203000Y342900D03*
X203200Y254000D03*
X317500Y522800D03*
X317500Y467800D03*
X317300Y495300D03*
X317500Y446600D03*
X317500Y391600D03*
X317300Y419100D03*
X317500Y370400D03*
X317500Y315400D03*
X317300Y342900D03*
X317500Y254000D03*
X431800Y522800D03*
X431800Y467800D03*
X431600Y495300D03*
X431800Y446600D03*
X431800Y391600D03*
X431600Y419100D03*
X431800Y370400D03*
X431800Y315400D03*
X431600Y342900D03*
X431800Y254000D03*
X546100Y522800D03*
X546100Y467800D03*
X545900Y495300D03*
X546100Y446600D03*
X546100Y391600D03*
X545900Y419100D03*
X546100Y370400D03*
X546100Y315400D03*
X545900Y342900D03*
X546100Y254000D03*
X660400Y522800D03*
X660400Y467800D03*
X660200Y495300D03*
X660400Y446600D03*
X660400Y391600D03*
X660200Y419100D03*
X660400Y370400D03*
X660400Y315400D03*
X660200Y342900D03*
X660400Y254000D03*
X774700Y522800D03*
X774700Y467800D03*
X774500Y495300D03*
X774700Y446600D03*
X774700Y391600D03*
X774500Y419100D03*
X774700Y370400D03*
X774700Y315400D03*
X774500Y342900D03*
X774700Y254000D03*
X889000Y522800D03*
X889000Y467800D03*
X888800Y495300D03*
X889000Y446600D03*
X889000Y391600D03*
X888800Y419100D03*
X889000Y370400D03*
X889000Y315400D03*
X888800Y342900D03*
X889000Y254000D03*
X1003300Y522800D03*
X1003300Y467800D03*
X1003100Y495300D03*
X1003300Y446600D03*
X1003300Y391600D03*
X1003100Y419100D03*
X1003300Y370400D03*
X1003300Y315400D03*
X1003100Y342900D03*
X1003300Y254000D03*
X603377Y609600D03*
X101600Y533400D03*
X101600Y419100D03*
X101600Y304800D03*
M02*
