G04 EAGLE Gerber RS-274X export*
G75*
%MOMM*%
%FSLAX34Y34*%
%LPD*%
%INCopper Layer 4*%
%IPPOS*%
%AMOC8*
5,1,8,0,0,1.08239X$1,22.5*%
G01*
%ADD10C,0.000241*%
%ADD11R,0.800000X2.150000*%
%ADD12C,0.799997*%

G36*
X1015393Y500683D02*
X1015393Y500683D01*
X1015487Y500694D01*
X1015503Y500702D01*
X1015521Y500705D01*
X1015602Y500754D01*
X1015687Y500797D01*
X1015699Y500810D01*
X1015714Y500820D01*
X1015774Y500893D01*
X1015837Y500963D01*
X1015844Y500980D01*
X1015855Y500994D01*
X1015886Y501084D01*
X1015921Y501171D01*
X1015922Y501191D01*
X1015927Y501206D01*
X1015926Y501256D01*
X1015932Y501359D01*
X1015727Y503564D01*
X1015715Y503608D01*
X1015706Y503679D01*
X1015100Y505808D01*
X1015079Y505850D01*
X1015057Y505918D01*
X1014070Y507900D01*
X1014043Y507937D01*
X1014023Y507973D01*
X1014020Y507981D01*
X1014017Y507984D01*
X1014009Y507999D01*
X1012674Y509767D01*
X1012640Y509798D01*
X1012595Y509853D01*
X1010959Y511345D01*
X1010920Y511370D01*
X1010866Y511415D01*
X1008983Y512581D01*
X1008940Y512598D01*
X1008878Y512633D01*
X1006813Y513433D01*
X1006768Y513442D01*
X1006701Y513465D01*
X1004524Y513872D01*
X1004477Y513873D01*
X1004407Y513883D01*
X1002193Y513883D01*
X1002147Y513875D01*
X1002076Y513872D01*
X999900Y513465D01*
X999856Y513449D01*
X999787Y513433D01*
X997722Y512633D01*
X997682Y512609D01*
X997617Y512581D01*
X995735Y511415D01*
X995700Y511384D01*
X995641Y511345D01*
X994005Y509853D01*
X993976Y509816D01*
X993926Y509767D01*
X992591Y507999D01*
X992573Y507963D01*
X992561Y507949D01*
X992559Y507941D01*
X992530Y507900D01*
X991543Y505918D01*
X991530Y505873D01*
X991500Y505808D01*
X990894Y503679D01*
X990890Y503632D01*
X990873Y503564D01*
X990668Y501359D01*
X990677Y501264D01*
X990679Y501169D01*
X990686Y501153D01*
X990688Y501135D01*
X990728Y501049D01*
X990764Y500962D01*
X990776Y500948D01*
X990783Y500932D01*
X990851Y500866D01*
X990915Y500796D01*
X990931Y500788D01*
X990944Y500775D01*
X991030Y500737D01*
X991115Y500693D01*
X991134Y500691D01*
X991149Y500684D01*
X991199Y500681D01*
X991300Y500666D01*
X1015300Y500666D01*
X1015393Y500683D01*
G37*
G36*
X901093Y500683D02*
X901093Y500683D01*
X901187Y500694D01*
X901203Y500702D01*
X901221Y500705D01*
X901302Y500754D01*
X901387Y500797D01*
X901399Y500810D01*
X901414Y500820D01*
X901474Y500893D01*
X901537Y500963D01*
X901544Y500980D01*
X901555Y500994D01*
X901586Y501084D01*
X901621Y501171D01*
X901622Y501191D01*
X901627Y501206D01*
X901626Y501256D01*
X901632Y501359D01*
X901427Y503564D01*
X901415Y503608D01*
X901406Y503679D01*
X900800Y505808D01*
X900779Y505850D01*
X900757Y505918D01*
X899770Y507900D01*
X899743Y507937D01*
X899723Y507973D01*
X899720Y507981D01*
X899717Y507984D01*
X899709Y507999D01*
X898374Y509767D01*
X898340Y509798D01*
X898295Y509853D01*
X896659Y511345D01*
X896620Y511370D01*
X896566Y511415D01*
X894683Y512581D01*
X894640Y512598D01*
X894578Y512633D01*
X892513Y513433D01*
X892468Y513442D01*
X892401Y513465D01*
X890224Y513872D01*
X890177Y513873D01*
X890107Y513883D01*
X887893Y513883D01*
X887847Y513875D01*
X887776Y513872D01*
X885600Y513465D01*
X885556Y513449D01*
X885487Y513433D01*
X883422Y512633D01*
X883382Y512609D01*
X883317Y512581D01*
X881435Y511415D01*
X881400Y511384D01*
X881341Y511345D01*
X879705Y509853D01*
X879676Y509816D01*
X879626Y509767D01*
X878291Y507999D01*
X878273Y507963D01*
X878261Y507949D01*
X878259Y507941D01*
X878230Y507900D01*
X877243Y505918D01*
X877230Y505873D01*
X877200Y505808D01*
X876594Y503679D01*
X876590Y503632D01*
X876573Y503564D01*
X876368Y501359D01*
X876377Y501264D01*
X876379Y501169D01*
X876386Y501153D01*
X876388Y501135D01*
X876428Y501049D01*
X876464Y500962D01*
X876476Y500948D01*
X876483Y500932D01*
X876551Y500866D01*
X876615Y500796D01*
X876631Y500788D01*
X876644Y500775D01*
X876730Y500737D01*
X876815Y500693D01*
X876834Y500691D01*
X876849Y500684D01*
X876899Y500681D01*
X877000Y500666D01*
X901000Y500666D01*
X901093Y500683D01*
G37*
G36*
X786793Y500683D02*
X786793Y500683D01*
X786887Y500694D01*
X786903Y500702D01*
X786921Y500705D01*
X787002Y500754D01*
X787087Y500797D01*
X787099Y500810D01*
X787114Y500820D01*
X787174Y500893D01*
X787237Y500963D01*
X787244Y500980D01*
X787255Y500994D01*
X787286Y501084D01*
X787321Y501171D01*
X787322Y501191D01*
X787327Y501206D01*
X787326Y501256D01*
X787332Y501359D01*
X787127Y503564D01*
X787115Y503608D01*
X787106Y503679D01*
X786500Y505808D01*
X786479Y505850D01*
X786457Y505918D01*
X785470Y507900D01*
X785443Y507937D01*
X785423Y507973D01*
X785420Y507981D01*
X785417Y507984D01*
X785409Y507999D01*
X784074Y509767D01*
X784040Y509798D01*
X783995Y509853D01*
X782359Y511345D01*
X782320Y511370D01*
X782266Y511415D01*
X780383Y512581D01*
X780340Y512598D01*
X780278Y512633D01*
X778213Y513433D01*
X778168Y513442D01*
X778101Y513465D01*
X775924Y513872D01*
X775877Y513873D01*
X775807Y513883D01*
X773593Y513883D01*
X773547Y513875D01*
X773476Y513872D01*
X771300Y513465D01*
X771256Y513449D01*
X771187Y513433D01*
X769122Y512633D01*
X769082Y512609D01*
X769017Y512581D01*
X767135Y511415D01*
X767100Y511384D01*
X767041Y511345D01*
X765405Y509853D01*
X765376Y509816D01*
X765326Y509767D01*
X763991Y507999D01*
X763973Y507963D01*
X763961Y507949D01*
X763959Y507941D01*
X763930Y507900D01*
X762943Y505918D01*
X762930Y505873D01*
X762900Y505808D01*
X762294Y503679D01*
X762290Y503632D01*
X762273Y503564D01*
X762068Y501359D01*
X762077Y501264D01*
X762079Y501169D01*
X762086Y501153D01*
X762088Y501135D01*
X762128Y501049D01*
X762164Y500962D01*
X762176Y500948D01*
X762183Y500932D01*
X762251Y500866D01*
X762315Y500796D01*
X762331Y500788D01*
X762344Y500775D01*
X762430Y500737D01*
X762515Y500693D01*
X762534Y500691D01*
X762549Y500684D01*
X762599Y500681D01*
X762700Y500666D01*
X786700Y500666D01*
X786793Y500683D01*
G37*
G36*
X672493Y500683D02*
X672493Y500683D01*
X672587Y500694D01*
X672603Y500702D01*
X672621Y500705D01*
X672702Y500754D01*
X672787Y500797D01*
X672799Y500810D01*
X672814Y500820D01*
X672874Y500893D01*
X672937Y500963D01*
X672944Y500980D01*
X672955Y500994D01*
X672986Y501084D01*
X673021Y501171D01*
X673022Y501191D01*
X673027Y501206D01*
X673026Y501256D01*
X673032Y501359D01*
X672827Y503564D01*
X672815Y503608D01*
X672806Y503679D01*
X672200Y505808D01*
X672179Y505850D01*
X672157Y505918D01*
X671170Y507900D01*
X671143Y507937D01*
X671123Y507973D01*
X671120Y507981D01*
X671117Y507984D01*
X671109Y507999D01*
X669774Y509767D01*
X669740Y509798D01*
X669695Y509853D01*
X668059Y511345D01*
X668019Y511370D01*
X667965Y511415D01*
X666083Y512581D01*
X666040Y512598D01*
X665978Y512633D01*
X663913Y513433D01*
X663867Y513442D01*
X663800Y513465D01*
X661624Y513872D01*
X661577Y513873D01*
X661507Y513883D01*
X659293Y513883D01*
X659247Y513875D01*
X659176Y513872D01*
X656999Y513465D01*
X656956Y513449D01*
X656887Y513433D01*
X654822Y512633D01*
X654782Y512609D01*
X654717Y512581D01*
X652834Y511415D01*
X652800Y511384D01*
X652741Y511345D01*
X651105Y509853D01*
X651076Y509816D01*
X651026Y509767D01*
X649691Y507999D01*
X649673Y507963D01*
X649661Y507949D01*
X649659Y507941D01*
X649630Y507900D01*
X648643Y505918D01*
X648630Y505873D01*
X648600Y505808D01*
X647994Y503679D01*
X647990Y503632D01*
X647973Y503564D01*
X647768Y501359D01*
X647777Y501264D01*
X647779Y501169D01*
X647786Y501153D01*
X647788Y501135D01*
X647828Y501049D01*
X647864Y500962D01*
X647876Y500948D01*
X647883Y500932D01*
X647951Y500866D01*
X648015Y500796D01*
X648031Y500788D01*
X648044Y500775D01*
X648130Y500737D01*
X648215Y500693D01*
X648234Y500691D01*
X648249Y500684D01*
X648299Y500681D01*
X648400Y500666D01*
X672400Y500666D01*
X672493Y500683D01*
G37*
G36*
X558193Y500683D02*
X558193Y500683D01*
X558287Y500694D01*
X558303Y500702D01*
X558321Y500705D01*
X558402Y500754D01*
X558487Y500797D01*
X558499Y500810D01*
X558514Y500820D01*
X558574Y500893D01*
X558637Y500963D01*
X558644Y500980D01*
X558655Y500994D01*
X558686Y501084D01*
X558721Y501171D01*
X558722Y501191D01*
X558727Y501206D01*
X558726Y501256D01*
X558732Y501359D01*
X558527Y503564D01*
X558515Y503608D01*
X558506Y503679D01*
X557900Y505808D01*
X557879Y505850D01*
X557857Y505918D01*
X556870Y507900D01*
X556843Y507937D01*
X556823Y507973D01*
X556820Y507981D01*
X556817Y507984D01*
X556809Y507999D01*
X555474Y509767D01*
X555440Y509798D01*
X555395Y509853D01*
X553759Y511345D01*
X553720Y511370D01*
X553666Y511415D01*
X551783Y512581D01*
X551740Y512598D01*
X551678Y512633D01*
X549613Y513433D01*
X549568Y513442D01*
X549501Y513465D01*
X547324Y513872D01*
X547277Y513873D01*
X547207Y513883D01*
X544993Y513883D01*
X544947Y513875D01*
X544876Y513872D01*
X542700Y513465D01*
X542656Y513449D01*
X542587Y513433D01*
X540522Y512633D01*
X540482Y512609D01*
X540417Y512581D01*
X538535Y511415D01*
X538500Y511384D01*
X538441Y511345D01*
X536805Y509853D01*
X536776Y509816D01*
X536726Y509767D01*
X535391Y507999D01*
X535373Y507963D01*
X535361Y507949D01*
X535359Y507941D01*
X535330Y507900D01*
X534343Y505918D01*
X534330Y505873D01*
X534300Y505808D01*
X533694Y503679D01*
X533690Y503632D01*
X533673Y503564D01*
X533468Y501359D01*
X533477Y501264D01*
X533479Y501169D01*
X533486Y501153D01*
X533488Y501135D01*
X533528Y501049D01*
X533564Y500962D01*
X533576Y500948D01*
X533583Y500932D01*
X533651Y500866D01*
X533715Y500796D01*
X533731Y500788D01*
X533744Y500775D01*
X533830Y500737D01*
X533915Y500693D01*
X533934Y500691D01*
X533949Y500684D01*
X533999Y500681D01*
X534100Y500666D01*
X558100Y500666D01*
X558193Y500683D01*
G37*
G36*
X443893Y500683D02*
X443893Y500683D01*
X443987Y500694D01*
X444003Y500702D01*
X444021Y500705D01*
X444102Y500754D01*
X444187Y500797D01*
X444199Y500810D01*
X444214Y500820D01*
X444274Y500893D01*
X444337Y500963D01*
X444344Y500980D01*
X444355Y500994D01*
X444386Y501084D01*
X444421Y501171D01*
X444422Y501191D01*
X444427Y501206D01*
X444426Y501256D01*
X444432Y501359D01*
X444227Y503564D01*
X444215Y503608D01*
X444206Y503679D01*
X443600Y505808D01*
X443579Y505850D01*
X443557Y505918D01*
X442570Y507900D01*
X442543Y507937D01*
X442523Y507973D01*
X442520Y507981D01*
X442517Y507984D01*
X442509Y507999D01*
X441174Y509767D01*
X441140Y509798D01*
X441095Y509853D01*
X439459Y511345D01*
X439420Y511370D01*
X439366Y511415D01*
X437483Y512581D01*
X437440Y512598D01*
X437378Y512633D01*
X435313Y513433D01*
X435268Y513442D01*
X435201Y513465D01*
X433024Y513872D01*
X432977Y513873D01*
X432907Y513883D01*
X430693Y513883D01*
X430647Y513875D01*
X430576Y513872D01*
X428400Y513465D01*
X428356Y513449D01*
X428287Y513433D01*
X426222Y512633D01*
X426182Y512609D01*
X426117Y512581D01*
X424235Y511415D01*
X424200Y511384D01*
X424141Y511345D01*
X422505Y509853D01*
X422476Y509816D01*
X422426Y509767D01*
X421091Y507999D01*
X421073Y507963D01*
X421061Y507949D01*
X421059Y507941D01*
X421030Y507900D01*
X420043Y505918D01*
X420030Y505873D01*
X420000Y505808D01*
X419394Y503679D01*
X419390Y503632D01*
X419373Y503564D01*
X419168Y501359D01*
X419177Y501264D01*
X419179Y501169D01*
X419186Y501153D01*
X419188Y501135D01*
X419228Y501049D01*
X419264Y500962D01*
X419276Y500948D01*
X419283Y500932D01*
X419351Y500866D01*
X419415Y500796D01*
X419431Y500788D01*
X419444Y500775D01*
X419530Y500737D01*
X419615Y500693D01*
X419634Y500691D01*
X419649Y500684D01*
X419699Y500681D01*
X419800Y500666D01*
X443800Y500666D01*
X443893Y500683D01*
G37*
G36*
X329593Y500683D02*
X329593Y500683D01*
X329687Y500694D01*
X329703Y500702D01*
X329721Y500705D01*
X329802Y500754D01*
X329887Y500797D01*
X329899Y500810D01*
X329914Y500820D01*
X329974Y500893D01*
X330037Y500963D01*
X330044Y500980D01*
X330055Y500994D01*
X330086Y501084D01*
X330121Y501171D01*
X330122Y501191D01*
X330127Y501206D01*
X330126Y501256D01*
X330132Y501359D01*
X329927Y503564D01*
X329915Y503608D01*
X329906Y503679D01*
X329300Y505808D01*
X329279Y505850D01*
X329257Y505918D01*
X328270Y507900D01*
X328243Y507937D01*
X328223Y507973D01*
X328220Y507981D01*
X328217Y507984D01*
X328209Y507999D01*
X326874Y509767D01*
X326840Y509798D01*
X326795Y509853D01*
X325159Y511345D01*
X325120Y511370D01*
X325066Y511415D01*
X323183Y512581D01*
X323140Y512598D01*
X323078Y512633D01*
X321013Y513433D01*
X320968Y513442D01*
X320901Y513465D01*
X318724Y513872D01*
X318677Y513873D01*
X318607Y513883D01*
X316393Y513883D01*
X316347Y513875D01*
X316276Y513872D01*
X314100Y513465D01*
X314056Y513449D01*
X313987Y513433D01*
X311922Y512633D01*
X311882Y512609D01*
X311817Y512581D01*
X309935Y511415D01*
X309900Y511384D01*
X309841Y511345D01*
X308205Y509853D01*
X308176Y509816D01*
X308126Y509767D01*
X306791Y507999D01*
X306773Y507963D01*
X306761Y507949D01*
X306759Y507941D01*
X306730Y507900D01*
X305743Y505918D01*
X305730Y505873D01*
X305700Y505808D01*
X305094Y503679D01*
X305090Y503632D01*
X305073Y503564D01*
X304868Y501359D01*
X304877Y501264D01*
X304879Y501169D01*
X304886Y501153D01*
X304888Y501135D01*
X304928Y501049D01*
X304964Y500962D01*
X304976Y500948D01*
X304983Y500932D01*
X305051Y500866D01*
X305115Y500796D01*
X305131Y500788D01*
X305144Y500775D01*
X305230Y500737D01*
X305315Y500693D01*
X305334Y500691D01*
X305349Y500684D01*
X305399Y500681D01*
X305500Y500666D01*
X329500Y500666D01*
X329593Y500683D01*
G37*
G36*
X215293Y500683D02*
X215293Y500683D01*
X215387Y500694D01*
X215403Y500702D01*
X215421Y500705D01*
X215502Y500754D01*
X215587Y500797D01*
X215599Y500810D01*
X215614Y500820D01*
X215674Y500893D01*
X215737Y500963D01*
X215744Y500980D01*
X215755Y500994D01*
X215786Y501084D01*
X215821Y501171D01*
X215822Y501191D01*
X215827Y501206D01*
X215826Y501256D01*
X215832Y501359D01*
X215627Y503564D01*
X215615Y503608D01*
X215606Y503679D01*
X215000Y505808D01*
X214979Y505850D01*
X214957Y505918D01*
X213970Y507900D01*
X213943Y507937D01*
X213923Y507973D01*
X213920Y507981D01*
X213917Y507984D01*
X213909Y507999D01*
X212574Y509767D01*
X212540Y509798D01*
X212495Y509853D01*
X210859Y511345D01*
X210820Y511370D01*
X210766Y511415D01*
X208883Y512581D01*
X208840Y512598D01*
X208778Y512633D01*
X206713Y513433D01*
X206668Y513442D01*
X206601Y513465D01*
X204424Y513872D01*
X204377Y513873D01*
X204307Y513883D01*
X202093Y513883D01*
X202047Y513875D01*
X201976Y513872D01*
X199800Y513465D01*
X199756Y513449D01*
X199687Y513433D01*
X197622Y512633D01*
X197582Y512609D01*
X197517Y512581D01*
X195635Y511415D01*
X195600Y511384D01*
X195541Y511345D01*
X193905Y509853D01*
X193876Y509816D01*
X193826Y509767D01*
X192491Y507999D01*
X192473Y507963D01*
X192461Y507949D01*
X192459Y507941D01*
X192430Y507900D01*
X191443Y505918D01*
X191430Y505873D01*
X191400Y505808D01*
X190794Y503679D01*
X190790Y503632D01*
X190773Y503564D01*
X190568Y501359D01*
X190577Y501264D01*
X190579Y501169D01*
X190586Y501153D01*
X190588Y501135D01*
X190628Y501049D01*
X190664Y500962D01*
X190676Y500948D01*
X190683Y500932D01*
X190751Y500866D01*
X190815Y500796D01*
X190831Y500788D01*
X190844Y500775D01*
X190930Y500737D01*
X191015Y500693D01*
X191034Y500691D01*
X191049Y500684D01*
X191099Y500681D01*
X191200Y500666D01*
X215200Y500666D01*
X215293Y500683D01*
G37*
G36*
X901093Y348283D02*
X901093Y348283D01*
X901187Y348294D01*
X901203Y348302D01*
X901221Y348305D01*
X901302Y348354D01*
X901387Y348397D01*
X901399Y348410D01*
X901414Y348420D01*
X901474Y348493D01*
X901537Y348563D01*
X901544Y348580D01*
X901555Y348594D01*
X901586Y348684D01*
X901621Y348771D01*
X901622Y348791D01*
X901627Y348806D01*
X901626Y348856D01*
X901632Y348959D01*
X901427Y351164D01*
X901415Y351208D01*
X901406Y351279D01*
X900800Y353408D01*
X900779Y353450D01*
X900757Y353518D01*
X899770Y355500D01*
X899743Y355537D01*
X899723Y355573D01*
X899720Y355581D01*
X899717Y355584D01*
X899709Y355599D01*
X898374Y357367D01*
X898340Y357398D01*
X898295Y357453D01*
X896659Y358945D01*
X896620Y358970D01*
X896566Y359015D01*
X894683Y360181D01*
X894640Y360198D01*
X894578Y360233D01*
X892513Y361033D01*
X892468Y361042D01*
X892401Y361065D01*
X890224Y361472D01*
X890177Y361473D01*
X890107Y361483D01*
X887893Y361483D01*
X887847Y361475D01*
X887776Y361472D01*
X885600Y361065D01*
X885556Y361049D01*
X885487Y361033D01*
X883422Y360233D01*
X883382Y360209D01*
X883317Y360181D01*
X881435Y359015D01*
X881400Y358984D01*
X881341Y358945D01*
X879705Y357453D01*
X879676Y357416D01*
X879626Y357367D01*
X878291Y355599D01*
X878273Y355563D01*
X878261Y355549D01*
X878259Y355541D01*
X878230Y355500D01*
X877243Y353518D01*
X877230Y353473D01*
X877200Y353408D01*
X876594Y351279D01*
X876590Y351232D01*
X876573Y351164D01*
X876368Y348959D01*
X876377Y348864D01*
X876379Y348769D01*
X876386Y348753D01*
X876388Y348735D01*
X876428Y348649D01*
X876464Y348562D01*
X876476Y348548D01*
X876483Y348532D01*
X876551Y348466D01*
X876615Y348396D01*
X876631Y348388D01*
X876644Y348375D01*
X876730Y348337D01*
X876815Y348293D01*
X876834Y348291D01*
X876849Y348284D01*
X876899Y348281D01*
X877000Y348266D01*
X901000Y348266D01*
X901093Y348283D01*
G37*
G36*
X215293Y348283D02*
X215293Y348283D01*
X215387Y348294D01*
X215403Y348302D01*
X215421Y348305D01*
X215502Y348354D01*
X215587Y348397D01*
X215599Y348410D01*
X215614Y348420D01*
X215674Y348493D01*
X215737Y348563D01*
X215744Y348580D01*
X215755Y348594D01*
X215786Y348684D01*
X215821Y348771D01*
X215822Y348791D01*
X215827Y348806D01*
X215826Y348856D01*
X215832Y348959D01*
X215627Y351164D01*
X215615Y351208D01*
X215606Y351279D01*
X215000Y353408D01*
X214979Y353450D01*
X214957Y353518D01*
X213970Y355500D01*
X213943Y355537D01*
X213923Y355573D01*
X213920Y355581D01*
X213917Y355584D01*
X213909Y355599D01*
X212574Y357367D01*
X212540Y357398D01*
X212495Y357453D01*
X210859Y358945D01*
X210820Y358970D01*
X210766Y359015D01*
X208883Y360181D01*
X208840Y360198D01*
X208778Y360233D01*
X206713Y361033D01*
X206668Y361042D01*
X206601Y361065D01*
X204424Y361472D01*
X204377Y361473D01*
X204307Y361483D01*
X202093Y361483D01*
X202047Y361475D01*
X201976Y361472D01*
X199800Y361065D01*
X199756Y361049D01*
X199687Y361033D01*
X197622Y360233D01*
X197582Y360209D01*
X197517Y360181D01*
X195635Y359015D01*
X195600Y358984D01*
X195541Y358945D01*
X193905Y357453D01*
X193876Y357416D01*
X193826Y357367D01*
X192491Y355599D01*
X192473Y355563D01*
X192461Y355549D01*
X192459Y355541D01*
X192430Y355500D01*
X191443Y353518D01*
X191430Y353473D01*
X191400Y353408D01*
X190794Y351279D01*
X190790Y351232D01*
X190773Y351164D01*
X190568Y348959D01*
X190577Y348864D01*
X190579Y348769D01*
X190586Y348753D01*
X190588Y348735D01*
X190628Y348649D01*
X190664Y348562D01*
X190676Y348548D01*
X190683Y348532D01*
X190751Y348466D01*
X190815Y348396D01*
X190831Y348388D01*
X190844Y348375D01*
X190930Y348337D01*
X191015Y348293D01*
X191034Y348291D01*
X191049Y348284D01*
X191099Y348281D01*
X191200Y348266D01*
X215200Y348266D01*
X215293Y348283D01*
G37*
G36*
X329593Y348283D02*
X329593Y348283D01*
X329687Y348294D01*
X329703Y348302D01*
X329721Y348305D01*
X329802Y348354D01*
X329887Y348397D01*
X329899Y348410D01*
X329914Y348420D01*
X329974Y348493D01*
X330037Y348563D01*
X330044Y348580D01*
X330055Y348594D01*
X330086Y348684D01*
X330121Y348771D01*
X330122Y348791D01*
X330127Y348806D01*
X330126Y348856D01*
X330132Y348959D01*
X329927Y351164D01*
X329915Y351208D01*
X329906Y351279D01*
X329300Y353408D01*
X329279Y353450D01*
X329257Y353518D01*
X328270Y355500D01*
X328243Y355537D01*
X328223Y355573D01*
X328220Y355581D01*
X328217Y355584D01*
X328209Y355599D01*
X326874Y357367D01*
X326840Y357398D01*
X326795Y357453D01*
X325159Y358945D01*
X325120Y358970D01*
X325066Y359015D01*
X323183Y360181D01*
X323140Y360198D01*
X323078Y360233D01*
X321013Y361033D01*
X320968Y361042D01*
X320901Y361065D01*
X318724Y361472D01*
X318677Y361473D01*
X318607Y361483D01*
X316393Y361483D01*
X316347Y361475D01*
X316276Y361472D01*
X314100Y361065D01*
X314056Y361049D01*
X313987Y361033D01*
X311922Y360233D01*
X311882Y360209D01*
X311817Y360181D01*
X309935Y359015D01*
X309900Y358984D01*
X309841Y358945D01*
X308205Y357453D01*
X308176Y357416D01*
X308126Y357367D01*
X306791Y355599D01*
X306773Y355563D01*
X306761Y355549D01*
X306759Y355541D01*
X306730Y355500D01*
X305743Y353518D01*
X305730Y353473D01*
X305700Y353408D01*
X305094Y351279D01*
X305090Y351232D01*
X305073Y351164D01*
X304868Y348959D01*
X304877Y348864D01*
X304879Y348769D01*
X304886Y348753D01*
X304888Y348735D01*
X304928Y348649D01*
X304964Y348562D01*
X304976Y348548D01*
X304983Y348532D01*
X305051Y348466D01*
X305115Y348396D01*
X305131Y348388D01*
X305144Y348375D01*
X305230Y348337D01*
X305315Y348293D01*
X305334Y348291D01*
X305349Y348284D01*
X305399Y348281D01*
X305500Y348266D01*
X329500Y348266D01*
X329593Y348283D01*
G37*
G36*
X443893Y348283D02*
X443893Y348283D01*
X443987Y348294D01*
X444003Y348302D01*
X444021Y348305D01*
X444102Y348354D01*
X444187Y348397D01*
X444199Y348410D01*
X444214Y348420D01*
X444274Y348493D01*
X444337Y348563D01*
X444344Y348580D01*
X444355Y348594D01*
X444386Y348684D01*
X444421Y348771D01*
X444422Y348791D01*
X444427Y348806D01*
X444426Y348856D01*
X444432Y348959D01*
X444227Y351164D01*
X444215Y351208D01*
X444206Y351279D01*
X443600Y353408D01*
X443579Y353450D01*
X443557Y353518D01*
X442570Y355500D01*
X442543Y355537D01*
X442523Y355573D01*
X442520Y355581D01*
X442517Y355584D01*
X442509Y355599D01*
X441174Y357367D01*
X441140Y357398D01*
X441095Y357453D01*
X439459Y358945D01*
X439420Y358970D01*
X439366Y359015D01*
X437483Y360181D01*
X437440Y360198D01*
X437378Y360233D01*
X435313Y361033D01*
X435268Y361042D01*
X435201Y361065D01*
X433024Y361472D01*
X432977Y361473D01*
X432907Y361483D01*
X430693Y361483D01*
X430647Y361475D01*
X430576Y361472D01*
X428400Y361065D01*
X428356Y361049D01*
X428287Y361033D01*
X426222Y360233D01*
X426182Y360209D01*
X426117Y360181D01*
X424235Y359015D01*
X424200Y358984D01*
X424141Y358945D01*
X422505Y357453D01*
X422476Y357416D01*
X422426Y357367D01*
X421091Y355599D01*
X421073Y355563D01*
X421061Y355549D01*
X421059Y355541D01*
X421030Y355500D01*
X420043Y353518D01*
X420030Y353473D01*
X420000Y353408D01*
X419394Y351279D01*
X419390Y351232D01*
X419373Y351164D01*
X419168Y348959D01*
X419177Y348864D01*
X419179Y348769D01*
X419186Y348753D01*
X419188Y348735D01*
X419228Y348649D01*
X419264Y348562D01*
X419276Y348548D01*
X419283Y348532D01*
X419351Y348466D01*
X419415Y348396D01*
X419431Y348388D01*
X419444Y348375D01*
X419530Y348337D01*
X419615Y348293D01*
X419634Y348291D01*
X419649Y348284D01*
X419699Y348281D01*
X419800Y348266D01*
X443800Y348266D01*
X443893Y348283D01*
G37*
G36*
X558193Y348283D02*
X558193Y348283D01*
X558287Y348294D01*
X558303Y348302D01*
X558321Y348305D01*
X558402Y348354D01*
X558487Y348397D01*
X558499Y348410D01*
X558514Y348420D01*
X558574Y348493D01*
X558637Y348563D01*
X558644Y348580D01*
X558655Y348594D01*
X558686Y348684D01*
X558721Y348771D01*
X558722Y348791D01*
X558727Y348806D01*
X558726Y348856D01*
X558732Y348959D01*
X558527Y351164D01*
X558515Y351208D01*
X558506Y351279D01*
X557900Y353408D01*
X557879Y353450D01*
X557857Y353518D01*
X556870Y355500D01*
X556843Y355537D01*
X556823Y355573D01*
X556820Y355581D01*
X556817Y355584D01*
X556809Y355599D01*
X555474Y357367D01*
X555440Y357398D01*
X555395Y357453D01*
X553759Y358945D01*
X553720Y358970D01*
X553666Y359015D01*
X551783Y360181D01*
X551740Y360198D01*
X551678Y360233D01*
X549613Y361033D01*
X549568Y361042D01*
X549501Y361065D01*
X547324Y361472D01*
X547277Y361473D01*
X547207Y361483D01*
X544993Y361483D01*
X544947Y361475D01*
X544876Y361472D01*
X542700Y361065D01*
X542656Y361049D01*
X542587Y361033D01*
X540522Y360233D01*
X540482Y360209D01*
X540417Y360181D01*
X538535Y359015D01*
X538500Y358984D01*
X538441Y358945D01*
X536805Y357453D01*
X536776Y357416D01*
X536726Y357367D01*
X535391Y355599D01*
X535373Y355563D01*
X535361Y355549D01*
X535359Y355541D01*
X535330Y355500D01*
X534343Y353518D01*
X534330Y353473D01*
X534300Y353408D01*
X533694Y351279D01*
X533690Y351232D01*
X533673Y351164D01*
X533468Y348959D01*
X533477Y348864D01*
X533479Y348769D01*
X533486Y348753D01*
X533488Y348735D01*
X533528Y348649D01*
X533564Y348562D01*
X533576Y348548D01*
X533583Y348532D01*
X533651Y348466D01*
X533715Y348396D01*
X533731Y348388D01*
X533744Y348375D01*
X533830Y348337D01*
X533915Y348293D01*
X533934Y348291D01*
X533949Y348284D01*
X533999Y348281D01*
X534100Y348266D01*
X558100Y348266D01*
X558193Y348283D01*
G37*
G36*
X672493Y348283D02*
X672493Y348283D01*
X672587Y348294D01*
X672603Y348302D01*
X672621Y348305D01*
X672702Y348354D01*
X672787Y348397D01*
X672799Y348410D01*
X672814Y348420D01*
X672874Y348493D01*
X672937Y348563D01*
X672944Y348580D01*
X672955Y348594D01*
X672986Y348684D01*
X673021Y348771D01*
X673022Y348791D01*
X673027Y348806D01*
X673026Y348856D01*
X673032Y348959D01*
X672827Y351164D01*
X672815Y351208D01*
X672806Y351279D01*
X672200Y353408D01*
X672179Y353450D01*
X672157Y353518D01*
X671170Y355500D01*
X671143Y355537D01*
X671123Y355573D01*
X671120Y355581D01*
X671117Y355584D01*
X671109Y355599D01*
X669774Y357367D01*
X669740Y357398D01*
X669695Y357453D01*
X668059Y358945D01*
X668020Y358970D01*
X667966Y359015D01*
X666083Y360181D01*
X666040Y360198D01*
X665978Y360233D01*
X663913Y361033D01*
X663868Y361042D01*
X663801Y361065D01*
X661624Y361472D01*
X661577Y361473D01*
X661507Y361483D01*
X659293Y361483D01*
X659247Y361475D01*
X659176Y361472D01*
X657000Y361065D01*
X656956Y361049D01*
X656887Y361033D01*
X654822Y360233D01*
X654782Y360209D01*
X654717Y360181D01*
X652835Y359015D01*
X652800Y358984D01*
X652741Y358945D01*
X651105Y357453D01*
X651076Y357416D01*
X651026Y357367D01*
X649691Y355599D01*
X649673Y355563D01*
X649661Y355549D01*
X649659Y355541D01*
X649630Y355500D01*
X648643Y353518D01*
X648630Y353473D01*
X648600Y353408D01*
X647994Y351279D01*
X647990Y351232D01*
X647973Y351164D01*
X647768Y348959D01*
X647777Y348864D01*
X647779Y348769D01*
X647786Y348753D01*
X647788Y348735D01*
X647828Y348649D01*
X647864Y348562D01*
X647876Y348548D01*
X647883Y348532D01*
X647951Y348466D01*
X648015Y348396D01*
X648031Y348388D01*
X648044Y348375D01*
X648130Y348337D01*
X648215Y348293D01*
X648234Y348291D01*
X648249Y348284D01*
X648299Y348281D01*
X648400Y348266D01*
X672400Y348266D01*
X672493Y348283D01*
G37*
G36*
X786793Y348283D02*
X786793Y348283D01*
X786887Y348294D01*
X786903Y348302D01*
X786921Y348305D01*
X787002Y348354D01*
X787087Y348397D01*
X787099Y348410D01*
X787114Y348420D01*
X787174Y348493D01*
X787237Y348563D01*
X787244Y348580D01*
X787255Y348594D01*
X787286Y348684D01*
X787321Y348771D01*
X787322Y348791D01*
X787327Y348806D01*
X787326Y348856D01*
X787332Y348959D01*
X787127Y351164D01*
X787115Y351208D01*
X787106Y351279D01*
X786500Y353408D01*
X786479Y353450D01*
X786457Y353518D01*
X785470Y355500D01*
X785443Y355537D01*
X785423Y355573D01*
X785420Y355581D01*
X785417Y355584D01*
X785409Y355599D01*
X784074Y357367D01*
X784040Y357398D01*
X783995Y357453D01*
X782359Y358945D01*
X782320Y358970D01*
X782266Y359015D01*
X780383Y360181D01*
X780340Y360198D01*
X780278Y360233D01*
X778213Y361033D01*
X778168Y361042D01*
X778101Y361065D01*
X775924Y361472D01*
X775877Y361473D01*
X775807Y361483D01*
X773593Y361483D01*
X773547Y361475D01*
X773476Y361472D01*
X771300Y361065D01*
X771256Y361049D01*
X771187Y361033D01*
X769122Y360233D01*
X769082Y360209D01*
X769017Y360181D01*
X767135Y359015D01*
X767100Y358984D01*
X767041Y358945D01*
X765405Y357453D01*
X765376Y357416D01*
X765326Y357367D01*
X763991Y355599D01*
X763973Y355563D01*
X763961Y355549D01*
X763959Y355541D01*
X763930Y355500D01*
X762943Y353518D01*
X762930Y353473D01*
X762900Y353408D01*
X762294Y351279D01*
X762290Y351232D01*
X762273Y351164D01*
X762068Y348959D01*
X762077Y348864D01*
X762079Y348769D01*
X762086Y348753D01*
X762088Y348735D01*
X762128Y348649D01*
X762164Y348562D01*
X762176Y348548D01*
X762183Y348532D01*
X762251Y348466D01*
X762315Y348396D01*
X762331Y348388D01*
X762344Y348375D01*
X762430Y348337D01*
X762515Y348293D01*
X762534Y348291D01*
X762549Y348284D01*
X762599Y348281D01*
X762700Y348266D01*
X786700Y348266D01*
X786793Y348283D01*
G37*
G36*
X1015393Y348283D02*
X1015393Y348283D01*
X1015487Y348294D01*
X1015503Y348302D01*
X1015521Y348305D01*
X1015602Y348354D01*
X1015687Y348397D01*
X1015699Y348410D01*
X1015714Y348420D01*
X1015774Y348493D01*
X1015837Y348563D01*
X1015844Y348580D01*
X1015855Y348594D01*
X1015886Y348684D01*
X1015921Y348771D01*
X1015922Y348791D01*
X1015927Y348806D01*
X1015926Y348856D01*
X1015932Y348959D01*
X1015727Y351164D01*
X1015715Y351208D01*
X1015706Y351279D01*
X1015100Y353408D01*
X1015079Y353450D01*
X1015057Y353518D01*
X1014070Y355500D01*
X1014043Y355537D01*
X1014023Y355573D01*
X1014020Y355581D01*
X1014017Y355584D01*
X1014009Y355599D01*
X1012674Y357367D01*
X1012640Y357398D01*
X1012595Y357453D01*
X1010959Y358945D01*
X1010920Y358970D01*
X1010866Y359015D01*
X1008983Y360181D01*
X1008940Y360198D01*
X1008878Y360233D01*
X1006813Y361033D01*
X1006768Y361042D01*
X1006701Y361065D01*
X1004524Y361472D01*
X1004477Y361473D01*
X1004407Y361483D01*
X1002193Y361483D01*
X1002147Y361475D01*
X1002076Y361472D01*
X999900Y361065D01*
X999856Y361049D01*
X999787Y361033D01*
X997722Y360233D01*
X997682Y360209D01*
X997617Y360181D01*
X995735Y359015D01*
X995700Y358984D01*
X995641Y358945D01*
X994005Y357453D01*
X993976Y357416D01*
X993926Y357367D01*
X992591Y355599D01*
X992573Y355563D01*
X992561Y355549D01*
X992559Y355541D01*
X992530Y355500D01*
X991543Y353518D01*
X991530Y353473D01*
X991500Y353408D01*
X990894Y351279D01*
X990890Y351232D01*
X990873Y351164D01*
X990668Y348959D01*
X990677Y348864D01*
X990679Y348769D01*
X990686Y348753D01*
X990688Y348735D01*
X990728Y348649D01*
X990764Y348562D01*
X990776Y348548D01*
X990783Y348532D01*
X990851Y348466D01*
X990915Y348396D01*
X990931Y348388D01*
X990944Y348375D01*
X991030Y348337D01*
X991115Y348293D01*
X991134Y348291D01*
X991149Y348284D01*
X991199Y348281D01*
X991300Y348266D01*
X1015300Y348266D01*
X1015393Y348283D01*
G37*
G36*
X1015393Y424483D02*
X1015393Y424483D01*
X1015487Y424494D01*
X1015503Y424502D01*
X1015521Y424505D01*
X1015602Y424554D01*
X1015687Y424597D01*
X1015699Y424610D01*
X1015714Y424620D01*
X1015774Y424693D01*
X1015837Y424763D01*
X1015844Y424780D01*
X1015855Y424794D01*
X1015886Y424884D01*
X1015921Y424971D01*
X1015922Y424991D01*
X1015927Y425006D01*
X1015926Y425056D01*
X1015932Y425159D01*
X1015727Y427364D01*
X1015715Y427408D01*
X1015706Y427479D01*
X1015100Y429608D01*
X1015079Y429650D01*
X1015057Y429718D01*
X1014070Y431700D01*
X1014043Y431737D01*
X1014023Y431773D01*
X1014020Y431781D01*
X1014017Y431784D01*
X1014009Y431799D01*
X1012674Y433567D01*
X1012640Y433598D01*
X1012595Y433653D01*
X1010959Y435145D01*
X1010920Y435170D01*
X1010866Y435215D01*
X1008983Y436381D01*
X1008940Y436398D01*
X1008878Y436433D01*
X1006813Y437233D01*
X1006768Y437242D01*
X1006701Y437265D01*
X1004524Y437672D01*
X1004477Y437673D01*
X1004407Y437683D01*
X1002193Y437683D01*
X1002147Y437675D01*
X1002076Y437672D01*
X999900Y437265D01*
X999856Y437249D01*
X999787Y437233D01*
X997722Y436433D01*
X997682Y436409D01*
X997617Y436381D01*
X995735Y435215D01*
X995700Y435184D01*
X995641Y435145D01*
X994005Y433653D01*
X993976Y433616D01*
X993926Y433567D01*
X992591Y431799D01*
X992573Y431763D01*
X992561Y431749D01*
X992559Y431741D01*
X992530Y431700D01*
X991543Y429718D01*
X991530Y429673D01*
X991500Y429608D01*
X990894Y427479D01*
X990890Y427432D01*
X990873Y427364D01*
X990668Y425159D01*
X990677Y425064D01*
X990679Y424969D01*
X990686Y424953D01*
X990688Y424935D01*
X990728Y424849D01*
X990764Y424762D01*
X990776Y424748D01*
X990783Y424732D01*
X990851Y424666D01*
X990915Y424596D01*
X990931Y424588D01*
X990944Y424575D01*
X991030Y424537D01*
X991115Y424493D01*
X991134Y424491D01*
X991149Y424484D01*
X991199Y424481D01*
X991300Y424466D01*
X1015300Y424466D01*
X1015393Y424483D01*
G37*
G36*
X901093Y424483D02*
X901093Y424483D01*
X901187Y424494D01*
X901203Y424502D01*
X901221Y424505D01*
X901302Y424554D01*
X901387Y424597D01*
X901399Y424610D01*
X901414Y424620D01*
X901474Y424693D01*
X901537Y424763D01*
X901544Y424780D01*
X901555Y424794D01*
X901586Y424884D01*
X901621Y424971D01*
X901622Y424991D01*
X901627Y425006D01*
X901626Y425056D01*
X901632Y425159D01*
X901427Y427364D01*
X901415Y427408D01*
X901406Y427479D01*
X900800Y429608D01*
X900779Y429650D01*
X900757Y429718D01*
X899770Y431700D01*
X899743Y431737D01*
X899723Y431773D01*
X899720Y431781D01*
X899717Y431784D01*
X899709Y431799D01*
X898374Y433567D01*
X898340Y433598D01*
X898295Y433653D01*
X896659Y435145D01*
X896620Y435170D01*
X896566Y435215D01*
X894683Y436381D01*
X894640Y436398D01*
X894578Y436433D01*
X892513Y437233D01*
X892468Y437242D01*
X892401Y437265D01*
X890224Y437672D01*
X890177Y437673D01*
X890107Y437683D01*
X887893Y437683D01*
X887847Y437675D01*
X887776Y437672D01*
X885600Y437265D01*
X885556Y437249D01*
X885487Y437233D01*
X883422Y436433D01*
X883382Y436409D01*
X883317Y436381D01*
X881435Y435215D01*
X881400Y435184D01*
X881341Y435145D01*
X879705Y433653D01*
X879676Y433616D01*
X879626Y433567D01*
X878291Y431799D01*
X878273Y431763D01*
X878261Y431749D01*
X878259Y431741D01*
X878230Y431700D01*
X877243Y429718D01*
X877230Y429673D01*
X877200Y429608D01*
X876594Y427479D01*
X876590Y427432D01*
X876573Y427364D01*
X876368Y425159D01*
X876377Y425064D01*
X876379Y424969D01*
X876386Y424953D01*
X876388Y424935D01*
X876428Y424849D01*
X876464Y424762D01*
X876476Y424748D01*
X876483Y424732D01*
X876551Y424666D01*
X876615Y424596D01*
X876631Y424588D01*
X876644Y424575D01*
X876730Y424537D01*
X876815Y424493D01*
X876834Y424491D01*
X876849Y424484D01*
X876899Y424481D01*
X877000Y424466D01*
X901000Y424466D01*
X901093Y424483D01*
G37*
G36*
X786793Y424483D02*
X786793Y424483D01*
X786887Y424494D01*
X786903Y424502D01*
X786921Y424505D01*
X787002Y424554D01*
X787087Y424597D01*
X787099Y424610D01*
X787114Y424620D01*
X787174Y424693D01*
X787237Y424763D01*
X787244Y424780D01*
X787255Y424794D01*
X787286Y424884D01*
X787321Y424971D01*
X787322Y424991D01*
X787327Y425006D01*
X787326Y425056D01*
X787332Y425159D01*
X787127Y427364D01*
X787115Y427408D01*
X787106Y427479D01*
X786500Y429608D01*
X786479Y429650D01*
X786457Y429718D01*
X785470Y431700D01*
X785443Y431737D01*
X785423Y431773D01*
X785420Y431781D01*
X785417Y431784D01*
X785409Y431799D01*
X784074Y433567D01*
X784040Y433598D01*
X783995Y433653D01*
X782359Y435145D01*
X782320Y435170D01*
X782266Y435215D01*
X780383Y436381D01*
X780340Y436398D01*
X780278Y436433D01*
X778213Y437233D01*
X778168Y437242D01*
X778101Y437265D01*
X775924Y437672D01*
X775877Y437673D01*
X775807Y437683D01*
X773593Y437683D01*
X773547Y437675D01*
X773476Y437672D01*
X771300Y437265D01*
X771256Y437249D01*
X771187Y437233D01*
X769122Y436433D01*
X769082Y436409D01*
X769017Y436381D01*
X767135Y435215D01*
X767100Y435184D01*
X767041Y435145D01*
X765405Y433653D01*
X765376Y433616D01*
X765326Y433567D01*
X763991Y431799D01*
X763973Y431763D01*
X763961Y431749D01*
X763959Y431741D01*
X763930Y431700D01*
X762943Y429718D01*
X762930Y429673D01*
X762900Y429608D01*
X762294Y427479D01*
X762290Y427432D01*
X762273Y427364D01*
X762068Y425159D01*
X762077Y425064D01*
X762079Y424969D01*
X762086Y424953D01*
X762088Y424935D01*
X762128Y424849D01*
X762164Y424762D01*
X762176Y424748D01*
X762183Y424732D01*
X762251Y424666D01*
X762315Y424596D01*
X762331Y424588D01*
X762344Y424575D01*
X762430Y424537D01*
X762515Y424493D01*
X762534Y424491D01*
X762549Y424484D01*
X762599Y424481D01*
X762700Y424466D01*
X786700Y424466D01*
X786793Y424483D01*
G37*
G36*
X672493Y424483D02*
X672493Y424483D01*
X672587Y424494D01*
X672603Y424502D01*
X672621Y424505D01*
X672702Y424554D01*
X672787Y424597D01*
X672799Y424610D01*
X672814Y424620D01*
X672874Y424693D01*
X672937Y424763D01*
X672944Y424780D01*
X672955Y424794D01*
X672986Y424884D01*
X673021Y424971D01*
X673022Y424991D01*
X673027Y425006D01*
X673026Y425056D01*
X673032Y425159D01*
X672827Y427364D01*
X672815Y427408D01*
X672806Y427479D01*
X672200Y429608D01*
X672179Y429650D01*
X672157Y429718D01*
X671170Y431700D01*
X671143Y431737D01*
X671123Y431773D01*
X671120Y431781D01*
X671117Y431784D01*
X671109Y431799D01*
X669774Y433567D01*
X669740Y433598D01*
X669695Y433653D01*
X668059Y435145D01*
X668020Y435170D01*
X667966Y435215D01*
X666083Y436381D01*
X666040Y436398D01*
X665978Y436433D01*
X663913Y437233D01*
X663868Y437242D01*
X663801Y437265D01*
X661624Y437672D01*
X661577Y437673D01*
X661507Y437683D01*
X659293Y437683D01*
X659247Y437675D01*
X659176Y437672D01*
X657000Y437265D01*
X656956Y437249D01*
X656887Y437233D01*
X654822Y436433D01*
X654782Y436409D01*
X654717Y436381D01*
X652835Y435215D01*
X652800Y435184D01*
X652741Y435145D01*
X651105Y433653D01*
X651076Y433616D01*
X651026Y433567D01*
X649691Y431799D01*
X649673Y431763D01*
X649661Y431749D01*
X649659Y431741D01*
X649630Y431700D01*
X648643Y429718D01*
X648630Y429673D01*
X648600Y429608D01*
X647994Y427479D01*
X647990Y427432D01*
X647973Y427364D01*
X647768Y425159D01*
X647777Y425064D01*
X647779Y424969D01*
X647786Y424953D01*
X647788Y424935D01*
X647828Y424849D01*
X647864Y424762D01*
X647876Y424748D01*
X647883Y424732D01*
X647951Y424666D01*
X648015Y424596D01*
X648031Y424588D01*
X648044Y424575D01*
X648130Y424537D01*
X648215Y424493D01*
X648234Y424491D01*
X648249Y424484D01*
X648299Y424481D01*
X648400Y424466D01*
X672400Y424466D01*
X672493Y424483D01*
G37*
G36*
X558193Y424483D02*
X558193Y424483D01*
X558287Y424494D01*
X558303Y424502D01*
X558321Y424505D01*
X558402Y424554D01*
X558487Y424597D01*
X558499Y424610D01*
X558514Y424620D01*
X558574Y424693D01*
X558637Y424763D01*
X558644Y424780D01*
X558655Y424794D01*
X558686Y424884D01*
X558721Y424971D01*
X558722Y424991D01*
X558727Y425006D01*
X558726Y425056D01*
X558732Y425159D01*
X558527Y427364D01*
X558515Y427408D01*
X558506Y427479D01*
X557900Y429608D01*
X557879Y429650D01*
X557857Y429718D01*
X556870Y431700D01*
X556843Y431737D01*
X556823Y431773D01*
X556820Y431781D01*
X556817Y431784D01*
X556809Y431799D01*
X555474Y433567D01*
X555440Y433598D01*
X555395Y433653D01*
X553759Y435145D01*
X553720Y435170D01*
X553666Y435215D01*
X551783Y436381D01*
X551740Y436398D01*
X551678Y436433D01*
X549613Y437233D01*
X549568Y437242D01*
X549501Y437265D01*
X547324Y437672D01*
X547277Y437673D01*
X547207Y437683D01*
X544993Y437683D01*
X544947Y437675D01*
X544876Y437672D01*
X542700Y437265D01*
X542656Y437249D01*
X542587Y437233D01*
X540522Y436433D01*
X540482Y436409D01*
X540417Y436381D01*
X538535Y435215D01*
X538500Y435184D01*
X538441Y435145D01*
X536805Y433653D01*
X536776Y433616D01*
X536726Y433567D01*
X535391Y431799D01*
X535373Y431763D01*
X535361Y431749D01*
X535359Y431741D01*
X535330Y431700D01*
X534343Y429718D01*
X534330Y429673D01*
X534300Y429608D01*
X533694Y427479D01*
X533690Y427432D01*
X533673Y427364D01*
X533468Y425159D01*
X533477Y425064D01*
X533479Y424969D01*
X533486Y424953D01*
X533488Y424935D01*
X533528Y424849D01*
X533564Y424762D01*
X533576Y424748D01*
X533583Y424732D01*
X533651Y424666D01*
X533715Y424596D01*
X533731Y424588D01*
X533744Y424575D01*
X533830Y424537D01*
X533915Y424493D01*
X533934Y424491D01*
X533949Y424484D01*
X533999Y424481D01*
X534100Y424466D01*
X558100Y424466D01*
X558193Y424483D01*
G37*
G36*
X443893Y424483D02*
X443893Y424483D01*
X443987Y424494D01*
X444003Y424502D01*
X444021Y424505D01*
X444102Y424554D01*
X444187Y424597D01*
X444199Y424610D01*
X444214Y424620D01*
X444274Y424693D01*
X444337Y424763D01*
X444344Y424780D01*
X444355Y424794D01*
X444386Y424884D01*
X444421Y424971D01*
X444422Y424991D01*
X444427Y425006D01*
X444426Y425056D01*
X444432Y425159D01*
X444227Y427364D01*
X444215Y427408D01*
X444206Y427479D01*
X443600Y429608D01*
X443579Y429650D01*
X443557Y429718D01*
X442570Y431700D01*
X442543Y431737D01*
X442523Y431773D01*
X442520Y431781D01*
X442517Y431784D01*
X442509Y431799D01*
X441174Y433567D01*
X441140Y433598D01*
X441095Y433653D01*
X439459Y435145D01*
X439420Y435170D01*
X439366Y435215D01*
X437483Y436381D01*
X437440Y436398D01*
X437378Y436433D01*
X435313Y437233D01*
X435268Y437242D01*
X435201Y437265D01*
X433024Y437672D01*
X432977Y437673D01*
X432907Y437683D01*
X430693Y437683D01*
X430647Y437675D01*
X430576Y437672D01*
X428400Y437265D01*
X428356Y437249D01*
X428287Y437233D01*
X426222Y436433D01*
X426182Y436409D01*
X426117Y436381D01*
X424235Y435215D01*
X424200Y435184D01*
X424141Y435145D01*
X422505Y433653D01*
X422476Y433616D01*
X422426Y433567D01*
X421091Y431799D01*
X421073Y431763D01*
X421061Y431749D01*
X421059Y431741D01*
X421030Y431700D01*
X420043Y429718D01*
X420030Y429673D01*
X420000Y429608D01*
X419394Y427479D01*
X419390Y427432D01*
X419373Y427364D01*
X419168Y425159D01*
X419177Y425064D01*
X419179Y424969D01*
X419186Y424953D01*
X419188Y424935D01*
X419228Y424849D01*
X419264Y424762D01*
X419276Y424748D01*
X419283Y424732D01*
X419351Y424666D01*
X419415Y424596D01*
X419431Y424588D01*
X419444Y424575D01*
X419530Y424537D01*
X419615Y424493D01*
X419634Y424491D01*
X419649Y424484D01*
X419699Y424481D01*
X419800Y424466D01*
X443800Y424466D01*
X443893Y424483D01*
G37*
G36*
X329593Y424483D02*
X329593Y424483D01*
X329687Y424494D01*
X329703Y424502D01*
X329721Y424505D01*
X329802Y424554D01*
X329887Y424597D01*
X329899Y424610D01*
X329914Y424620D01*
X329974Y424693D01*
X330037Y424763D01*
X330044Y424780D01*
X330055Y424794D01*
X330086Y424884D01*
X330121Y424971D01*
X330122Y424991D01*
X330127Y425006D01*
X330126Y425056D01*
X330132Y425159D01*
X329927Y427364D01*
X329915Y427408D01*
X329906Y427479D01*
X329300Y429608D01*
X329279Y429650D01*
X329257Y429718D01*
X328270Y431700D01*
X328243Y431737D01*
X328223Y431773D01*
X328220Y431781D01*
X328217Y431784D01*
X328209Y431799D01*
X326874Y433567D01*
X326840Y433598D01*
X326795Y433653D01*
X325159Y435145D01*
X325120Y435170D01*
X325066Y435215D01*
X323183Y436381D01*
X323140Y436398D01*
X323078Y436433D01*
X321013Y437233D01*
X320968Y437242D01*
X320901Y437265D01*
X318724Y437672D01*
X318677Y437673D01*
X318607Y437683D01*
X316393Y437683D01*
X316347Y437675D01*
X316276Y437672D01*
X314100Y437265D01*
X314056Y437249D01*
X313987Y437233D01*
X311922Y436433D01*
X311882Y436409D01*
X311817Y436381D01*
X309935Y435215D01*
X309900Y435184D01*
X309841Y435145D01*
X308205Y433653D01*
X308176Y433616D01*
X308126Y433567D01*
X306791Y431799D01*
X306773Y431763D01*
X306761Y431749D01*
X306759Y431741D01*
X306730Y431700D01*
X305743Y429718D01*
X305730Y429673D01*
X305700Y429608D01*
X305094Y427479D01*
X305090Y427432D01*
X305073Y427364D01*
X304868Y425159D01*
X304877Y425064D01*
X304879Y424969D01*
X304886Y424953D01*
X304888Y424935D01*
X304928Y424849D01*
X304964Y424762D01*
X304976Y424748D01*
X304983Y424732D01*
X305051Y424666D01*
X305115Y424596D01*
X305131Y424588D01*
X305144Y424575D01*
X305230Y424537D01*
X305315Y424493D01*
X305334Y424491D01*
X305349Y424484D01*
X305399Y424481D01*
X305500Y424466D01*
X329500Y424466D01*
X329593Y424483D01*
G37*
G36*
X215293Y424483D02*
X215293Y424483D01*
X215387Y424494D01*
X215403Y424502D01*
X215421Y424505D01*
X215502Y424554D01*
X215587Y424597D01*
X215599Y424610D01*
X215614Y424620D01*
X215674Y424693D01*
X215737Y424763D01*
X215744Y424780D01*
X215755Y424794D01*
X215786Y424884D01*
X215821Y424971D01*
X215822Y424991D01*
X215827Y425006D01*
X215826Y425056D01*
X215832Y425159D01*
X215627Y427364D01*
X215615Y427408D01*
X215606Y427479D01*
X215000Y429608D01*
X214979Y429650D01*
X214957Y429718D01*
X213970Y431700D01*
X213943Y431737D01*
X213923Y431773D01*
X213920Y431781D01*
X213917Y431784D01*
X213909Y431799D01*
X212574Y433567D01*
X212540Y433598D01*
X212495Y433653D01*
X210859Y435145D01*
X210820Y435170D01*
X210766Y435215D01*
X208883Y436381D01*
X208840Y436398D01*
X208778Y436433D01*
X206713Y437233D01*
X206668Y437242D01*
X206601Y437265D01*
X204424Y437672D01*
X204377Y437673D01*
X204307Y437683D01*
X202093Y437683D01*
X202047Y437675D01*
X201976Y437672D01*
X199800Y437265D01*
X199756Y437249D01*
X199687Y437233D01*
X197622Y436433D01*
X197582Y436409D01*
X197517Y436381D01*
X195635Y435215D01*
X195600Y435184D01*
X195541Y435145D01*
X193905Y433653D01*
X193876Y433616D01*
X193826Y433567D01*
X192491Y431799D01*
X192473Y431763D01*
X192461Y431749D01*
X192459Y431741D01*
X192430Y431700D01*
X191443Y429718D01*
X191430Y429673D01*
X191400Y429608D01*
X190794Y427479D01*
X190790Y427432D01*
X190773Y427364D01*
X190568Y425159D01*
X190577Y425064D01*
X190579Y424969D01*
X190586Y424953D01*
X190588Y424935D01*
X190628Y424849D01*
X190664Y424762D01*
X190676Y424748D01*
X190683Y424732D01*
X190751Y424666D01*
X190815Y424596D01*
X190831Y424588D01*
X190844Y424575D01*
X190930Y424537D01*
X191015Y424493D01*
X191034Y424491D01*
X191049Y424484D01*
X191099Y424481D01*
X191200Y424466D01*
X215200Y424466D01*
X215293Y424483D01*
G37*
G36*
X890153Y400525D02*
X890153Y400525D01*
X890224Y400528D01*
X892401Y400935D01*
X892444Y400951D01*
X892513Y400967D01*
X894578Y401767D01*
X894618Y401791D01*
X894683Y401819D01*
X896566Y402985D01*
X896600Y403016D01*
X896659Y403055D01*
X898295Y404547D01*
X898324Y404584D01*
X898374Y404633D01*
X899709Y406401D01*
X899730Y406442D01*
X899770Y406500D01*
X900757Y408482D01*
X900770Y408527D01*
X900800Y408592D01*
X901406Y410721D01*
X901410Y410768D01*
X901427Y410836D01*
X901632Y413041D01*
X901623Y413136D01*
X901621Y413231D01*
X901614Y413247D01*
X901612Y413265D01*
X901572Y413351D01*
X901536Y413438D01*
X901524Y413452D01*
X901517Y413468D01*
X901449Y413534D01*
X901385Y413604D01*
X901369Y413612D01*
X901356Y413625D01*
X901270Y413663D01*
X901185Y413707D01*
X901166Y413710D01*
X901151Y413716D01*
X901101Y413719D01*
X901000Y413734D01*
X877000Y413734D01*
X876907Y413717D01*
X876813Y413706D01*
X876797Y413698D01*
X876779Y413695D01*
X876698Y413646D01*
X876613Y413603D01*
X876601Y413590D01*
X876586Y413580D01*
X876526Y413507D01*
X876463Y413437D01*
X876456Y413420D01*
X876445Y413406D01*
X876414Y413316D01*
X876379Y413229D01*
X876378Y413209D01*
X876373Y413194D01*
X876374Y413144D01*
X876368Y413041D01*
X876573Y410836D01*
X876585Y410792D01*
X876594Y410721D01*
X877200Y408592D01*
X877221Y408550D01*
X877243Y408482D01*
X878230Y406500D01*
X878257Y406463D01*
X878291Y406401D01*
X879626Y404633D01*
X879660Y404602D01*
X879705Y404547D01*
X881341Y403055D01*
X881381Y403030D01*
X881435Y402985D01*
X883317Y401819D01*
X883360Y401802D01*
X883422Y401767D01*
X885487Y400967D01*
X885533Y400958D01*
X885600Y400935D01*
X887776Y400528D01*
X887823Y400527D01*
X887893Y400517D01*
X890107Y400517D01*
X890153Y400525D01*
G37*
G36*
X432953Y400525D02*
X432953Y400525D01*
X433024Y400528D01*
X435201Y400935D01*
X435244Y400951D01*
X435313Y400967D01*
X437378Y401767D01*
X437418Y401791D01*
X437483Y401819D01*
X439366Y402985D01*
X439400Y403016D01*
X439459Y403055D01*
X441095Y404547D01*
X441124Y404584D01*
X441174Y404633D01*
X442509Y406401D01*
X442530Y406442D01*
X442570Y406500D01*
X443557Y408482D01*
X443570Y408527D01*
X443600Y408592D01*
X444206Y410721D01*
X444210Y410768D01*
X444227Y410836D01*
X444432Y413041D01*
X444423Y413136D01*
X444421Y413231D01*
X444414Y413247D01*
X444412Y413265D01*
X444372Y413351D01*
X444336Y413438D01*
X444324Y413452D01*
X444317Y413468D01*
X444249Y413534D01*
X444185Y413604D01*
X444169Y413612D01*
X444156Y413625D01*
X444070Y413663D01*
X443985Y413707D01*
X443966Y413710D01*
X443951Y413716D01*
X443901Y413719D01*
X443800Y413734D01*
X419800Y413734D01*
X419707Y413717D01*
X419613Y413706D01*
X419597Y413698D01*
X419579Y413695D01*
X419498Y413646D01*
X419413Y413603D01*
X419401Y413590D01*
X419386Y413580D01*
X419326Y413507D01*
X419263Y413437D01*
X419256Y413420D01*
X419245Y413406D01*
X419214Y413316D01*
X419179Y413229D01*
X419178Y413209D01*
X419173Y413194D01*
X419174Y413144D01*
X419168Y413041D01*
X419373Y410836D01*
X419385Y410792D01*
X419394Y410721D01*
X420000Y408592D01*
X420021Y408550D01*
X420043Y408482D01*
X421030Y406500D01*
X421057Y406463D01*
X421091Y406401D01*
X422426Y404633D01*
X422460Y404602D01*
X422505Y404547D01*
X424141Y403055D01*
X424181Y403030D01*
X424235Y402985D01*
X426117Y401819D01*
X426160Y401802D01*
X426222Y401767D01*
X428287Y400967D01*
X428333Y400958D01*
X428400Y400935D01*
X430576Y400528D01*
X430623Y400527D01*
X430693Y400517D01*
X432907Y400517D01*
X432953Y400525D01*
G37*
G36*
X547253Y400525D02*
X547253Y400525D01*
X547324Y400528D01*
X549501Y400935D01*
X549544Y400951D01*
X549613Y400967D01*
X551678Y401767D01*
X551718Y401791D01*
X551783Y401819D01*
X553666Y402985D01*
X553700Y403016D01*
X553759Y403055D01*
X555395Y404547D01*
X555424Y404584D01*
X555474Y404633D01*
X556809Y406401D01*
X556830Y406442D01*
X556870Y406500D01*
X557857Y408482D01*
X557870Y408527D01*
X557900Y408592D01*
X558506Y410721D01*
X558510Y410768D01*
X558527Y410836D01*
X558732Y413041D01*
X558723Y413136D01*
X558721Y413231D01*
X558714Y413247D01*
X558712Y413265D01*
X558672Y413351D01*
X558636Y413438D01*
X558624Y413452D01*
X558617Y413468D01*
X558549Y413534D01*
X558485Y413604D01*
X558469Y413612D01*
X558456Y413625D01*
X558370Y413663D01*
X558285Y413707D01*
X558266Y413710D01*
X558251Y413716D01*
X558201Y413719D01*
X558100Y413734D01*
X534100Y413734D01*
X534007Y413717D01*
X533913Y413706D01*
X533897Y413698D01*
X533879Y413695D01*
X533798Y413646D01*
X533713Y413603D01*
X533701Y413590D01*
X533686Y413580D01*
X533626Y413507D01*
X533563Y413437D01*
X533556Y413420D01*
X533545Y413406D01*
X533514Y413316D01*
X533479Y413229D01*
X533478Y413209D01*
X533473Y413194D01*
X533474Y413144D01*
X533468Y413041D01*
X533673Y410836D01*
X533685Y410792D01*
X533694Y410721D01*
X534300Y408592D01*
X534321Y408550D01*
X534343Y408482D01*
X535330Y406500D01*
X535357Y406463D01*
X535391Y406401D01*
X536726Y404633D01*
X536760Y404602D01*
X536805Y404547D01*
X538441Y403055D01*
X538481Y403030D01*
X538535Y402985D01*
X540417Y401819D01*
X540460Y401802D01*
X540522Y401767D01*
X542587Y400967D01*
X542633Y400958D01*
X542700Y400935D01*
X544876Y400528D01*
X544923Y400527D01*
X544993Y400517D01*
X547207Y400517D01*
X547253Y400525D01*
G37*
G36*
X775853Y400525D02*
X775853Y400525D01*
X775924Y400528D01*
X778101Y400935D01*
X778144Y400951D01*
X778213Y400967D01*
X780278Y401767D01*
X780318Y401791D01*
X780383Y401819D01*
X782266Y402985D01*
X782300Y403016D01*
X782359Y403055D01*
X783995Y404547D01*
X784024Y404584D01*
X784074Y404633D01*
X785409Y406401D01*
X785430Y406442D01*
X785470Y406500D01*
X786457Y408482D01*
X786470Y408527D01*
X786500Y408592D01*
X787106Y410721D01*
X787110Y410768D01*
X787127Y410836D01*
X787332Y413041D01*
X787323Y413136D01*
X787321Y413231D01*
X787314Y413247D01*
X787312Y413265D01*
X787272Y413351D01*
X787236Y413438D01*
X787224Y413452D01*
X787217Y413468D01*
X787149Y413534D01*
X787085Y413604D01*
X787069Y413612D01*
X787056Y413625D01*
X786970Y413663D01*
X786885Y413707D01*
X786866Y413710D01*
X786851Y413716D01*
X786801Y413719D01*
X786700Y413734D01*
X762700Y413734D01*
X762607Y413717D01*
X762513Y413706D01*
X762497Y413698D01*
X762479Y413695D01*
X762398Y413646D01*
X762313Y413603D01*
X762301Y413590D01*
X762286Y413580D01*
X762226Y413507D01*
X762163Y413437D01*
X762156Y413420D01*
X762145Y413406D01*
X762114Y413316D01*
X762079Y413229D01*
X762078Y413209D01*
X762073Y413194D01*
X762074Y413144D01*
X762068Y413041D01*
X762273Y410836D01*
X762285Y410792D01*
X762294Y410721D01*
X762900Y408592D01*
X762921Y408550D01*
X762943Y408482D01*
X763930Y406500D01*
X763957Y406463D01*
X763991Y406401D01*
X765326Y404633D01*
X765360Y404602D01*
X765405Y404547D01*
X767041Y403055D01*
X767081Y403030D01*
X767135Y402985D01*
X769017Y401819D01*
X769060Y401802D01*
X769122Y401767D01*
X771187Y400967D01*
X771233Y400958D01*
X771300Y400935D01*
X773476Y400528D01*
X773523Y400527D01*
X773593Y400517D01*
X775807Y400517D01*
X775853Y400525D01*
G37*
G36*
X204353Y400525D02*
X204353Y400525D01*
X204424Y400528D01*
X206601Y400935D01*
X206644Y400951D01*
X206713Y400967D01*
X208778Y401767D01*
X208818Y401791D01*
X208883Y401819D01*
X210766Y402985D01*
X210800Y403016D01*
X210859Y403055D01*
X212495Y404547D01*
X212524Y404584D01*
X212574Y404633D01*
X213909Y406401D01*
X213930Y406442D01*
X213970Y406500D01*
X214957Y408482D01*
X214970Y408527D01*
X215000Y408592D01*
X215606Y410721D01*
X215610Y410768D01*
X215627Y410836D01*
X215832Y413041D01*
X215823Y413136D01*
X215821Y413231D01*
X215814Y413247D01*
X215812Y413265D01*
X215772Y413351D01*
X215736Y413438D01*
X215724Y413452D01*
X215717Y413468D01*
X215649Y413534D01*
X215585Y413604D01*
X215569Y413612D01*
X215556Y413625D01*
X215470Y413663D01*
X215385Y413707D01*
X215366Y413710D01*
X215351Y413716D01*
X215301Y413719D01*
X215200Y413734D01*
X191200Y413734D01*
X191107Y413717D01*
X191013Y413706D01*
X190997Y413698D01*
X190979Y413695D01*
X190898Y413646D01*
X190813Y413603D01*
X190801Y413590D01*
X190786Y413580D01*
X190726Y413507D01*
X190663Y413437D01*
X190656Y413420D01*
X190645Y413406D01*
X190614Y413316D01*
X190579Y413229D01*
X190578Y413209D01*
X190573Y413194D01*
X190574Y413144D01*
X190568Y413041D01*
X190773Y410836D01*
X190785Y410792D01*
X190794Y410721D01*
X191400Y408592D01*
X191421Y408550D01*
X191443Y408482D01*
X192430Y406500D01*
X192457Y406463D01*
X192491Y406401D01*
X193826Y404633D01*
X193860Y404602D01*
X193905Y404547D01*
X195541Y403055D01*
X195581Y403030D01*
X195635Y402985D01*
X197517Y401819D01*
X197560Y401802D01*
X197622Y401767D01*
X199687Y400967D01*
X199733Y400958D01*
X199800Y400935D01*
X201976Y400528D01*
X202023Y400527D01*
X202093Y400517D01*
X204307Y400517D01*
X204353Y400525D01*
G37*
G36*
X661553Y400525D02*
X661553Y400525D01*
X661624Y400528D01*
X663801Y400935D01*
X663844Y400951D01*
X663913Y400967D01*
X665978Y401767D01*
X666018Y401791D01*
X666083Y401819D01*
X667966Y402985D01*
X668000Y403016D01*
X668059Y403055D01*
X669695Y404547D01*
X669724Y404584D01*
X669774Y404633D01*
X671109Y406401D01*
X671130Y406442D01*
X671170Y406500D01*
X672157Y408482D01*
X672170Y408527D01*
X672200Y408592D01*
X672806Y410721D01*
X672810Y410768D01*
X672827Y410836D01*
X673032Y413041D01*
X673023Y413136D01*
X673021Y413231D01*
X673014Y413247D01*
X673012Y413265D01*
X672972Y413351D01*
X672936Y413438D01*
X672924Y413452D01*
X672917Y413468D01*
X672849Y413534D01*
X672785Y413604D01*
X672769Y413612D01*
X672756Y413625D01*
X672670Y413663D01*
X672585Y413707D01*
X672566Y413710D01*
X672551Y413716D01*
X672501Y413719D01*
X672400Y413734D01*
X648400Y413734D01*
X648307Y413717D01*
X648213Y413706D01*
X648197Y413698D01*
X648179Y413695D01*
X648098Y413646D01*
X648013Y413603D01*
X648001Y413590D01*
X647986Y413580D01*
X647926Y413507D01*
X647863Y413437D01*
X647856Y413420D01*
X647845Y413406D01*
X647814Y413316D01*
X647779Y413229D01*
X647778Y413209D01*
X647773Y413194D01*
X647774Y413144D01*
X647768Y413041D01*
X647973Y410836D01*
X647985Y410792D01*
X647994Y410721D01*
X648600Y408592D01*
X648621Y408550D01*
X648643Y408482D01*
X649630Y406500D01*
X649657Y406463D01*
X649691Y406401D01*
X651026Y404633D01*
X651060Y404602D01*
X651105Y404547D01*
X652741Y403055D01*
X652781Y403030D01*
X652835Y402985D01*
X654717Y401819D01*
X654760Y401802D01*
X654822Y401767D01*
X656887Y400967D01*
X656933Y400958D01*
X657000Y400935D01*
X659176Y400528D01*
X659223Y400527D01*
X659293Y400517D01*
X661507Y400517D01*
X661553Y400525D01*
G37*
G36*
X1004453Y400525D02*
X1004453Y400525D01*
X1004524Y400528D01*
X1006701Y400935D01*
X1006744Y400951D01*
X1006813Y400967D01*
X1008878Y401767D01*
X1008918Y401791D01*
X1008983Y401819D01*
X1010866Y402985D01*
X1010900Y403016D01*
X1010959Y403055D01*
X1012595Y404547D01*
X1012624Y404584D01*
X1012674Y404633D01*
X1014009Y406401D01*
X1014030Y406442D01*
X1014070Y406500D01*
X1015057Y408482D01*
X1015070Y408527D01*
X1015100Y408592D01*
X1015706Y410721D01*
X1015710Y410768D01*
X1015727Y410836D01*
X1015932Y413041D01*
X1015923Y413136D01*
X1015921Y413231D01*
X1015914Y413247D01*
X1015912Y413265D01*
X1015872Y413351D01*
X1015836Y413438D01*
X1015824Y413452D01*
X1015817Y413468D01*
X1015749Y413534D01*
X1015685Y413604D01*
X1015669Y413612D01*
X1015656Y413625D01*
X1015570Y413663D01*
X1015485Y413707D01*
X1015466Y413710D01*
X1015451Y413716D01*
X1015401Y413719D01*
X1015300Y413734D01*
X991300Y413734D01*
X991207Y413717D01*
X991113Y413706D01*
X991097Y413698D01*
X991079Y413695D01*
X990998Y413646D01*
X990913Y413603D01*
X990901Y413590D01*
X990886Y413580D01*
X990826Y413507D01*
X990763Y413437D01*
X990756Y413420D01*
X990745Y413406D01*
X990714Y413316D01*
X990679Y413229D01*
X990678Y413209D01*
X990673Y413194D01*
X990674Y413144D01*
X990668Y413041D01*
X990873Y410836D01*
X990885Y410792D01*
X990894Y410721D01*
X991500Y408592D01*
X991521Y408550D01*
X991543Y408482D01*
X992530Y406500D01*
X992557Y406463D01*
X992591Y406401D01*
X993926Y404633D01*
X993960Y404602D01*
X994005Y404547D01*
X995641Y403055D01*
X995681Y403030D01*
X995735Y402985D01*
X997617Y401819D01*
X997660Y401802D01*
X997722Y401767D01*
X999787Y400967D01*
X999833Y400958D01*
X999900Y400935D01*
X1002076Y400528D01*
X1002123Y400527D01*
X1002193Y400517D01*
X1004407Y400517D01*
X1004453Y400525D01*
G37*
G36*
X318653Y400525D02*
X318653Y400525D01*
X318724Y400528D01*
X320901Y400935D01*
X320944Y400951D01*
X321013Y400967D01*
X323078Y401767D01*
X323118Y401791D01*
X323183Y401819D01*
X325066Y402985D01*
X325100Y403016D01*
X325159Y403055D01*
X326795Y404547D01*
X326824Y404584D01*
X326874Y404633D01*
X328209Y406401D01*
X328230Y406442D01*
X328270Y406500D01*
X329257Y408482D01*
X329270Y408527D01*
X329300Y408592D01*
X329906Y410721D01*
X329910Y410768D01*
X329927Y410836D01*
X330132Y413041D01*
X330123Y413136D01*
X330121Y413231D01*
X330114Y413247D01*
X330112Y413265D01*
X330072Y413351D01*
X330036Y413438D01*
X330024Y413452D01*
X330017Y413468D01*
X329949Y413534D01*
X329885Y413604D01*
X329869Y413612D01*
X329856Y413625D01*
X329770Y413663D01*
X329685Y413707D01*
X329666Y413710D01*
X329651Y413716D01*
X329601Y413719D01*
X329500Y413734D01*
X305500Y413734D01*
X305407Y413717D01*
X305313Y413706D01*
X305297Y413698D01*
X305279Y413695D01*
X305198Y413646D01*
X305113Y413603D01*
X305101Y413590D01*
X305086Y413580D01*
X305026Y413507D01*
X304963Y413437D01*
X304956Y413420D01*
X304945Y413406D01*
X304914Y413316D01*
X304879Y413229D01*
X304878Y413209D01*
X304873Y413194D01*
X304874Y413144D01*
X304868Y413041D01*
X305073Y410836D01*
X305085Y410792D01*
X305094Y410721D01*
X305700Y408592D01*
X305721Y408550D01*
X305743Y408482D01*
X306730Y406500D01*
X306757Y406463D01*
X306791Y406401D01*
X308126Y404633D01*
X308160Y404602D01*
X308205Y404547D01*
X309841Y403055D01*
X309881Y403030D01*
X309935Y402985D01*
X311817Y401819D01*
X311860Y401802D01*
X311922Y401767D01*
X313987Y400967D01*
X314033Y400958D01*
X314100Y400935D01*
X316276Y400528D01*
X316323Y400527D01*
X316393Y400517D01*
X318607Y400517D01*
X318653Y400525D01*
G37*
G36*
X775853Y476725D02*
X775853Y476725D01*
X775924Y476728D01*
X778101Y477135D01*
X778144Y477151D01*
X778213Y477167D01*
X780278Y477967D01*
X780318Y477991D01*
X780383Y478019D01*
X782266Y479185D01*
X782300Y479216D01*
X782359Y479255D01*
X783995Y480747D01*
X784024Y480784D01*
X784074Y480833D01*
X785409Y482601D01*
X785430Y482642D01*
X785470Y482700D01*
X786457Y484682D01*
X786470Y484727D01*
X786500Y484792D01*
X787106Y486921D01*
X787110Y486968D01*
X787127Y487036D01*
X787332Y489241D01*
X787323Y489336D01*
X787321Y489431D01*
X787314Y489447D01*
X787312Y489465D01*
X787272Y489551D01*
X787236Y489638D01*
X787224Y489652D01*
X787217Y489668D01*
X787149Y489734D01*
X787085Y489804D01*
X787069Y489812D01*
X787056Y489825D01*
X786970Y489863D01*
X786885Y489907D01*
X786866Y489910D01*
X786851Y489916D01*
X786801Y489919D01*
X786700Y489934D01*
X762700Y489934D01*
X762607Y489917D01*
X762513Y489906D01*
X762497Y489898D01*
X762479Y489895D01*
X762398Y489846D01*
X762313Y489803D01*
X762301Y489790D01*
X762286Y489780D01*
X762226Y489707D01*
X762163Y489637D01*
X762156Y489620D01*
X762145Y489606D01*
X762114Y489516D01*
X762079Y489429D01*
X762078Y489409D01*
X762073Y489394D01*
X762074Y489344D01*
X762068Y489241D01*
X762273Y487036D01*
X762285Y486992D01*
X762294Y486921D01*
X762900Y484792D01*
X762921Y484750D01*
X762943Y484682D01*
X763930Y482700D01*
X763957Y482663D01*
X763991Y482601D01*
X765326Y480833D01*
X765360Y480802D01*
X765405Y480747D01*
X767041Y479255D01*
X767081Y479230D01*
X767135Y479185D01*
X769017Y478019D01*
X769060Y478002D01*
X769122Y477967D01*
X771187Y477167D01*
X771233Y477158D01*
X771300Y477135D01*
X773476Y476728D01*
X773523Y476727D01*
X773593Y476717D01*
X775807Y476717D01*
X775853Y476725D01*
G37*
G36*
X204353Y476725D02*
X204353Y476725D01*
X204424Y476728D01*
X206601Y477135D01*
X206644Y477151D01*
X206713Y477167D01*
X208778Y477967D01*
X208818Y477991D01*
X208883Y478019D01*
X210766Y479185D01*
X210800Y479216D01*
X210859Y479255D01*
X212495Y480747D01*
X212524Y480784D01*
X212574Y480833D01*
X213909Y482601D01*
X213930Y482642D01*
X213970Y482700D01*
X214957Y484682D01*
X214970Y484727D01*
X215000Y484792D01*
X215606Y486921D01*
X215610Y486968D01*
X215627Y487036D01*
X215832Y489241D01*
X215823Y489336D01*
X215821Y489431D01*
X215814Y489447D01*
X215812Y489465D01*
X215772Y489551D01*
X215736Y489638D01*
X215724Y489652D01*
X215717Y489668D01*
X215649Y489734D01*
X215585Y489804D01*
X215569Y489812D01*
X215556Y489825D01*
X215470Y489863D01*
X215385Y489907D01*
X215366Y489910D01*
X215351Y489916D01*
X215301Y489919D01*
X215200Y489934D01*
X191200Y489934D01*
X191107Y489917D01*
X191013Y489906D01*
X190997Y489898D01*
X190979Y489895D01*
X190898Y489846D01*
X190813Y489803D01*
X190801Y489790D01*
X190786Y489780D01*
X190726Y489707D01*
X190663Y489637D01*
X190656Y489620D01*
X190645Y489606D01*
X190614Y489516D01*
X190579Y489429D01*
X190578Y489409D01*
X190573Y489394D01*
X190574Y489344D01*
X190568Y489241D01*
X190773Y487036D01*
X190785Y486992D01*
X190794Y486921D01*
X191400Y484792D01*
X191421Y484750D01*
X191443Y484682D01*
X192430Y482700D01*
X192457Y482663D01*
X192491Y482601D01*
X193826Y480833D01*
X193860Y480802D01*
X193905Y480747D01*
X195541Y479255D01*
X195581Y479230D01*
X195635Y479185D01*
X197517Y478019D01*
X197560Y478002D01*
X197622Y477967D01*
X199687Y477167D01*
X199733Y477158D01*
X199800Y477135D01*
X201976Y476728D01*
X202023Y476727D01*
X202093Y476717D01*
X204307Y476717D01*
X204353Y476725D01*
G37*
G36*
X890153Y476725D02*
X890153Y476725D01*
X890224Y476728D01*
X892401Y477135D01*
X892444Y477151D01*
X892513Y477167D01*
X894578Y477967D01*
X894618Y477991D01*
X894683Y478019D01*
X896566Y479185D01*
X896600Y479216D01*
X896659Y479255D01*
X898295Y480747D01*
X898324Y480784D01*
X898374Y480833D01*
X899709Y482601D01*
X899730Y482642D01*
X899770Y482700D01*
X900757Y484682D01*
X900770Y484727D01*
X900800Y484792D01*
X901406Y486921D01*
X901410Y486968D01*
X901427Y487036D01*
X901632Y489241D01*
X901623Y489336D01*
X901621Y489431D01*
X901614Y489447D01*
X901612Y489465D01*
X901572Y489551D01*
X901536Y489638D01*
X901524Y489652D01*
X901517Y489668D01*
X901449Y489734D01*
X901385Y489804D01*
X901369Y489812D01*
X901356Y489825D01*
X901270Y489863D01*
X901185Y489907D01*
X901166Y489910D01*
X901151Y489916D01*
X901101Y489919D01*
X901000Y489934D01*
X877000Y489934D01*
X876907Y489917D01*
X876813Y489906D01*
X876797Y489898D01*
X876779Y489895D01*
X876698Y489846D01*
X876613Y489803D01*
X876601Y489790D01*
X876586Y489780D01*
X876526Y489707D01*
X876463Y489637D01*
X876456Y489620D01*
X876445Y489606D01*
X876414Y489516D01*
X876379Y489429D01*
X876378Y489409D01*
X876373Y489394D01*
X876374Y489344D01*
X876368Y489241D01*
X876573Y487036D01*
X876585Y486992D01*
X876594Y486921D01*
X877200Y484792D01*
X877221Y484750D01*
X877243Y484682D01*
X878230Y482700D01*
X878257Y482663D01*
X878291Y482601D01*
X879626Y480833D01*
X879660Y480802D01*
X879705Y480747D01*
X881341Y479255D01*
X881381Y479230D01*
X881435Y479185D01*
X883317Y478019D01*
X883360Y478002D01*
X883422Y477967D01*
X885487Y477167D01*
X885533Y477158D01*
X885600Y477135D01*
X887776Y476728D01*
X887823Y476727D01*
X887893Y476717D01*
X890107Y476717D01*
X890153Y476725D01*
G37*
G36*
X318653Y476725D02*
X318653Y476725D01*
X318724Y476728D01*
X320901Y477135D01*
X320944Y477151D01*
X321013Y477167D01*
X323078Y477967D01*
X323118Y477991D01*
X323183Y478019D01*
X325066Y479185D01*
X325100Y479216D01*
X325159Y479255D01*
X326795Y480747D01*
X326824Y480784D01*
X326874Y480833D01*
X328209Y482601D01*
X328230Y482642D01*
X328270Y482700D01*
X329257Y484682D01*
X329270Y484727D01*
X329300Y484792D01*
X329906Y486921D01*
X329910Y486968D01*
X329927Y487036D01*
X330132Y489241D01*
X330123Y489336D01*
X330121Y489431D01*
X330114Y489447D01*
X330112Y489465D01*
X330072Y489551D01*
X330036Y489638D01*
X330024Y489652D01*
X330017Y489668D01*
X329949Y489734D01*
X329885Y489804D01*
X329869Y489812D01*
X329856Y489825D01*
X329770Y489863D01*
X329685Y489907D01*
X329666Y489910D01*
X329651Y489916D01*
X329601Y489919D01*
X329500Y489934D01*
X305500Y489934D01*
X305407Y489917D01*
X305313Y489906D01*
X305297Y489898D01*
X305279Y489895D01*
X305198Y489846D01*
X305113Y489803D01*
X305101Y489790D01*
X305086Y489780D01*
X305026Y489707D01*
X304963Y489637D01*
X304956Y489620D01*
X304945Y489606D01*
X304914Y489516D01*
X304879Y489429D01*
X304878Y489409D01*
X304873Y489394D01*
X304874Y489344D01*
X304868Y489241D01*
X305073Y487036D01*
X305085Y486992D01*
X305094Y486921D01*
X305700Y484792D01*
X305721Y484750D01*
X305743Y484682D01*
X306730Y482700D01*
X306757Y482663D01*
X306791Y482601D01*
X308126Y480833D01*
X308160Y480802D01*
X308205Y480747D01*
X309841Y479255D01*
X309881Y479230D01*
X309935Y479185D01*
X311817Y478019D01*
X311860Y478002D01*
X311922Y477967D01*
X313987Y477167D01*
X314033Y477158D01*
X314100Y477135D01*
X316276Y476728D01*
X316323Y476727D01*
X316393Y476717D01*
X318607Y476717D01*
X318653Y476725D01*
G37*
G36*
X1004453Y476725D02*
X1004453Y476725D01*
X1004524Y476728D01*
X1006701Y477135D01*
X1006744Y477151D01*
X1006813Y477167D01*
X1008878Y477967D01*
X1008918Y477991D01*
X1008983Y478019D01*
X1010866Y479185D01*
X1010900Y479216D01*
X1010959Y479255D01*
X1012595Y480747D01*
X1012624Y480784D01*
X1012674Y480833D01*
X1014009Y482601D01*
X1014030Y482642D01*
X1014070Y482700D01*
X1015057Y484682D01*
X1015070Y484727D01*
X1015100Y484792D01*
X1015706Y486921D01*
X1015710Y486968D01*
X1015727Y487036D01*
X1015932Y489241D01*
X1015923Y489336D01*
X1015921Y489431D01*
X1015914Y489447D01*
X1015912Y489465D01*
X1015872Y489551D01*
X1015836Y489638D01*
X1015824Y489652D01*
X1015817Y489668D01*
X1015749Y489734D01*
X1015685Y489804D01*
X1015669Y489812D01*
X1015656Y489825D01*
X1015570Y489863D01*
X1015485Y489907D01*
X1015466Y489910D01*
X1015451Y489916D01*
X1015401Y489919D01*
X1015300Y489934D01*
X991300Y489934D01*
X991207Y489917D01*
X991113Y489906D01*
X991097Y489898D01*
X991079Y489895D01*
X990998Y489846D01*
X990913Y489803D01*
X990901Y489790D01*
X990886Y489780D01*
X990826Y489707D01*
X990763Y489637D01*
X990756Y489620D01*
X990745Y489606D01*
X990714Y489516D01*
X990679Y489429D01*
X990678Y489409D01*
X990673Y489394D01*
X990674Y489344D01*
X990668Y489241D01*
X990873Y487036D01*
X990885Y486992D01*
X990894Y486921D01*
X991500Y484792D01*
X991521Y484750D01*
X991543Y484682D01*
X992530Y482700D01*
X992557Y482663D01*
X992591Y482601D01*
X993926Y480833D01*
X993960Y480802D01*
X994005Y480747D01*
X995641Y479255D01*
X995681Y479230D01*
X995735Y479185D01*
X997617Y478019D01*
X997660Y478002D01*
X997722Y477967D01*
X999787Y477167D01*
X999833Y477158D01*
X999900Y477135D01*
X1002076Y476728D01*
X1002123Y476727D01*
X1002193Y476717D01*
X1004407Y476717D01*
X1004453Y476725D01*
G37*
G36*
X432953Y476725D02*
X432953Y476725D01*
X433024Y476728D01*
X435201Y477135D01*
X435244Y477151D01*
X435313Y477167D01*
X437378Y477967D01*
X437418Y477991D01*
X437483Y478019D01*
X439366Y479185D01*
X439400Y479216D01*
X439459Y479255D01*
X441095Y480747D01*
X441124Y480784D01*
X441174Y480833D01*
X442509Y482601D01*
X442530Y482642D01*
X442570Y482700D01*
X443557Y484682D01*
X443570Y484727D01*
X443600Y484792D01*
X444206Y486921D01*
X444210Y486968D01*
X444227Y487036D01*
X444432Y489241D01*
X444423Y489336D01*
X444421Y489431D01*
X444414Y489447D01*
X444412Y489465D01*
X444372Y489551D01*
X444336Y489638D01*
X444324Y489652D01*
X444317Y489668D01*
X444249Y489734D01*
X444185Y489804D01*
X444169Y489812D01*
X444156Y489825D01*
X444070Y489863D01*
X443985Y489907D01*
X443966Y489910D01*
X443951Y489916D01*
X443901Y489919D01*
X443800Y489934D01*
X419800Y489934D01*
X419707Y489917D01*
X419613Y489906D01*
X419597Y489898D01*
X419579Y489895D01*
X419498Y489846D01*
X419413Y489803D01*
X419401Y489790D01*
X419386Y489780D01*
X419326Y489707D01*
X419263Y489637D01*
X419256Y489620D01*
X419245Y489606D01*
X419214Y489516D01*
X419179Y489429D01*
X419178Y489409D01*
X419173Y489394D01*
X419174Y489344D01*
X419168Y489241D01*
X419373Y487036D01*
X419385Y486992D01*
X419394Y486921D01*
X420000Y484792D01*
X420021Y484750D01*
X420043Y484682D01*
X421030Y482700D01*
X421057Y482663D01*
X421091Y482601D01*
X422426Y480833D01*
X422460Y480802D01*
X422505Y480747D01*
X424141Y479255D01*
X424181Y479230D01*
X424235Y479185D01*
X426117Y478019D01*
X426160Y478002D01*
X426222Y477967D01*
X428287Y477167D01*
X428333Y477158D01*
X428400Y477135D01*
X430576Y476728D01*
X430623Y476727D01*
X430693Y476717D01*
X432907Y476717D01*
X432953Y476725D01*
G37*
G36*
X547253Y476725D02*
X547253Y476725D01*
X547324Y476728D01*
X549501Y477135D01*
X549544Y477151D01*
X549613Y477167D01*
X551678Y477967D01*
X551718Y477991D01*
X551783Y478019D01*
X553666Y479185D01*
X553700Y479216D01*
X553759Y479255D01*
X555395Y480747D01*
X555424Y480784D01*
X555474Y480833D01*
X556809Y482601D01*
X556830Y482642D01*
X556870Y482700D01*
X557857Y484682D01*
X557870Y484727D01*
X557900Y484792D01*
X558506Y486921D01*
X558510Y486968D01*
X558527Y487036D01*
X558732Y489241D01*
X558723Y489336D01*
X558721Y489431D01*
X558714Y489447D01*
X558712Y489465D01*
X558672Y489551D01*
X558636Y489638D01*
X558624Y489652D01*
X558617Y489668D01*
X558549Y489734D01*
X558485Y489804D01*
X558469Y489812D01*
X558456Y489825D01*
X558370Y489863D01*
X558285Y489907D01*
X558266Y489910D01*
X558251Y489916D01*
X558201Y489919D01*
X558100Y489934D01*
X534100Y489934D01*
X534007Y489917D01*
X533913Y489906D01*
X533897Y489898D01*
X533879Y489895D01*
X533798Y489846D01*
X533713Y489803D01*
X533701Y489790D01*
X533686Y489780D01*
X533626Y489707D01*
X533563Y489637D01*
X533556Y489620D01*
X533545Y489606D01*
X533514Y489516D01*
X533479Y489429D01*
X533478Y489409D01*
X533473Y489394D01*
X533474Y489344D01*
X533468Y489241D01*
X533673Y487036D01*
X533685Y486992D01*
X533694Y486921D01*
X534300Y484792D01*
X534321Y484750D01*
X534343Y484682D01*
X535330Y482700D01*
X535357Y482663D01*
X535391Y482601D01*
X536726Y480833D01*
X536760Y480802D01*
X536805Y480747D01*
X538441Y479255D01*
X538481Y479230D01*
X538535Y479185D01*
X540417Y478019D01*
X540460Y478002D01*
X540522Y477967D01*
X542587Y477167D01*
X542633Y477158D01*
X542700Y477135D01*
X544876Y476728D01*
X544923Y476727D01*
X544993Y476717D01*
X547207Y476717D01*
X547253Y476725D01*
G37*
G36*
X661553Y476725D02*
X661553Y476725D01*
X661624Y476728D01*
X663800Y477135D01*
X663844Y477151D01*
X663913Y477167D01*
X665978Y477967D01*
X666018Y477991D01*
X666083Y478019D01*
X667965Y479185D01*
X668000Y479216D01*
X668059Y479255D01*
X669695Y480747D01*
X669724Y480784D01*
X669774Y480833D01*
X671109Y482601D01*
X671130Y482642D01*
X671170Y482700D01*
X672157Y484682D01*
X672170Y484727D01*
X672200Y484792D01*
X672806Y486921D01*
X672810Y486968D01*
X672827Y487036D01*
X673032Y489241D01*
X673023Y489336D01*
X673021Y489431D01*
X673014Y489447D01*
X673012Y489465D01*
X672972Y489551D01*
X672936Y489638D01*
X672924Y489652D01*
X672917Y489668D01*
X672849Y489734D01*
X672785Y489804D01*
X672769Y489812D01*
X672756Y489825D01*
X672670Y489863D01*
X672585Y489907D01*
X672566Y489910D01*
X672551Y489916D01*
X672501Y489919D01*
X672400Y489934D01*
X648400Y489934D01*
X648307Y489917D01*
X648213Y489906D01*
X648197Y489898D01*
X648179Y489895D01*
X648098Y489846D01*
X648013Y489803D01*
X648001Y489790D01*
X647986Y489780D01*
X647926Y489707D01*
X647863Y489637D01*
X647856Y489620D01*
X647845Y489606D01*
X647814Y489516D01*
X647779Y489429D01*
X647778Y489409D01*
X647773Y489394D01*
X647774Y489344D01*
X647768Y489241D01*
X647973Y487036D01*
X647985Y486992D01*
X647994Y486921D01*
X648600Y484792D01*
X648621Y484750D01*
X648643Y484682D01*
X649630Y482700D01*
X649657Y482663D01*
X649691Y482601D01*
X651026Y480833D01*
X651060Y480802D01*
X651105Y480747D01*
X652741Y479255D01*
X652780Y479230D01*
X652834Y479185D01*
X654717Y478019D01*
X654760Y478002D01*
X654822Y477967D01*
X656887Y477167D01*
X656932Y477158D01*
X656999Y477135D01*
X659176Y476728D01*
X659223Y476727D01*
X659293Y476717D01*
X661507Y476717D01*
X661553Y476725D01*
G37*
G36*
X1004453Y324325D02*
X1004453Y324325D01*
X1004524Y324328D01*
X1006701Y324735D01*
X1006744Y324751D01*
X1006813Y324767D01*
X1008878Y325567D01*
X1008918Y325591D01*
X1008983Y325619D01*
X1010866Y326785D01*
X1010900Y326816D01*
X1010959Y326855D01*
X1012595Y328347D01*
X1012624Y328384D01*
X1012674Y328433D01*
X1014009Y330201D01*
X1014030Y330242D01*
X1014070Y330300D01*
X1015057Y332282D01*
X1015070Y332327D01*
X1015100Y332392D01*
X1015706Y334521D01*
X1015710Y334568D01*
X1015727Y334636D01*
X1015932Y336841D01*
X1015923Y336936D01*
X1015921Y337031D01*
X1015914Y337047D01*
X1015912Y337065D01*
X1015872Y337151D01*
X1015836Y337238D01*
X1015824Y337252D01*
X1015817Y337268D01*
X1015749Y337334D01*
X1015685Y337404D01*
X1015669Y337412D01*
X1015656Y337425D01*
X1015570Y337463D01*
X1015485Y337507D01*
X1015466Y337510D01*
X1015451Y337516D01*
X1015401Y337519D01*
X1015300Y337534D01*
X991300Y337534D01*
X991207Y337517D01*
X991113Y337506D01*
X991097Y337498D01*
X991079Y337495D01*
X990998Y337446D01*
X990913Y337403D01*
X990901Y337390D01*
X990886Y337380D01*
X990826Y337307D01*
X990763Y337237D01*
X990756Y337220D01*
X990745Y337206D01*
X990714Y337116D01*
X990679Y337029D01*
X990678Y337009D01*
X990673Y336994D01*
X990674Y336944D01*
X990668Y336841D01*
X990873Y334636D01*
X990885Y334592D01*
X990894Y334521D01*
X991500Y332392D01*
X991521Y332350D01*
X991543Y332282D01*
X992530Y330300D01*
X992557Y330263D01*
X992591Y330201D01*
X993926Y328433D01*
X993960Y328402D01*
X994005Y328347D01*
X995641Y326855D01*
X995681Y326830D01*
X995735Y326785D01*
X997617Y325619D01*
X997660Y325602D01*
X997722Y325567D01*
X999787Y324767D01*
X999833Y324758D01*
X999900Y324735D01*
X1002076Y324328D01*
X1002123Y324327D01*
X1002193Y324317D01*
X1004407Y324317D01*
X1004453Y324325D01*
G37*
G36*
X890153Y324325D02*
X890153Y324325D01*
X890224Y324328D01*
X892401Y324735D01*
X892444Y324751D01*
X892513Y324767D01*
X894578Y325567D01*
X894618Y325591D01*
X894683Y325619D01*
X896566Y326785D01*
X896600Y326816D01*
X896659Y326855D01*
X898295Y328347D01*
X898324Y328384D01*
X898374Y328433D01*
X899709Y330201D01*
X899730Y330242D01*
X899770Y330300D01*
X900757Y332282D01*
X900770Y332327D01*
X900800Y332392D01*
X901406Y334521D01*
X901410Y334568D01*
X901427Y334636D01*
X901632Y336841D01*
X901623Y336936D01*
X901621Y337031D01*
X901614Y337047D01*
X901612Y337065D01*
X901572Y337151D01*
X901536Y337238D01*
X901524Y337252D01*
X901517Y337268D01*
X901449Y337334D01*
X901385Y337404D01*
X901369Y337412D01*
X901356Y337425D01*
X901270Y337463D01*
X901185Y337507D01*
X901166Y337510D01*
X901151Y337516D01*
X901101Y337519D01*
X901000Y337534D01*
X877000Y337534D01*
X876907Y337517D01*
X876813Y337506D01*
X876797Y337498D01*
X876779Y337495D01*
X876698Y337446D01*
X876613Y337403D01*
X876601Y337390D01*
X876586Y337380D01*
X876526Y337307D01*
X876463Y337237D01*
X876456Y337220D01*
X876445Y337206D01*
X876414Y337116D01*
X876379Y337029D01*
X876378Y337009D01*
X876373Y336994D01*
X876374Y336944D01*
X876368Y336841D01*
X876573Y334636D01*
X876585Y334592D01*
X876594Y334521D01*
X877200Y332392D01*
X877221Y332350D01*
X877243Y332282D01*
X878230Y330300D01*
X878257Y330263D01*
X878291Y330201D01*
X879626Y328433D01*
X879660Y328402D01*
X879705Y328347D01*
X881341Y326855D01*
X881381Y326830D01*
X881435Y326785D01*
X883317Y325619D01*
X883360Y325602D01*
X883422Y325567D01*
X885487Y324767D01*
X885533Y324758D01*
X885600Y324735D01*
X887776Y324328D01*
X887823Y324327D01*
X887893Y324317D01*
X890107Y324317D01*
X890153Y324325D01*
G37*
G36*
X775853Y324325D02*
X775853Y324325D01*
X775924Y324328D01*
X778101Y324735D01*
X778144Y324751D01*
X778213Y324767D01*
X780278Y325567D01*
X780318Y325591D01*
X780383Y325619D01*
X782266Y326785D01*
X782300Y326816D01*
X782359Y326855D01*
X783995Y328347D01*
X784024Y328384D01*
X784074Y328433D01*
X785409Y330201D01*
X785430Y330242D01*
X785470Y330300D01*
X786457Y332282D01*
X786470Y332327D01*
X786500Y332392D01*
X787106Y334521D01*
X787110Y334568D01*
X787127Y334636D01*
X787332Y336841D01*
X787323Y336936D01*
X787321Y337031D01*
X787314Y337047D01*
X787312Y337065D01*
X787272Y337151D01*
X787236Y337238D01*
X787224Y337252D01*
X787217Y337268D01*
X787149Y337334D01*
X787085Y337404D01*
X787069Y337412D01*
X787056Y337425D01*
X786970Y337463D01*
X786885Y337507D01*
X786866Y337510D01*
X786851Y337516D01*
X786801Y337519D01*
X786700Y337534D01*
X762700Y337534D01*
X762607Y337517D01*
X762513Y337506D01*
X762497Y337498D01*
X762479Y337495D01*
X762398Y337446D01*
X762313Y337403D01*
X762301Y337390D01*
X762286Y337380D01*
X762226Y337307D01*
X762163Y337237D01*
X762156Y337220D01*
X762145Y337206D01*
X762114Y337116D01*
X762079Y337029D01*
X762078Y337009D01*
X762073Y336994D01*
X762074Y336944D01*
X762068Y336841D01*
X762273Y334636D01*
X762285Y334592D01*
X762294Y334521D01*
X762900Y332392D01*
X762921Y332350D01*
X762943Y332282D01*
X763930Y330300D01*
X763957Y330263D01*
X763991Y330201D01*
X765326Y328433D01*
X765360Y328402D01*
X765405Y328347D01*
X767041Y326855D01*
X767081Y326830D01*
X767135Y326785D01*
X769017Y325619D01*
X769060Y325602D01*
X769122Y325567D01*
X771187Y324767D01*
X771233Y324758D01*
X771300Y324735D01*
X773476Y324328D01*
X773523Y324327D01*
X773593Y324317D01*
X775807Y324317D01*
X775853Y324325D01*
G37*
G36*
X661553Y324325D02*
X661553Y324325D01*
X661624Y324328D01*
X663801Y324735D01*
X663844Y324751D01*
X663913Y324767D01*
X665978Y325567D01*
X666018Y325591D01*
X666083Y325619D01*
X667966Y326785D01*
X668000Y326816D01*
X668059Y326855D01*
X669695Y328347D01*
X669724Y328384D01*
X669774Y328433D01*
X671109Y330201D01*
X671130Y330242D01*
X671170Y330300D01*
X672157Y332282D01*
X672170Y332327D01*
X672200Y332392D01*
X672806Y334521D01*
X672810Y334568D01*
X672827Y334636D01*
X673032Y336841D01*
X673023Y336936D01*
X673021Y337031D01*
X673014Y337047D01*
X673012Y337065D01*
X672972Y337151D01*
X672936Y337238D01*
X672924Y337252D01*
X672917Y337268D01*
X672849Y337334D01*
X672785Y337404D01*
X672769Y337412D01*
X672756Y337425D01*
X672670Y337463D01*
X672585Y337507D01*
X672566Y337510D01*
X672551Y337516D01*
X672501Y337519D01*
X672400Y337534D01*
X648400Y337534D01*
X648307Y337517D01*
X648213Y337506D01*
X648197Y337498D01*
X648179Y337495D01*
X648098Y337446D01*
X648013Y337403D01*
X648001Y337390D01*
X647986Y337380D01*
X647926Y337307D01*
X647863Y337237D01*
X647856Y337220D01*
X647845Y337206D01*
X647814Y337116D01*
X647779Y337029D01*
X647778Y337009D01*
X647773Y336994D01*
X647774Y336944D01*
X647768Y336841D01*
X647973Y334636D01*
X647985Y334592D01*
X647994Y334521D01*
X648600Y332392D01*
X648621Y332350D01*
X648643Y332282D01*
X649630Y330300D01*
X649657Y330263D01*
X649691Y330201D01*
X651026Y328433D01*
X651060Y328402D01*
X651105Y328347D01*
X652741Y326855D01*
X652781Y326830D01*
X652835Y326785D01*
X654717Y325619D01*
X654760Y325602D01*
X654822Y325567D01*
X656887Y324767D01*
X656933Y324758D01*
X657000Y324735D01*
X659176Y324328D01*
X659223Y324327D01*
X659293Y324317D01*
X661507Y324317D01*
X661553Y324325D01*
G37*
G36*
X547253Y324325D02*
X547253Y324325D01*
X547324Y324328D01*
X549501Y324735D01*
X549544Y324751D01*
X549613Y324767D01*
X551678Y325567D01*
X551718Y325591D01*
X551783Y325619D01*
X553666Y326785D01*
X553700Y326816D01*
X553759Y326855D01*
X555395Y328347D01*
X555424Y328384D01*
X555474Y328433D01*
X556809Y330201D01*
X556830Y330242D01*
X556870Y330300D01*
X557857Y332282D01*
X557870Y332327D01*
X557900Y332392D01*
X558506Y334521D01*
X558510Y334568D01*
X558527Y334636D01*
X558732Y336841D01*
X558723Y336936D01*
X558721Y337031D01*
X558714Y337047D01*
X558712Y337065D01*
X558672Y337151D01*
X558636Y337238D01*
X558624Y337252D01*
X558617Y337268D01*
X558549Y337334D01*
X558485Y337404D01*
X558469Y337412D01*
X558456Y337425D01*
X558370Y337463D01*
X558285Y337507D01*
X558266Y337510D01*
X558251Y337516D01*
X558201Y337519D01*
X558100Y337534D01*
X534100Y337534D01*
X534007Y337517D01*
X533913Y337506D01*
X533897Y337498D01*
X533879Y337495D01*
X533798Y337446D01*
X533713Y337403D01*
X533701Y337390D01*
X533686Y337380D01*
X533626Y337307D01*
X533563Y337237D01*
X533556Y337220D01*
X533545Y337206D01*
X533514Y337116D01*
X533479Y337029D01*
X533478Y337009D01*
X533473Y336994D01*
X533474Y336944D01*
X533468Y336841D01*
X533673Y334636D01*
X533685Y334592D01*
X533694Y334521D01*
X534300Y332392D01*
X534321Y332350D01*
X534343Y332282D01*
X535330Y330300D01*
X535357Y330263D01*
X535391Y330201D01*
X536726Y328433D01*
X536760Y328402D01*
X536805Y328347D01*
X538441Y326855D01*
X538481Y326830D01*
X538535Y326785D01*
X540417Y325619D01*
X540460Y325602D01*
X540522Y325567D01*
X542587Y324767D01*
X542633Y324758D01*
X542700Y324735D01*
X544876Y324328D01*
X544923Y324327D01*
X544993Y324317D01*
X547207Y324317D01*
X547253Y324325D01*
G37*
G36*
X432953Y324325D02*
X432953Y324325D01*
X433024Y324328D01*
X435201Y324735D01*
X435244Y324751D01*
X435313Y324767D01*
X437378Y325567D01*
X437418Y325591D01*
X437483Y325619D01*
X439366Y326785D01*
X439400Y326816D01*
X439459Y326855D01*
X441095Y328347D01*
X441124Y328384D01*
X441174Y328433D01*
X442509Y330201D01*
X442530Y330242D01*
X442570Y330300D01*
X443557Y332282D01*
X443570Y332327D01*
X443600Y332392D01*
X444206Y334521D01*
X444210Y334568D01*
X444227Y334636D01*
X444432Y336841D01*
X444423Y336936D01*
X444421Y337031D01*
X444414Y337047D01*
X444412Y337065D01*
X444372Y337151D01*
X444336Y337238D01*
X444324Y337252D01*
X444317Y337268D01*
X444249Y337334D01*
X444185Y337404D01*
X444169Y337412D01*
X444156Y337425D01*
X444070Y337463D01*
X443985Y337507D01*
X443966Y337510D01*
X443951Y337516D01*
X443901Y337519D01*
X443800Y337534D01*
X419800Y337534D01*
X419707Y337517D01*
X419613Y337506D01*
X419597Y337498D01*
X419579Y337495D01*
X419498Y337446D01*
X419413Y337403D01*
X419401Y337390D01*
X419386Y337380D01*
X419326Y337307D01*
X419263Y337237D01*
X419256Y337220D01*
X419245Y337206D01*
X419214Y337116D01*
X419179Y337029D01*
X419178Y337009D01*
X419173Y336994D01*
X419174Y336944D01*
X419168Y336841D01*
X419373Y334636D01*
X419385Y334592D01*
X419394Y334521D01*
X420000Y332392D01*
X420021Y332350D01*
X420043Y332282D01*
X421030Y330300D01*
X421057Y330263D01*
X421091Y330201D01*
X422426Y328433D01*
X422460Y328402D01*
X422505Y328347D01*
X424141Y326855D01*
X424181Y326830D01*
X424235Y326785D01*
X426117Y325619D01*
X426160Y325602D01*
X426222Y325567D01*
X428287Y324767D01*
X428333Y324758D01*
X428400Y324735D01*
X430576Y324328D01*
X430623Y324327D01*
X430693Y324317D01*
X432907Y324317D01*
X432953Y324325D01*
G37*
G36*
X318653Y324325D02*
X318653Y324325D01*
X318724Y324328D01*
X320901Y324735D01*
X320944Y324751D01*
X321013Y324767D01*
X323078Y325567D01*
X323118Y325591D01*
X323183Y325619D01*
X325066Y326785D01*
X325100Y326816D01*
X325159Y326855D01*
X326795Y328347D01*
X326824Y328384D01*
X326874Y328433D01*
X328209Y330201D01*
X328230Y330242D01*
X328270Y330300D01*
X329257Y332282D01*
X329270Y332327D01*
X329300Y332392D01*
X329906Y334521D01*
X329910Y334568D01*
X329927Y334636D01*
X330132Y336841D01*
X330123Y336936D01*
X330121Y337031D01*
X330114Y337047D01*
X330112Y337065D01*
X330072Y337151D01*
X330036Y337238D01*
X330024Y337252D01*
X330017Y337268D01*
X329949Y337334D01*
X329885Y337404D01*
X329869Y337412D01*
X329856Y337425D01*
X329770Y337463D01*
X329685Y337507D01*
X329666Y337510D01*
X329651Y337516D01*
X329601Y337519D01*
X329500Y337534D01*
X305500Y337534D01*
X305407Y337517D01*
X305313Y337506D01*
X305297Y337498D01*
X305279Y337495D01*
X305198Y337446D01*
X305113Y337403D01*
X305101Y337390D01*
X305086Y337380D01*
X305026Y337307D01*
X304963Y337237D01*
X304956Y337220D01*
X304945Y337206D01*
X304914Y337116D01*
X304879Y337029D01*
X304878Y337009D01*
X304873Y336994D01*
X304874Y336944D01*
X304868Y336841D01*
X305073Y334636D01*
X305085Y334592D01*
X305094Y334521D01*
X305700Y332392D01*
X305721Y332350D01*
X305743Y332282D01*
X306730Y330300D01*
X306757Y330263D01*
X306791Y330201D01*
X308126Y328433D01*
X308160Y328402D01*
X308205Y328347D01*
X309841Y326855D01*
X309881Y326830D01*
X309935Y326785D01*
X311817Y325619D01*
X311860Y325602D01*
X311922Y325567D01*
X313987Y324767D01*
X314033Y324758D01*
X314100Y324735D01*
X316276Y324328D01*
X316323Y324327D01*
X316393Y324317D01*
X318607Y324317D01*
X318653Y324325D01*
G37*
G36*
X204353Y324325D02*
X204353Y324325D01*
X204424Y324328D01*
X206601Y324735D01*
X206644Y324751D01*
X206713Y324767D01*
X208778Y325567D01*
X208818Y325591D01*
X208883Y325619D01*
X210766Y326785D01*
X210800Y326816D01*
X210859Y326855D01*
X212495Y328347D01*
X212524Y328384D01*
X212574Y328433D01*
X213909Y330201D01*
X213930Y330242D01*
X213970Y330300D01*
X214957Y332282D01*
X214970Y332327D01*
X215000Y332392D01*
X215606Y334521D01*
X215610Y334568D01*
X215627Y334636D01*
X215832Y336841D01*
X215823Y336936D01*
X215821Y337031D01*
X215814Y337047D01*
X215812Y337065D01*
X215772Y337151D01*
X215736Y337238D01*
X215724Y337252D01*
X215717Y337268D01*
X215649Y337334D01*
X215585Y337404D01*
X215569Y337412D01*
X215556Y337425D01*
X215470Y337463D01*
X215385Y337507D01*
X215366Y337510D01*
X215351Y337516D01*
X215301Y337519D01*
X215200Y337534D01*
X191200Y337534D01*
X191107Y337517D01*
X191013Y337506D01*
X190997Y337498D01*
X190979Y337495D01*
X190898Y337446D01*
X190813Y337403D01*
X190801Y337390D01*
X190786Y337380D01*
X190726Y337307D01*
X190663Y337237D01*
X190656Y337220D01*
X190645Y337206D01*
X190614Y337116D01*
X190579Y337029D01*
X190578Y337009D01*
X190573Y336994D01*
X190574Y336944D01*
X190568Y336841D01*
X190773Y334636D01*
X190785Y334592D01*
X190794Y334521D01*
X191400Y332392D01*
X191421Y332350D01*
X191443Y332282D01*
X192430Y330300D01*
X192457Y330263D01*
X192491Y330201D01*
X193826Y328433D01*
X193860Y328402D01*
X193905Y328347D01*
X195541Y326855D01*
X195581Y326830D01*
X195635Y326785D01*
X197517Y325619D01*
X197560Y325602D01*
X197622Y325567D01*
X199687Y324767D01*
X199733Y324758D01*
X199800Y324735D01*
X201976Y324328D01*
X202023Y324327D01*
X202093Y324317D01*
X204307Y324317D01*
X204353Y324325D01*
G37*
D10*
X203200Y522800D03*
X203200Y467800D03*
X203000Y495300D03*
D11*
X203200Y478550D03*
X203200Y512050D03*
D10*
X203200Y446600D03*
X203200Y391600D03*
X203000Y419100D03*
D11*
X203200Y402350D03*
X203200Y435850D03*
D10*
X203200Y370400D03*
X203200Y315400D03*
X203000Y342900D03*
D11*
X203200Y326150D03*
X203200Y359650D03*
D10*
X203200Y254000D03*
X317500Y522800D03*
X317500Y467800D03*
X317300Y495300D03*
D11*
X317500Y478550D03*
X317500Y512050D03*
D10*
X317500Y446600D03*
X317500Y391600D03*
X317300Y419100D03*
D11*
X317500Y402350D03*
X317500Y435850D03*
D10*
X317500Y370400D03*
X317500Y315400D03*
X317300Y342900D03*
D11*
X317500Y326150D03*
X317500Y359650D03*
D10*
X317500Y254000D03*
X431800Y522800D03*
X431800Y467800D03*
X431600Y495300D03*
D11*
X431800Y478550D03*
X431800Y512050D03*
D10*
X431800Y446600D03*
X431800Y391600D03*
X431600Y419100D03*
D11*
X431800Y402350D03*
X431800Y435850D03*
D10*
X431800Y370400D03*
X431800Y315400D03*
X431600Y342900D03*
D11*
X431800Y326150D03*
X431800Y359650D03*
D10*
X431800Y254000D03*
X546100Y522800D03*
X546100Y467800D03*
X545900Y495300D03*
D11*
X546100Y478550D03*
X546100Y512050D03*
D10*
X546100Y446600D03*
X546100Y391600D03*
X545900Y419100D03*
D11*
X546100Y402350D03*
X546100Y435850D03*
D10*
X546100Y370400D03*
X546100Y315400D03*
X545900Y342900D03*
D11*
X546100Y326150D03*
X546100Y359650D03*
D10*
X546100Y254000D03*
X660400Y522800D03*
X660400Y467800D03*
X660200Y495300D03*
D11*
X660400Y478550D03*
X660400Y512050D03*
D10*
X660400Y446600D03*
X660400Y391600D03*
X660200Y419100D03*
D11*
X660400Y402350D03*
X660400Y435850D03*
D10*
X660400Y370400D03*
X660400Y315400D03*
X660200Y342900D03*
D11*
X660400Y326150D03*
X660400Y359650D03*
D10*
X660400Y254000D03*
X774700Y522800D03*
X774700Y467800D03*
X774500Y495300D03*
D11*
X774700Y478550D03*
X774700Y512050D03*
D10*
X774700Y446600D03*
X774700Y391600D03*
X774500Y419100D03*
D11*
X774700Y402350D03*
X774700Y435850D03*
D10*
X774700Y370400D03*
X774700Y315400D03*
X774500Y342900D03*
D11*
X774700Y326150D03*
X774700Y359650D03*
D10*
X774700Y254000D03*
X889000Y522800D03*
X889000Y467800D03*
X888800Y495300D03*
D11*
X889000Y478550D03*
X889000Y512050D03*
D10*
X889000Y446600D03*
X889000Y391600D03*
X888800Y419100D03*
D11*
X889000Y402350D03*
X889000Y435850D03*
D10*
X889000Y370400D03*
X889000Y315400D03*
X888800Y342900D03*
D11*
X889000Y326150D03*
X889000Y359650D03*
D10*
X889000Y254000D03*
X1003300Y522800D03*
X1003300Y467800D03*
X1003100Y495300D03*
D11*
X1003300Y478550D03*
X1003300Y512050D03*
D10*
X1003300Y446600D03*
X1003300Y391600D03*
X1003100Y419100D03*
D11*
X1003300Y402350D03*
X1003300Y435850D03*
D10*
X1003300Y370400D03*
X1003300Y315400D03*
X1003100Y342900D03*
D11*
X1003300Y326150D03*
X1003300Y359650D03*
D10*
X1003300Y254000D03*
X603377Y609600D03*
X101600Y533400D03*
X101600Y419100D03*
X101600Y304800D03*
D12*
X203200Y446600D02*
X203200Y467800D01*
X203200Y391600D02*
X203200Y370400D01*
X203200Y315400D02*
X203200Y254000D01*
X317500Y446600D02*
X317500Y467800D01*
X317500Y391600D02*
X317500Y370400D01*
X317500Y315400D02*
X317500Y254000D01*
X431800Y446600D02*
X431800Y467800D01*
X431800Y391600D02*
X431800Y370400D01*
X431800Y315400D02*
X431800Y254000D01*
X546100Y446600D02*
X546100Y467800D01*
X546100Y391600D02*
X546100Y370400D01*
X546100Y315400D02*
X546100Y254000D01*
X660400Y446600D02*
X660400Y467800D01*
X660400Y446600D02*
X660400Y446600D01*
X660400Y391600D02*
X660400Y370400D01*
X660400Y315400D02*
X660400Y254000D01*
X774700Y446600D02*
X774700Y467800D01*
X774700Y391600D02*
X774700Y370400D01*
X774700Y315400D02*
X774700Y254000D01*
X889000Y446600D02*
X889000Y467800D01*
X889000Y391600D02*
X889000Y370400D01*
X889000Y315400D02*
X889000Y254000D01*
X1003300Y446600D02*
X1003300Y467800D01*
X1003300Y391600D02*
X1003300Y370400D01*
X1003300Y315400D02*
X1003300Y254000D01*
X203200Y522800D02*
X203200Y546100D01*
X215900Y558800D01*
X330200Y558800D01*
X444500Y558800D01*
X558800Y558800D01*
X596900Y558800D01*
X609600Y558800D01*
X647700Y558800D01*
X762000Y558800D01*
X876300Y558800D01*
X990600Y558800D01*
X1003300Y546100D01*
X1003300Y522800D01*
X889000Y522800D02*
X889000Y546100D01*
X876300Y558800D01*
X774700Y546100D02*
X774700Y522800D01*
X774700Y546100D02*
X762000Y558800D01*
X660400Y546100D02*
X660400Y522800D01*
X660400Y546100D02*
X660400Y546100D01*
X647700Y558800D01*
X546100Y546100D02*
X546100Y522800D01*
X546100Y546100D02*
X558800Y558800D01*
X431800Y546100D02*
X431800Y522800D01*
X431800Y546100D02*
X444500Y558800D01*
X317500Y546100D02*
X317500Y522800D01*
X317500Y546100D02*
X330200Y558800D01*
X603377Y565277D02*
X603377Y609600D01*
X603377Y565277D02*
X596900Y558800D01*
X603377Y565023D02*
X609600Y558800D01*
X603377Y565023D02*
X603377Y609600D01*
M02*
