G04 EAGLE Gerber RS-274X export*
G75*
%MOMM*%
%FSLAX34Y34*%
%LPD*%
%INTop Copper*%
%IPPOS*%
%AMOC8*
5,1,8,0,0,1.08239X$1,22.5*%
G01*
%ADD10C,0.000241*%
%ADD11C,0.127000*%


D10*
X203200Y522800D03*
X203200Y467800D03*
X203000Y495300D03*
X203200Y446600D03*
X203200Y391600D03*
X203000Y419100D03*
X203200Y370400D03*
X203200Y315400D03*
X203000Y342900D03*
D11*
X202946Y274320D02*
X202439Y274310D01*
X201932Y274289D01*
X201426Y274254D01*
X200921Y274208D01*
X200418Y274149D01*
X199916Y274078D01*
X199416Y273994D01*
X198918Y273899D01*
X198422Y273791D01*
X197929Y273671D01*
X197440Y273539D01*
X196953Y273395D01*
X196471Y273239D01*
X195992Y273071D01*
X195518Y272892D01*
X195048Y272701D01*
X194583Y272499D01*
X194123Y272285D01*
X193669Y272061D01*
X193220Y271825D01*
X192777Y271578D01*
X192340Y271320D01*
X191910Y271052D01*
X191486Y270774D01*
X191069Y270485D01*
X190660Y270186D01*
X190258Y269877D01*
X189863Y269558D01*
X189477Y269229D01*
X189098Y268892D01*
X188729Y268545D01*
X188367Y268189D01*
X188015Y267824D01*
X187671Y267451D01*
X187337Y267070D01*
X187012Y266681D01*
X186697Y266283D01*
X186392Y265878D01*
X186097Y265466D01*
X185812Y265047D01*
X185537Y264620D01*
X185273Y264188D01*
X185019Y263749D01*
X184776Y263303D01*
X184545Y262852D01*
X184324Y262396D01*
X184115Y261934D01*
X183917Y261467D01*
X183730Y260995D01*
X183555Y260519D01*
X183392Y260039D01*
X183241Y259555D01*
X183101Y259068D01*
X182974Y258577D01*
X182858Y258083D01*
X182755Y257587D01*
X182664Y257088D01*
X182585Y256587D01*
X182518Y256084D01*
X182464Y255580D01*
X182422Y255075D01*
X182393Y254568D01*
X182376Y254062D01*
X182371Y253555D01*
X182379Y253047D01*
X182399Y252541D01*
X182432Y252035D01*
X182477Y251530D01*
X182534Y251026D01*
X182604Y250523D01*
X182686Y250023D01*
X182780Y249525D01*
X182886Y249029D01*
X183004Y248536D01*
X183135Y248046D01*
X183277Y247559D01*
X183432Y247076D01*
X183598Y246597D01*
X183776Y246122D01*
X183965Y245652D01*
X184166Y245186D01*
X184378Y244726D01*
X184602Y244270D01*
X184836Y243821D01*
X185082Y243377D01*
X185338Y242939D01*
X185605Y242508D01*
X185882Y242084D01*
X186170Y241666D01*
X186467Y241256D01*
X186775Y240853D01*
X187093Y240457D01*
X187420Y240070D01*
X187757Y239690D01*
X188102Y239319D01*
X188457Y238957D01*
X188820Y238603D01*
X189192Y238259D01*
X189573Y237923D01*
X189961Y237598D01*
X190358Y237281D01*
X190762Y236975D01*
X191173Y236678D01*
X191591Y236392D01*
X192017Y236116D01*
X192449Y235850D01*
X192887Y235595D01*
X193332Y235351D01*
X193782Y235118D01*
X194238Y234896D01*
X194699Y234685D01*
X195165Y234486D01*
X195636Y234298D01*
X196112Y234121D01*
X196591Y233957D01*
X197075Y233804D01*
X197562Y233663D01*
X198052Y233534D01*
X198546Y233417D01*
X199042Y233312D01*
X199541Y233220D01*
X200041Y233139D01*
X200544Y233071D01*
X201048Y233015D01*
X201553Y232972D01*
X202059Y232941D01*
X202566Y232922D01*
X203073Y232916D01*
X203580Y232922D01*
X204087Y232941D01*
X204593Y232972D01*
X205098Y233015D01*
X205602Y233071D01*
X206105Y233139D01*
X206605Y233220D01*
X207104Y233312D01*
X207600Y233417D01*
X208094Y233534D01*
X208584Y233663D01*
X209071Y233804D01*
X209555Y233957D01*
X210034Y234121D01*
X210510Y234298D01*
X210981Y234486D01*
X211447Y234685D01*
X211908Y234896D01*
X212364Y235118D01*
X212814Y235351D01*
X213259Y235595D01*
X213697Y235850D01*
X214129Y236116D01*
X214555Y236392D01*
X214973Y236678D01*
X215384Y236975D01*
X215788Y237281D01*
X216185Y237598D01*
X216573Y237923D01*
X216954Y238259D01*
X217326Y238603D01*
X217689Y238957D01*
X218044Y239319D01*
X218389Y239690D01*
X218726Y240070D01*
X219053Y240457D01*
X219371Y240853D01*
X219679Y241256D01*
X219976Y241666D01*
X220264Y242084D01*
X220541Y242508D01*
X220808Y242939D01*
X221064Y243377D01*
X221310Y243821D01*
X221544Y244270D01*
X221768Y244726D01*
X221980Y245186D01*
X222181Y245652D01*
X222370Y246122D01*
X222548Y246597D01*
X222714Y247076D01*
X222869Y247559D01*
X223011Y248046D01*
X223142Y248536D01*
X223260Y249029D01*
X223366Y249525D01*
X223460Y250023D01*
X223542Y250523D01*
X223612Y251026D01*
X223669Y251530D01*
X223714Y252035D01*
X223747Y252541D01*
X223767Y253047D01*
X223775Y253555D01*
X223770Y254062D01*
X223753Y254568D01*
X223724Y255075D01*
X223682Y255580D01*
X223628Y256084D01*
X223561Y256587D01*
X223482Y257088D01*
X223391Y257587D01*
X223288Y258083D01*
X223172Y258577D01*
X223045Y259068D01*
X222905Y259555D01*
X222754Y260039D01*
X222591Y260519D01*
X222416Y260995D01*
X222229Y261467D01*
X222031Y261934D01*
X221822Y262396D01*
X221601Y262852D01*
X221370Y263303D01*
X221127Y263749D01*
X220873Y264188D01*
X220609Y264620D01*
X220334Y265047D01*
X220049Y265466D01*
X219754Y265878D01*
X219449Y266283D01*
X219134Y266681D01*
X218809Y267070D01*
X218475Y267451D01*
X218131Y267824D01*
X217779Y268189D01*
X217417Y268545D01*
X217048Y268892D01*
X216669Y269229D01*
X216283Y269558D01*
X215888Y269877D01*
X215486Y270186D01*
X215077Y270485D01*
X214660Y270774D01*
X214236Y271052D01*
X213806Y271320D01*
X213369Y271578D01*
X212926Y271825D01*
X212477Y272061D01*
X212023Y272285D01*
X211563Y272499D01*
X211098Y272701D01*
X210628Y272892D01*
X210154Y273071D01*
X209675Y273239D01*
X209193Y273395D01*
X208706Y273539D01*
X208217Y273671D01*
X207724Y273791D01*
X207228Y273899D01*
X206730Y273994D01*
X206230Y274078D01*
X205728Y274149D01*
X205225Y274208D01*
X204720Y274254D01*
X204214Y274289D01*
X203707Y274310D01*
X203200Y274320D01*
D10*
X203200Y254000D03*
X317500Y522800D03*
X317500Y467800D03*
X317300Y495300D03*
X317500Y446600D03*
X317500Y391600D03*
X317300Y419100D03*
X317500Y370400D03*
X317500Y315400D03*
X317300Y342900D03*
D11*
X317246Y274320D02*
X316739Y274310D01*
X316232Y274289D01*
X315726Y274254D01*
X315221Y274208D01*
X314718Y274149D01*
X314216Y274078D01*
X313716Y273994D01*
X313218Y273899D01*
X312722Y273791D01*
X312229Y273671D01*
X311740Y273539D01*
X311253Y273395D01*
X310771Y273239D01*
X310292Y273071D01*
X309818Y272892D01*
X309348Y272701D01*
X308883Y272499D01*
X308423Y272285D01*
X307969Y272061D01*
X307520Y271825D01*
X307077Y271578D01*
X306640Y271320D01*
X306210Y271052D01*
X305786Y270774D01*
X305369Y270485D01*
X304960Y270186D01*
X304558Y269877D01*
X304163Y269558D01*
X303777Y269229D01*
X303398Y268892D01*
X303029Y268545D01*
X302667Y268189D01*
X302315Y267824D01*
X301971Y267451D01*
X301637Y267070D01*
X301312Y266681D01*
X300997Y266283D01*
X300692Y265878D01*
X300397Y265466D01*
X300112Y265047D01*
X299837Y264620D01*
X299573Y264188D01*
X299319Y263749D01*
X299076Y263303D01*
X298845Y262852D01*
X298624Y262396D01*
X298415Y261934D01*
X298217Y261467D01*
X298030Y260995D01*
X297855Y260519D01*
X297692Y260039D01*
X297541Y259555D01*
X297401Y259068D01*
X297274Y258577D01*
X297158Y258083D01*
X297055Y257587D01*
X296964Y257088D01*
X296885Y256587D01*
X296818Y256084D01*
X296764Y255580D01*
X296722Y255075D01*
X296693Y254568D01*
X296676Y254062D01*
X296671Y253555D01*
X296679Y253047D01*
X296699Y252541D01*
X296732Y252035D01*
X296777Y251530D01*
X296834Y251026D01*
X296904Y250523D01*
X296986Y250023D01*
X297080Y249525D01*
X297186Y249029D01*
X297304Y248536D01*
X297435Y248046D01*
X297577Y247559D01*
X297732Y247076D01*
X297898Y246597D01*
X298076Y246122D01*
X298265Y245652D01*
X298466Y245186D01*
X298678Y244726D01*
X298902Y244270D01*
X299136Y243821D01*
X299382Y243377D01*
X299638Y242939D01*
X299905Y242508D01*
X300182Y242084D01*
X300470Y241666D01*
X300767Y241256D01*
X301075Y240853D01*
X301393Y240457D01*
X301720Y240070D01*
X302057Y239690D01*
X302402Y239319D01*
X302757Y238957D01*
X303120Y238603D01*
X303492Y238259D01*
X303873Y237923D01*
X304261Y237598D01*
X304658Y237281D01*
X305062Y236975D01*
X305473Y236678D01*
X305891Y236392D01*
X306317Y236116D01*
X306749Y235850D01*
X307187Y235595D01*
X307632Y235351D01*
X308082Y235118D01*
X308538Y234896D01*
X308999Y234685D01*
X309465Y234486D01*
X309936Y234298D01*
X310412Y234121D01*
X310891Y233957D01*
X311375Y233804D01*
X311862Y233663D01*
X312352Y233534D01*
X312846Y233417D01*
X313342Y233312D01*
X313841Y233220D01*
X314341Y233139D01*
X314844Y233071D01*
X315348Y233015D01*
X315853Y232972D01*
X316359Y232941D01*
X316866Y232922D01*
X317373Y232916D01*
X317880Y232922D01*
X318387Y232941D01*
X318893Y232972D01*
X319398Y233015D01*
X319902Y233071D01*
X320405Y233139D01*
X320905Y233220D01*
X321404Y233312D01*
X321900Y233417D01*
X322394Y233534D01*
X322884Y233663D01*
X323371Y233804D01*
X323855Y233957D01*
X324334Y234121D01*
X324810Y234298D01*
X325281Y234486D01*
X325747Y234685D01*
X326208Y234896D01*
X326664Y235118D01*
X327114Y235351D01*
X327559Y235595D01*
X327997Y235850D01*
X328429Y236116D01*
X328855Y236392D01*
X329273Y236678D01*
X329684Y236975D01*
X330088Y237281D01*
X330485Y237598D01*
X330873Y237923D01*
X331254Y238259D01*
X331626Y238603D01*
X331989Y238957D01*
X332344Y239319D01*
X332689Y239690D01*
X333026Y240070D01*
X333353Y240457D01*
X333671Y240853D01*
X333979Y241256D01*
X334276Y241666D01*
X334564Y242084D01*
X334841Y242508D01*
X335108Y242939D01*
X335364Y243377D01*
X335610Y243821D01*
X335844Y244270D01*
X336068Y244726D01*
X336280Y245186D01*
X336481Y245652D01*
X336670Y246122D01*
X336848Y246597D01*
X337014Y247076D01*
X337169Y247559D01*
X337311Y248046D01*
X337442Y248536D01*
X337560Y249029D01*
X337666Y249525D01*
X337760Y250023D01*
X337842Y250523D01*
X337912Y251026D01*
X337969Y251530D01*
X338014Y252035D01*
X338047Y252541D01*
X338067Y253047D01*
X338075Y253555D01*
X338070Y254062D01*
X338053Y254568D01*
X338024Y255075D01*
X337982Y255580D01*
X337928Y256084D01*
X337861Y256587D01*
X337782Y257088D01*
X337691Y257587D01*
X337588Y258083D01*
X337472Y258577D01*
X337345Y259068D01*
X337205Y259555D01*
X337054Y260039D01*
X336891Y260519D01*
X336716Y260995D01*
X336529Y261467D01*
X336331Y261934D01*
X336122Y262396D01*
X335901Y262852D01*
X335670Y263303D01*
X335427Y263749D01*
X335173Y264188D01*
X334909Y264620D01*
X334634Y265047D01*
X334349Y265466D01*
X334054Y265878D01*
X333749Y266283D01*
X333434Y266681D01*
X333109Y267070D01*
X332775Y267451D01*
X332431Y267824D01*
X332079Y268189D01*
X331717Y268545D01*
X331348Y268892D01*
X330969Y269229D01*
X330583Y269558D01*
X330188Y269877D01*
X329786Y270186D01*
X329377Y270485D01*
X328960Y270774D01*
X328536Y271052D01*
X328106Y271320D01*
X327669Y271578D01*
X327226Y271825D01*
X326777Y272061D01*
X326323Y272285D01*
X325863Y272499D01*
X325398Y272701D01*
X324928Y272892D01*
X324454Y273071D01*
X323975Y273239D01*
X323493Y273395D01*
X323006Y273539D01*
X322517Y273671D01*
X322024Y273791D01*
X321528Y273899D01*
X321030Y273994D01*
X320530Y274078D01*
X320028Y274149D01*
X319525Y274208D01*
X319020Y274254D01*
X318514Y274289D01*
X318007Y274310D01*
X317500Y274320D01*
D10*
X317500Y254000D03*
X431800Y522800D03*
X431800Y467800D03*
X431600Y495300D03*
X431800Y446600D03*
X431800Y391600D03*
X431600Y419100D03*
X431800Y370400D03*
X431800Y315400D03*
X431600Y342900D03*
D11*
X431546Y274320D02*
X431039Y274310D01*
X430532Y274289D01*
X430026Y274254D01*
X429521Y274208D01*
X429018Y274149D01*
X428516Y274078D01*
X428016Y273994D01*
X427518Y273899D01*
X427022Y273791D01*
X426529Y273671D01*
X426040Y273539D01*
X425553Y273395D01*
X425071Y273239D01*
X424592Y273071D01*
X424118Y272892D01*
X423648Y272701D01*
X423183Y272499D01*
X422723Y272285D01*
X422269Y272061D01*
X421820Y271825D01*
X421377Y271578D01*
X420940Y271320D01*
X420510Y271052D01*
X420086Y270774D01*
X419669Y270485D01*
X419260Y270186D01*
X418858Y269877D01*
X418463Y269558D01*
X418077Y269229D01*
X417698Y268892D01*
X417329Y268545D01*
X416967Y268189D01*
X416615Y267824D01*
X416271Y267451D01*
X415937Y267070D01*
X415612Y266681D01*
X415297Y266283D01*
X414992Y265878D01*
X414697Y265466D01*
X414412Y265047D01*
X414137Y264620D01*
X413873Y264188D01*
X413619Y263749D01*
X413376Y263303D01*
X413145Y262852D01*
X412924Y262396D01*
X412715Y261934D01*
X412517Y261467D01*
X412330Y260995D01*
X412155Y260519D01*
X411992Y260039D01*
X411841Y259555D01*
X411701Y259068D01*
X411574Y258577D01*
X411458Y258083D01*
X411355Y257587D01*
X411264Y257088D01*
X411185Y256587D01*
X411118Y256084D01*
X411064Y255580D01*
X411022Y255075D01*
X410993Y254568D01*
X410976Y254062D01*
X410971Y253555D01*
X410979Y253047D01*
X410999Y252541D01*
X411032Y252035D01*
X411077Y251530D01*
X411134Y251026D01*
X411204Y250523D01*
X411286Y250023D01*
X411380Y249525D01*
X411486Y249029D01*
X411604Y248536D01*
X411735Y248046D01*
X411877Y247559D01*
X412032Y247076D01*
X412198Y246597D01*
X412376Y246122D01*
X412565Y245652D01*
X412766Y245186D01*
X412978Y244726D01*
X413202Y244270D01*
X413436Y243821D01*
X413682Y243377D01*
X413938Y242939D01*
X414205Y242508D01*
X414482Y242084D01*
X414770Y241666D01*
X415067Y241256D01*
X415375Y240853D01*
X415693Y240457D01*
X416020Y240070D01*
X416357Y239690D01*
X416702Y239319D01*
X417057Y238957D01*
X417420Y238603D01*
X417792Y238259D01*
X418173Y237923D01*
X418561Y237598D01*
X418958Y237281D01*
X419362Y236975D01*
X419773Y236678D01*
X420191Y236392D01*
X420617Y236116D01*
X421049Y235850D01*
X421487Y235595D01*
X421932Y235351D01*
X422382Y235118D01*
X422838Y234896D01*
X423299Y234685D01*
X423765Y234486D01*
X424236Y234298D01*
X424712Y234121D01*
X425191Y233957D01*
X425675Y233804D01*
X426162Y233663D01*
X426652Y233534D01*
X427146Y233417D01*
X427642Y233312D01*
X428141Y233220D01*
X428641Y233139D01*
X429144Y233071D01*
X429648Y233015D01*
X430153Y232972D01*
X430659Y232941D01*
X431166Y232922D01*
X431673Y232916D01*
X432180Y232922D01*
X432687Y232941D01*
X433193Y232972D01*
X433698Y233015D01*
X434202Y233071D01*
X434705Y233139D01*
X435205Y233220D01*
X435704Y233312D01*
X436200Y233417D01*
X436694Y233534D01*
X437184Y233663D01*
X437671Y233804D01*
X438155Y233957D01*
X438634Y234121D01*
X439110Y234298D01*
X439581Y234486D01*
X440047Y234685D01*
X440508Y234896D01*
X440964Y235118D01*
X441414Y235351D01*
X441859Y235595D01*
X442297Y235850D01*
X442729Y236116D01*
X443155Y236392D01*
X443573Y236678D01*
X443984Y236975D01*
X444388Y237281D01*
X444785Y237598D01*
X445173Y237923D01*
X445554Y238259D01*
X445926Y238603D01*
X446289Y238957D01*
X446644Y239319D01*
X446989Y239690D01*
X447326Y240070D01*
X447653Y240457D01*
X447971Y240853D01*
X448279Y241256D01*
X448576Y241666D01*
X448864Y242084D01*
X449141Y242508D01*
X449408Y242939D01*
X449664Y243377D01*
X449910Y243821D01*
X450144Y244270D01*
X450368Y244726D01*
X450580Y245186D01*
X450781Y245652D01*
X450970Y246122D01*
X451148Y246597D01*
X451314Y247076D01*
X451469Y247559D01*
X451611Y248046D01*
X451742Y248536D01*
X451860Y249029D01*
X451966Y249525D01*
X452060Y250023D01*
X452142Y250523D01*
X452212Y251026D01*
X452269Y251530D01*
X452314Y252035D01*
X452347Y252541D01*
X452367Y253047D01*
X452375Y253555D01*
X452370Y254062D01*
X452353Y254568D01*
X452324Y255075D01*
X452282Y255580D01*
X452228Y256084D01*
X452161Y256587D01*
X452082Y257088D01*
X451991Y257587D01*
X451888Y258083D01*
X451772Y258577D01*
X451645Y259068D01*
X451505Y259555D01*
X451354Y260039D01*
X451191Y260519D01*
X451016Y260995D01*
X450829Y261467D01*
X450631Y261934D01*
X450422Y262396D01*
X450201Y262852D01*
X449970Y263303D01*
X449727Y263749D01*
X449473Y264188D01*
X449209Y264620D01*
X448934Y265047D01*
X448649Y265466D01*
X448354Y265878D01*
X448049Y266283D01*
X447734Y266681D01*
X447409Y267070D01*
X447075Y267451D01*
X446731Y267824D01*
X446379Y268189D01*
X446017Y268545D01*
X445648Y268892D01*
X445269Y269229D01*
X444883Y269558D01*
X444488Y269877D01*
X444086Y270186D01*
X443677Y270485D01*
X443260Y270774D01*
X442836Y271052D01*
X442406Y271320D01*
X441969Y271578D01*
X441526Y271825D01*
X441077Y272061D01*
X440623Y272285D01*
X440163Y272499D01*
X439698Y272701D01*
X439228Y272892D01*
X438754Y273071D01*
X438275Y273239D01*
X437793Y273395D01*
X437306Y273539D01*
X436817Y273671D01*
X436324Y273791D01*
X435828Y273899D01*
X435330Y273994D01*
X434830Y274078D01*
X434328Y274149D01*
X433825Y274208D01*
X433320Y274254D01*
X432814Y274289D01*
X432307Y274310D01*
X431800Y274320D01*
D10*
X431800Y254000D03*
X546100Y522800D03*
X546100Y467800D03*
X545900Y495300D03*
X546100Y446600D03*
X546100Y391600D03*
X545900Y419100D03*
X546100Y370400D03*
X546100Y315400D03*
X545900Y342900D03*
D11*
X545846Y274320D02*
X545339Y274310D01*
X544832Y274289D01*
X544326Y274254D01*
X543821Y274208D01*
X543318Y274149D01*
X542816Y274078D01*
X542316Y273994D01*
X541818Y273899D01*
X541322Y273791D01*
X540829Y273671D01*
X540340Y273539D01*
X539853Y273395D01*
X539371Y273239D01*
X538892Y273071D01*
X538418Y272892D01*
X537948Y272701D01*
X537483Y272499D01*
X537023Y272285D01*
X536569Y272061D01*
X536120Y271825D01*
X535677Y271578D01*
X535240Y271320D01*
X534810Y271052D01*
X534386Y270774D01*
X533969Y270485D01*
X533560Y270186D01*
X533158Y269877D01*
X532763Y269558D01*
X532377Y269229D01*
X531998Y268892D01*
X531629Y268545D01*
X531267Y268189D01*
X530915Y267824D01*
X530571Y267451D01*
X530237Y267070D01*
X529912Y266681D01*
X529597Y266283D01*
X529292Y265878D01*
X528997Y265466D01*
X528712Y265047D01*
X528437Y264620D01*
X528173Y264188D01*
X527919Y263749D01*
X527676Y263303D01*
X527445Y262852D01*
X527224Y262396D01*
X527015Y261934D01*
X526817Y261467D01*
X526630Y260995D01*
X526455Y260519D01*
X526292Y260039D01*
X526141Y259555D01*
X526001Y259068D01*
X525874Y258577D01*
X525758Y258083D01*
X525655Y257587D01*
X525564Y257088D01*
X525485Y256587D01*
X525418Y256084D01*
X525364Y255580D01*
X525322Y255075D01*
X525293Y254568D01*
X525276Y254062D01*
X525271Y253555D01*
X525279Y253047D01*
X525299Y252541D01*
X525332Y252035D01*
X525377Y251530D01*
X525434Y251026D01*
X525504Y250523D01*
X525586Y250023D01*
X525680Y249525D01*
X525786Y249029D01*
X525904Y248536D01*
X526035Y248046D01*
X526177Y247559D01*
X526332Y247076D01*
X526498Y246597D01*
X526676Y246122D01*
X526865Y245652D01*
X527066Y245186D01*
X527278Y244726D01*
X527502Y244270D01*
X527736Y243821D01*
X527982Y243377D01*
X528238Y242939D01*
X528505Y242508D01*
X528782Y242084D01*
X529070Y241666D01*
X529367Y241256D01*
X529675Y240853D01*
X529993Y240457D01*
X530320Y240070D01*
X530657Y239690D01*
X531002Y239319D01*
X531357Y238957D01*
X531720Y238603D01*
X532092Y238259D01*
X532473Y237923D01*
X532861Y237598D01*
X533258Y237281D01*
X533662Y236975D01*
X534073Y236678D01*
X534491Y236392D01*
X534917Y236116D01*
X535349Y235850D01*
X535787Y235595D01*
X536232Y235351D01*
X536682Y235118D01*
X537138Y234896D01*
X537599Y234685D01*
X538065Y234486D01*
X538536Y234298D01*
X539012Y234121D01*
X539491Y233957D01*
X539975Y233804D01*
X540462Y233663D01*
X540952Y233534D01*
X541446Y233417D01*
X541942Y233312D01*
X542441Y233220D01*
X542941Y233139D01*
X543444Y233071D01*
X543948Y233015D01*
X544453Y232972D01*
X544959Y232941D01*
X545466Y232922D01*
X545973Y232916D01*
X546480Y232922D01*
X546987Y232941D01*
X547493Y232972D01*
X547998Y233015D01*
X548502Y233071D01*
X549005Y233139D01*
X549505Y233220D01*
X550004Y233312D01*
X550500Y233417D01*
X550994Y233534D01*
X551484Y233663D01*
X551971Y233804D01*
X552455Y233957D01*
X552934Y234121D01*
X553410Y234298D01*
X553881Y234486D01*
X554347Y234685D01*
X554808Y234896D01*
X555264Y235118D01*
X555714Y235351D01*
X556159Y235595D01*
X556597Y235850D01*
X557029Y236116D01*
X557455Y236392D01*
X557873Y236678D01*
X558284Y236975D01*
X558688Y237281D01*
X559085Y237598D01*
X559473Y237923D01*
X559854Y238259D01*
X560226Y238603D01*
X560589Y238957D01*
X560944Y239319D01*
X561289Y239690D01*
X561626Y240070D01*
X561953Y240457D01*
X562271Y240853D01*
X562579Y241256D01*
X562876Y241666D01*
X563164Y242084D01*
X563441Y242508D01*
X563708Y242939D01*
X563964Y243377D01*
X564210Y243821D01*
X564444Y244270D01*
X564668Y244726D01*
X564880Y245186D01*
X565081Y245652D01*
X565270Y246122D01*
X565448Y246597D01*
X565614Y247076D01*
X565769Y247559D01*
X565911Y248046D01*
X566042Y248536D01*
X566160Y249029D01*
X566266Y249525D01*
X566360Y250023D01*
X566442Y250523D01*
X566512Y251026D01*
X566569Y251530D01*
X566614Y252035D01*
X566647Y252541D01*
X566667Y253047D01*
X566675Y253555D01*
X566670Y254062D01*
X566653Y254568D01*
X566624Y255075D01*
X566582Y255580D01*
X566528Y256084D01*
X566461Y256587D01*
X566382Y257088D01*
X566291Y257587D01*
X566188Y258083D01*
X566072Y258577D01*
X565945Y259068D01*
X565805Y259555D01*
X565654Y260039D01*
X565491Y260519D01*
X565316Y260995D01*
X565129Y261467D01*
X564931Y261934D01*
X564722Y262396D01*
X564501Y262852D01*
X564270Y263303D01*
X564027Y263749D01*
X563773Y264188D01*
X563509Y264620D01*
X563234Y265047D01*
X562949Y265466D01*
X562654Y265878D01*
X562349Y266283D01*
X562034Y266681D01*
X561709Y267070D01*
X561375Y267451D01*
X561031Y267824D01*
X560679Y268189D01*
X560317Y268545D01*
X559948Y268892D01*
X559569Y269229D01*
X559183Y269558D01*
X558788Y269877D01*
X558386Y270186D01*
X557977Y270485D01*
X557560Y270774D01*
X557136Y271052D01*
X556706Y271320D01*
X556269Y271578D01*
X555826Y271825D01*
X555377Y272061D01*
X554923Y272285D01*
X554463Y272499D01*
X553998Y272701D01*
X553528Y272892D01*
X553054Y273071D01*
X552575Y273239D01*
X552093Y273395D01*
X551606Y273539D01*
X551117Y273671D01*
X550624Y273791D01*
X550128Y273899D01*
X549630Y273994D01*
X549130Y274078D01*
X548628Y274149D01*
X548125Y274208D01*
X547620Y274254D01*
X547114Y274289D01*
X546607Y274310D01*
X546100Y274320D01*
D10*
X546100Y254000D03*
X660400Y522800D03*
X660400Y467800D03*
X660200Y495300D03*
X660400Y446600D03*
X660400Y391600D03*
X660200Y419100D03*
X660400Y370400D03*
X660400Y315400D03*
X660200Y342900D03*
D11*
X660146Y274320D02*
X659639Y274310D01*
X659132Y274289D01*
X658626Y274254D01*
X658121Y274208D01*
X657618Y274149D01*
X657116Y274078D01*
X656616Y273994D01*
X656118Y273899D01*
X655622Y273791D01*
X655129Y273671D01*
X654640Y273539D01*
X654153Y273395D01*
X653671Y273239D01*
X653192Y273071D01*
X652718Y272892D01*
X652248Y272701D01*
X651783Y272499D01*
X651323Y272285D01*
X650869Y272061D01*
X650420Y271825D01*
X649977Y271578D01*
X649540Y271320D01*
X649110Y271052D01*
X648686Y270774D01*
X648269Y270485D01*
X647860Y270186D01*
X647458Y269877D01*
X647063Y269558D01*
X646677Y269229D01*
X646298Y268892D01*
X645929Y268545D01*
X645567Y268189D01*
X645215Y267824D01*
X644871Y267451D01*
X644537Y267070D01*
X644212Y266681D01*
X643897Y266283D01*
X643592Y265878D01*
X643297Y265466D01*
X643012Y265047D01*
X642737Y264620D01*
X642473Y264188D01*
X642219Y263749D01*
X641976Y263303D01*
X641745Y262852D01*
X641524Y262396D01*
X641315Y261934D01*
X641117Y261467D01*
X640930Y260995D01*
X640755Y260519D01*
X640592Y260039D01*
X640441Y259555D01*
X640301Y259068D01*
X640174Y258577D01*
X640058Y258083D01*
X639955Y257587D01*
X639864Y257088D01*
X639785Y256587D01*
X639718Y256084D01*
X639664Y255580D01*
X639622Y255075D01*
X639593Y254568D01*
X639576Y254062D01*
X639571Y253555D01*
X639579Y253047D01*
X639599Y252541D01*
X639632Y252035D01*
X639677Y251530D01*
X639734Y251026D01*
X639804Y250523D01*
X639886Y250023D01*
X639980Y249525D01*
X640086Y249029D01*
X640204Y248536D01*
X640335Y248046D01*
X640477Y247559D01*
X640632Y247076D01*
X640798Y246597D01*
X640976Y246122D01*
X641165Y245652D01*
X641366Y245186D01*
X641578Y244726D01*
X641802Y244270D01*
X642036Y243821D01*
X642282Y243377D01*
X642538Y242939D01*
X642805Y242508D01*
X643082Y242084D01*
X643370Y241666D01*
X643667Y241256D01*
X643975Y240853D01*
X644293Y240457D01*
X644620Y240070D01*
X644957Y239690D01*
X645302Y239319D01*
X645657Y238957D01*
X646020Y238603D01*
X646392Y238259D01*
X646773Y237923D01*
X647161Y237598D01*
X647558Y237281D01*
X647962Y236975D01*
X648373Y236678D01*
X648791Y236392D01*
X649217Y236116D01*
X649649Y235850D01*
X650087Y235595D01*
X650532Y235351D01*
X650982Y235118D01*
X651438Y234896D01*
X651899Y234685D01*
X652365Y234486D01*
X652836Y234298D01*
X653312Y234121D01*
X653791Y233957D01*
X654275Y233804D01*
X654762Y233663D01*
X655252Y233534D01*
X655746Y233417D01*
X656242Y233312D01*
X656741Y233220D01*
X657241Y233139D01*
X657744Y233071D01*
X658248Y233015D01*
X658753Y232972D01*
X659259Y232941D01*
X659766Y232922D01*
X660273Y232916D01*
X660780Y232922D01*
X661287Y232941D01*
X661793Y232972D01*
X662298Y233015D01*
X662802Y233071D01*
X663305Y233139D01*
X663805Y233220D01*
X664304Y233312D01*
X664800Y233417D01*
X665294Y233534D01*
X665784Y233663D01*
X666271Y233804D01*
X666755Y233957D01*
X667234Y234121D01*
X667710Y234298D01*
X668181Y234486D01*
X668647Y234685D01*
X669108Y234896D01*
X669564Y235118D01*
X670014Y235351D01*
X670459Y235595D01*
X670897Y235850D01*
X671329Y236116D01*
X671755Y236392D01*
X672173Y236678D01*
X672584Y236975D01*
X672988Y237281D01*
X673385Y237598D01*
X673773Y237923D01*
X674154Y238259D01*
X674526Y238603D01*
X674889Y238957D01*
X675244Y239319D01*
X675589Y239690D01*
X675926Y240070D01*
X676253Y240457D01*
X676571Y240853D01*
X676879Y241256D01*
X677176Y241666D01*
X677464Y242084D01*
X677741Y242508D01*
X678008Y242939D01*
X678264Y243377D01*
X678510Y243821D01*
X678744Y244270D01*
X678968Y244726D01*
X679180Y245186D01*
X679381Y245652D01*
X679570Y246122D01*
X679748Y246597D01*
X679914Y247076D01*
X680069Y247559D01*
X680211Y248046D01*
X680342Y248536D01*
X680460Y249029D01*
X680566Y249525D01*
X680660Y250023D01*
X680742Y250523D01*
X680812Y251026D01*
X680869Y251530D01*
X680914Y252035D01*
X680947Y252541D01*
X680967Y253047D01*
X680975Y253555D01*
X680970Y254062D01*
X680953Y254568D01*
X680924Y255075D01*
X680882Y255580D01*
X680828Y256084D01*
X680761Y256587D01*
X680682Y257088D01*
X680591Y257587D01*
X680488Y258083D01*
X680372Y258577D01*
X680245Y259068D01*
X680105Y259555D01*
X679954Y260039D01*
X679791Y260519D01*
X679616Y260995D01*
X679429Y261467D01*
X679231Y261934D01*
X679022Y262396D01*
X678801Y262852D01*
X678570Y263303D01*
X678327Y263749D01*
X678073Y264188D01*
X677809Y264620D01*
X677534Y265047D01*
X677249Y265466D01*
X676954Y265878D01*
X676649Y266283D01*
X676334Y266681D01*
X676009Y267070D01*
X675675Y267451D01*
X675331Y267824D01*
X674979Y268189D01*
X674617Y268545D01*
X674248Y268892D01*
X673869Y269229D01*
X673483Y269558D01*
X673088Y269877D01*
X672686Y270186D01*
X672277Y270485D01*
X671860Y270774D01*
X671436Y271052D01*
X671006Y271320D01*
X670569Y271578D01*
X670126Y271825D01*
X669677Y272061D01*
X669223Y272285D01*
X668763Y272499D01*
X668298Y272701D01*
X667828Y272892D01*
X667354Y273071D01*
X666875Y273239D01*
X666393Y273395D01*
X665906Y273539D01*
X665417Y273671D01*
X664924Y273791D01*
X664428Y273899D01*
X663930Y273994D01*
X663430Y274078D01*
X662928Y274149D01*
X662425Y274208D01*
X661920Y274254D01*
X661414Y274289D01*
X660907Y274310D01*
X660400Y274320D01*
D10*
X660400Y254000D03*
X774700Y522800D03*
X774700Y467800D03*
X774500Y495300D03*
X774700Y446600D03*
X774700Y391600D03*
X774500Y419100D03*
X774700Y370400D03*
X774700Y315400D03*
X774500Y342900D03*
D11*
X774446Y274320D02*
X773939Y274310D01*
X773432Y274289D01*
X772926Y274254D01*
X772421Y274208D01*
X771918Y274149D01*
X771416Y274078D01*
X770916Y273994D01*
X770418Y273899D01*
X769922Y273791D01*
X769429Y273671D01*
X768940Y273539D01*
X768453Y273395D01*
X767971Y273239D01*
X767492Y273071D01*
X767018Y272892D01*
X766548Y272701D01*
X766083Y272499D01*
X765623Y272285D01*
X765169Y272061D01*
X764720Y271825D01*
X764277Y271578D01*
X763840Y271320D01*
X763410Y271052D01*
X762986Y270774D01*
X762569Y270485D01*
X762160Y270186D01*
X761758Y269877D01*
X761363Y269558D01*
X760977Y269229D01*
X760598Y268892D01*
X760229Y268545D01*
X759867Y268189D01*
X759515Y267824D01*
X759171Y267451D01*
X758837Y267070D01*
X758512Y266681D01*
X758197Y266283D01*
X757892Y265878D01*
X757597Y265466D01*
X757312Y265047D01*
X757037Y264620D01*
X756773Y264188D01*
X756519Y263749D01*
X756276Y263303D01*
X756045Y262852D01*
X755824Y262396D01*
X755615Y261934D01*
X755417Y261467D01*
X755230Y260995D01*
X755055Y260519D01*
X754892Y260039D01*
X754741Y259555D01*
X754601Y259068D01*
X754474Y258577D01*
X754358Y258083D01*
X754255Y257587D01*
X754164Y257088D01*
X754085Y256587D01*
X754018Y256084D01*
X753964Y255580D01*
X753922Y255075D01*
X753893Y254568D01*
X753876Y254062D01*
X753871Y253555D01*
X753879Y253047D01*
X753899Y252541D01*
X753932Y252035D01*
X753977Y251530D01*
X754034Y251026D01*
X754104Y250523D01*
X754186Y250023D01*
X754280Y249525D01*
X754386Y249029D01*
X754504Y248536D01*
X754635Y248046D01*
X754777Y247559D01*
X754932Y247076D01*
X755098Y246597D01*
X755276Y246122D01*
X755465Y245652D01*
X755666Y245186D01*
X755878Y244726D01*
X756102Y244270D01*
X756336Y243821D01*
X756582Y243377D01*
X756838Y242939D01*
X757105Y242508D01*
X757382Y242084D01*
X757670Y241666D01*
X757967Y241256D01*
X758275Y240853D01*
X758593Y240457D01*
X758920Y240070D01*
X759257Y239690D01*
X759602Y239319D01*
X759957Y238957D01*
X760320Y238603D01*
X760692Y238259D01*
X761073Y237923D01*
X761461Y237598D01*
X761858Y237281D01*
X762262Y236975D01*
X762673Y236678D01*
X763091Y236392D01*
X763517Y236116D01*
X763949Y235850D01*
X764387Y235595D01*
X764832Y235351D01*
X765282Y235118D01*
X765738Y234896D01*
X766199Y234685D01*
X766665Y234486D01*
X767136Y234298D01*
X767612Y234121D01*
X768091Y233957D01*
X768575Y233804D01*
X769062Y233663D01*
X769552Y233534D01*
X770046Y233417D01*
X770542Y233312D01*
X771041Y233220D01*
X771541Y233139D01*
X772044Y233071D01*
X772548Y233015D01*
X773053Y232972D01*
X773559Y232941D01*
X774066Y232922D01*
X774573Y232916D01*
X775080Y232922D01*
X775587Y232941D01*
X776093Y232972D01*
X776598Y233015D01*
X777102Y233071D01*
X777605Y233139D01*
X778105Y233220D01*
X778604Y233312D01*
X779100Y233417D01*
X779594Y233534D01*
X780084Y233663D01*
X780571Y233804D01*
X781055Y233957D01*
X781534Y234121D01*
X782010Y234298D01*
X782481Y234486D01*
X782947Y234685D01*
X783408Y234896D01*
X783864Y235118D01*
X784314Y235351D01*
X784759Y235595D01*
X785197Y235850D01*
X785629Y236116D01*
X786055Y236392D01*
X786473Y236678D01*
X786884Y236975D01*
X787288Y237281D01*
X787685Y237598D01*
X788073Y237923D01*
X788454Y238259D01*
X788826Y238603D01*
X789189Y238957D01*
X789544Y239319D01*
X789889Y239690D01*
X790226Y240070D01*
X790553Y240457D01*
X790871Y240853D01*
X791179Y241256D01*
X791476Y241666D01*
X791764Y242084D01*
X792041Y242508D01*
X792308Y242939D01*
X792564Y243377D01*
X792810Y243821D01*
X793044Y244270D01*
X793268Y244726D01*
X793480Y245186D01*
X793681Y245652D01*
X793870Y246122D01*
X794048Y246597D01*
X794214Y247076D01*
X794369Y247559D01*
X794511Y248046D01*
X794642Y248536D01*
X794760Y249029D01*
X794866Y249525D01*
X794960Y250023D01*
X795042Y250523D01*
X795112Y251026D01*
X795169Y251530D01*
X795214Y252035D01*
X795247Y252541D01*
X795267Y253047D01*
X795275Y253555D01*
X795270Y254062D01*
X795253Y254568D01*
X795224Y255075D01*
X795182Y255580D01*
X795128Y256084D01*
X795061Y256587D01*
X794982Y257088D01*
X794891Y257587D01*
X794788Y258083D01*
X794672Y258577D01*
X794545Y259068D01*
X794405Y259555D01*
X794254Y260039D01*
X794091Y260519D01*
X793916Y260995D01*
X793729Y261467D01*
X793531Y261934D01*
X793322Y262396D01*
X793101Y262852D01*
X792870Y263303D01*
X792627Y263749D01*
X792373Y264188D01*
X792109Y264620D01*
X791834Y265047D01*
X791549Y265466D01*
X791254Y265878D01*
X790949Y266283D01*
X790634Y266681D01*
X790309Y267070D01*
X789975Y267451D01*
X789631Y267824D01*
X789279Y268189D01*
X788917Y268545D01*
X788548Y268892D01*
X788169Y269229D01*
X787783Y269558D01*
X787388Y269877D01*
X786986Y270186D01*
X786577Y270485D01*
X786160Y270774D01*
X785736Y271052D01*
X785306Y271320D01*
X784869Y271578D01*
X784426Y271825D01*
X783977Y272061D01*
X783523Y272285D01*
X783063Y272499D01*
X782598Y272701D01*
X782128Y272892D01*
X781654Y273071D01*
X781175Y273239D01*
X780693Y273395D01*
X780206Y273539D01*
X779717Y273671D01*
X779224Y273791D01*
X778728Y273899D01*
X778230Y273994D01*
X777730Y274078D01*
X777228Y274149D01*
X776725Y274208D01*
X776220Y274254D01*
X775714Y274289D01*
X775207Y274310D01*
X774700Y274320D01*
D10*
X774700Y254000D03*
X889000Y522800D03*
X889000Y467800D03*
X888800Y495300D03*
X889000Y446600D03*
X889000Y391600D03*
X888800Y419100D03*
X889000Y370400D03*
X889000Y315400D03*
X888800Y342900D03*
D11*
X888746Y274320D02*
X888239Y274310D01*
X887732Y274289D01*
X887226Y274254D01*
X886721Y274208D01*
X886218Y274149D01*
X885716Y274078D01*
X885216Y273994D01*
X884718Y273899D01*
X884222Y273791D01*
X883729Y273671D01*
X883240Y273539D01*
X882753Y273395D01*
X882271Y273239D01*
X881792Y273071D01*
X881318Y272892D01*
X880848Y272701D01*
X880383Y272499D01*
X879923Y272285D01*
X879469Y272061D01*
X879020Y271825D01*
X878577Y271578D01*
X878140Y271320D01*
X877710Y271052D01*
X877286Y270774D01*
X876869Y270485D01*
X876460Y270186D01*
X876058Y269877D01*
X875663Y269558D01*
X875277Y269229D01*
X874898Y268892D01*
X874529Y268545D01*
X874167Y268189D01*
X873815Y267824D01*
X873471Y267451D01*
X873137Y267070D01*
X872812Y266681D01*
X872497Y266283D01*
X872192Y265878D01*
X871897Y265466D01*
X871612Y265047D01*
X871337Y264620D01*
X871073Y264188D01*
X870819Y263749D01*
X870576Y263303D01*
X870345Y262852D01*
X870124Y262396D01*
X869915Y261934D01*
X869717Y261467D01*
X869530Y260995D01*
X869355Y260519D01*
X869192Y260039D01*
X869041Y259555D01*
X868901Y259068D01*
X868774Y258577D01*
X868658Y258083D01*
X868555Y257587D01*
X868464Y257088D01*
X868385Y256587D01*
X868318Y256084D01*
X868264Y255580D01*
X868222Y255075D01*
X868193Y254568D01*
X868176Y254062D01*
X868171Y253555D01*
X868179Y253047D01*
X868199Y252541D01*
X868232Y252035D01*
X868277Y251530D01*
X868334Y251026D01*
X868404Y250523D01*
X868486Y250023D01*
X868580Y249525D01*
X868686Y249029D01*
X868804Y248536D01*
X868935Y248046D01*
X869077Y247559D01*
X869232Y247076D01*
X869398Y246597D01*
X869576Y246122D01*
X869765Y245652D01*
X869966Y245186D01*
X870178Y244726D01*
X870402Y244270D01*
X870636Y243821D01*
X870882Y243377D01*
X871138Y242939D01*
X871405Y242508D01*
X871682Y242084D01*
X871970Y241666D01*
X872267Y241256D01*
X872575Y240853D01*
X872893Y240457D01*
X873220Y240070D01*
X873557Y239690D01*
X873902Y239319D01*
X874257Y238957D01*
X874620Y238603D01*
X874992Y238259D01*
X875373Y237923D01*
X875761Y237598D01*
X876158Y237281D01*
X876562Y236975D01*
X876973Y236678D01*
X877391Y236392D01*
X877817Y236116D01*
X878249Y235850D01*
X878687Y235595D01*
X879132Y235351D01*
X879582Y235118D01*
X880038Y234896D01*
X880499Y234685D01*
X880965Y234486D01*
X881436Y234298D01*
X881912Y234121D01*
X882391Y233957D01*
X882875Y233804D01*
X883362Y233663D01*
X883852Y233534D01*
X884346Y233417D01*
X884842Y233312D01*
X885341Y233220D01*
X885841Y233139D01*
X886344Y233071D01*
X886848Y233015D01*
X887353Y232972D01*
X887859Y232941D01*
X888366Y232922D01*
X888873Y232916D01*
X889380Y232922D01*
X889887Y232941D01*
X890393Y232972D01*
X890898Y233015D01*
X891402Y233071D01*
X891905Y233139D01*
X892405Y233220D01*
X892904Y233312D01*
X893400Y233417D01*
X893894Y233534D01*
X894384Y233663D01*
X894871Y233804D01*
X895355Y233957D01*
X895834Y234121D01*
X896310Y234298D01*
X896781Y234486D01*
X897247Y234685D01*
X897708Y234896D01*
X898164Y235118D01*
X898614Y235351D01*
X899059Y235595D01*
X899497Y235850D01*
X899929Y236116D01*
X900355Y236392D01*
X900773Y236678D01*
X901184Y236975D01*
X901588Y237281D01*
X901985Y237598D01*
X902373Y237923D01*
X902754Y238259D01*
X903126Y238603D01*
X903489Y238957D01*
X903844Y239319D01*
X904189Y239690D01*
X904526Y240070D01*
X904853Y240457D01*
X905171Y240853D01*
X905479Y241256D01*
X905776Y241666D01*
X906064Y242084D01*
X906341Y242508D01*
X906608Y242939D01*
X906864Y243377D01*
X907110Y243821D01*
X907344Y244270D01*
X907568Y244726D01*
X907780Y245186D01*
X907981Y245652D01*
X908170Y246122D01*
X908348Y246597D01*
X908514Y247076D01*
X908669Y247559D01*
X908811Y248046D01*
X908942Y248536D01*
X909060Y249029D01*
X909166Y249525D01*
X909260Y250023D01*
X909342Y250523D01*
X909412Y251026D01*
X909469Y251530D01*
X909514Y252035D01*
X909547Y252541D01*
X909567Y253047D01*
X909575Y253555D01*
X909570Y254062D01*
X909553Y254568D01*
X909524Y255075D01*
X909482Y255580D01*
X909428Y256084D01*
X909361Y256587D01*
X909282Y257088D01*
X909191Y257587D01*
X909088Y258083D01*
X908972Y258577D01*
X908845Y259068D01*
X908705Y259555D01*
X908554Y260039D01*
X908391Y260519D01*
X908216Y260995D01*
X908029Y261467D01*
X907831Y261934D01*
X907622Y262396D01*
X907401Y262852D01*
X907170Y263303D01*
X906927Y263749D01*
X906673Y264188D01*
X906409Y264620D01*
X906134Y265047D01*
X905849Y265466D01*
X905554Y265878D01*
X905249Y266283D01*
X904934Y266681D01*
X904609Y267070D01*
X904275Y267451D01*
X903931Y267824D01*
X903579Y268189D01*
X903217Y268545D01*
X902848Y268892D01*
X902469Y269229D01*
X902083Y269558D01*
X901688Y269877D01*
X901286Y270186D01*
X900877Y270485D01*
X900460Y270774D01*
X900036Y271052D01*
X899606Y271320D01*
X899169Y271578D01*
X898726Y271825D01*
X898277Y272061D01*
X897823Y272285D01*
X897363Y272499D01*
X896898Y272701D01*
X896428Y272892D01*
X895954Y273071D01*
X895475Y273239D01*
X894993Y273395D01*
X894506Y273539D01*
X894017Y273671D01*
X893524Y273791D01*
X893028Y273899D01*
X892530Y273994D01*
X892030Y274078D01*
X891528Y274149D01*
X891025Y274208D01*
X890520Y274254D01*
X890014Y274289D01*
X889507Y274310D01*
X889000Y274320D01*
D10*
X889000Y254000D03*
X1003300Y522800D03*
X1003300Y467800D03*
X1003100Y495300D03*
X1003300Y446600D03*
X1003300Y391600D03*
X1003100Y419100D03*
X1003300Y370400D03*
X1003300Y315400D03*
X1003100Y342900D03*
D11*
X1003046Y274320D02*
X1002539Y274310D01*
X1002032Y274289D01*
X1001526Y274254D01*
X1001021Y274208D01*
X1000518Y274149D01*
X1000016Y274078D01*
X999516Y273994D01*
X999018Y273899D01*
X998522Y273791D01*
X998029Y273671D01*
X997540Y273539D01*
X997053Y273395D01*
X996571Y273239D01*
X996092Y273071D01*
X995618Y272892D01*
X995148Y272701D01*
X994683Y272499D01*
X994223Y272285D01*
X993769Y272061D01*
X993320Y271825D01*
X992877Y271578D01*
X992440Y271320D01*
X992010Y271052D01*
X991586Y270774D01*
X991169Y270485D01*
X990760Y270186D01*
X990358Y269877D01*
X989963Y269558D01*
X989577Y269229D01*
X989198Y268892D01*
X988829Y268545D01*
X988467Y268189D01*
X988115Y267824D01*
X987771Y267451D01*
X987437Y267070D01*
X987112Y266681D01*
X986797Y266283D01*
X986492Y265878D01*
X986197Y265466D01*
X985912Y265047D01*
X985637Y264620D01*
X985373Y264188D01*
X985119Y263749D01*
X984876Y263303D01*
X984645Y262852D01*
X984424Y262396D01*
X984215Y261934D01*
X984017Y261467D01*
X983830Y260995D01*
X983655Y260519D01*
X983492Y260039D01*
X983341Y259555D01*
X983201Y259068D01*
X983074Y258577D01*
X982958Y258083D01*
X982855Y257587D01*
X982764Y257088D01*
X982685Y256587D01*
X982618Y256084D01*
X982564Y255580D01*
X982522Y255075D01*
X982493Y254568D01*
X982476Y254062D01*
X982471Y253555D01*
X982479Y253047D01*
X982499Y252541D01*
X982532Y252035D01*
X982577Y251530D01*
X982634Y251026D01*
X982704Y250523D01*
X982786Y250023D01*
X982880Y249525D01*
X982986Y249029D01*
X983104Y248536D01*
X983235Y248046D01*
X983377Y247559D01*
X983532Y247076D01*
X983698Y246597D01*
X983876Y246122D01*
X984065Y245652D01*
X984266Y245186D01*
X984478Y244726D01*
X984702Y244270D01*
X984936Y243821D01*
X985182Y243377D01*
X985438Y242939D01*
X985705Y242508D01*
X985982Y242084D01*
X986270Y241666D01*
X986567Y241256D01*
X986875Y240853D01*
X987193Y240457D01*
X987520Y240070D01*
X987857Y239690D01*
X988202Y239319D01*
X988557Y238957D01*
X988920Y238603D01*
X989292Y238259D01*
X989673Y237923D01*
X990061Y237598D01*
X990458Y237281D01*
X990862Y236975D01*
X991273Y236678D01*
X991691Y236392D01*
X992117Y236116D01*
X992549Y235850D01*
X992987Y235595D01*
X993432Y235351D01*
X993882Y235118D01*
X994338Y234896D01*
X994799Y234685D01*
X995265Y234486D01*
X995736Y234298D01*
X996212Y234121D01*
X996691Y233957D01*
X997175Y233804D01*
X997662Y233663D01*
X998152Y233534D01*
X998646Y233417D01*
X999142Y233312D01*
X999641Y233220D01*
X1000141Y233139D01*
X1000644Y233071D01*
X1001148Y233015D01*
X1001653Y232972D01*
X1002159Y232941D01*
X1002666Y232922D01*
X1003173Y232916D01*
X1003680Y232922D01*
X1004187Y232941D01*
X1004693Y232972D01*
X1005198Y233015D01*
X1005702Y233071D01*
X1006205Y233139D01*
X1006705Y233220D01*
X1007204Y233312D01*
X1007700Y233417D01*
X1008194Y233534D01*
X1008684Y233663D01*
X1009171Y233804D01*
X1009655Y233957D01*
X1010134Y234121D01*
X1010610Y234298D01*
X1011081Y234486D01*
X1011547Y234685D01*
X1012008Y234896D01*
X1012464Y235118D01*
X1012914Y235351D01*
X1013359Y235595D01*
X1013797Y235850D01*
X1014229Y236116D01*
X1014655Y236392D01*
X1015073Y236678D01*
X1015484Y236975D01*
X1015888Y237281D01*
X1016285Y237598D01*
X1016673Y237923D01*
X1017054Y238259D01*
X1017426Y238603D01*
X1017789Y238957D01*
X1018144Y239319D01*
X1018489Y239690D01*
X1018826Y240070D01*
X1019153Y240457D01*
X1019471Y240853D01*
X1019779Y241256D01*
X1020076Y241666D01*
X1020364Y242084D01*
X1020641Y242508D01*
X1020908Y242939D01*
X1021164Y243377D01*
X1021410Y243821D01*
X1021644Y244270D01*
X1021868Y244726D01*
X1022080Y245186D01*
X1022281Y245652D01*
X1022470Y246122D01*
X1022648Y246597D01*
X1022814Y247076D01*
X1022969Y247559D01*
X1023111Y248046D01*
X1023242Y248536D01*
X1023360Y249029D01*
X1023466Y249525D01*
X1023560Y250023D01*
X1023642Y250523D01*
X1023712Y251026D01*
X1023769Y251530D01*
X1023814Y252035D01*
X1023847Y252541D01*
X1023867Y253047D01*
X1023875Y253555D01*
X1023870Y254062D01*
X1023853Y254568D01*
X1023824Y255075D01*
X1023782Y255580D01*
X1023728Y256084D01*
X1023661Y256587D01*
X1023582Y257088D01*
X1023491Y257587D01*
X1023388Y258083D01*
X1023272Y258577D01*
X1023145Y259068D01*
X1023005Y259555D01*
X1022854Y260039D01*
X1022691Y260519D01*
X1022516Y260995D01*
X1022329Y261467D01*
X1022131Y261934D01*
X1021922Y262396D01*
X1021701Y262852D01*
X1021470Y263303D01*
X1021227Y263749D01*
X1020973Y264188D01*
X1020709Y264620D01*
X1020434Y265047D01*
X1020149Y265466D01*
X1019854Y265878D01*
X1019549Y266283D01*
X1019234Y266681D01*
X1018909Y267070D01*
X1018575Y267451D01*
X1018231Y267824D01*
X1017879Y268189D01*
X1017517Y268545D01*
X1017148Y268892D01*
X1016769Y269229D01*
X1016383Y269558D01*
X1015988Y269877D01*
X1015586Y270186D01*
X1015177Y270485D01*
X1014760Y270774D01*
X1014336Y271052D01*
X1013906Y271320D01*
X1013469Y271578D01*
X1013026Y271825D01*
X1012577Y272061D01*
X1012123Y272285D01*
X1011663Y272499D01*
X1011198Y272701D01*
X1010728Y272892D01*
X1010254Y273071D01*
X1009775Y273239D01*
X1009293Y273395D01*
X1008806Y273539D01*
X1008317Y273671D01*
X1007824Y273791D01*
X1007328Y273899D01*
X1006830Y273994D01*
X1006330Y274078D01*
X1005828Y274149D01*
X1005325Y274208D01*
X1004820Y274254D01*
X1004314Y274289D01*
X1003807Y274310D01*
X1003300Y274320D01*
D10*
X1003300Y254000D03*
D11*
X603377Y629920D02*
X603884Y629910D01*
X604391Y629889D01*
X604897Y629854D01*
X605402Y629808D01*
X605905Y629749D01*
X606407Y629678D01*
X606907Y629594D01*
X607405Y629499D01*
X607901Y629391D01*
X608394Y629271D01*
X608883Y629139D01*
X609370Y628995D01*
X609852Y628839D01*
X610331Y628671D01*
X610805Y628492D01*
X611275Y628301D01*
X611740Y628099D01*
X612200Y627885D01*
X612654Y627661D01*
X613103Y627425D01*
X613546Y627178D01*
X613983Y626920D01*
X614413Y626652D01*
X614837Y626374D01*
X615254Y626085D01*
X615663Y625786D01*
X616065Y625477D01*
X616460Y625158D01*
X616846Y624829D01*
X617225Y624492D01*
X617594Y624145D01*
X617956Y623789D01*
X618308Y623424D01*
X618652Y623051D01*
X618986Y622670D01*
X619311Y622281D01*
X619626Y621883D01*
X619931Y621478D01*
X620226Y621066D01*
X620511Y620647D01*
X620786Y620220D01*
X621050Y619788D01*
X621304Y619349D01*
X621547Y618903D01*
X621778Y618452D01*
X621999Y617996D01*
X622208Y617534D01*
X622406Y617067D01*
X622593Y616595D01*
X622768Y616119D01*
X622931Y615639D01*
X623082Y615155D01*
X623222Y614668D01*
X623349Y614177D01*
X623465Y613683D01*
X623568Y613187D01*
X623659Y612688D01*
X623738Y612187D01*
X623805Y611684D01*
X623859Y611180D01*
X623901Y610675D01*
X623930Y610168D01*
X623947Y609662D01*
X623952Y609155D01*
X623944Y608647D01*
X623924Y608141D01*
X623891Y607635D01*
X623846Y607130D01*
X623789Y606626D01*
X623719Y606123D01*
X623637Y605623D01*
X623543Y605125D01*
X623437Y604629D01*
X623319Y604136D01*
X623188Y603646D01*
X623046Y603159D01*
X622891Y602676D01*
X622725Y602197D01*
X622547Y601722D01*
X622358Y601252D01*
X622157Y600786D01*
X621945Y600326D01*
X621721Y599870D01*
X621487Y599421D01*
X621241Y598977D01*
X620985Y598539D01*
X620718Y598108D01*
X620441Y597684D01*
X620153Y597266D01*
X619856Y596856D01*
X619548Y596453D01*
X619230Y596057D01*
X618903Y595670D01*
X618566Y595290D01*
X618221Y594919D01*
X617866Y594557D01*
X617503Y594203D01*
X617131Y593859D01*
X616750Y593523D01*
X616362Y593198D01*
X615965Y592881D01*
X615561Y592575D01*
X615150Y592278D01*
X614732Y591992D01*
X614306Y591716D01*
X613874Y591450D01*
X613436Y591195D01*
X612991Y590951D01*
X612541Y590718D01*
X612085Y590496D01*
X611624Y590285D01*
X611158Y590086D01*
X610687Y589898D01*
X610211Y589721D01*
X609732Y589557D01*
X609248Y589404D01*
X608761Y589263D01*
X608271Y589134D01*
X607777Y589017D01*
X607281Y588912D01*
X606782Y588820D01*
X606282Y588739D01*
X605779Y588671D01*
X605275Y588615D01*
X604770Y588572D01*
X604264Y588541D01*
X603757Y588522D01*
X603250Y588516D01*
X602743Y588522D01*
X602236Y588541D01*
X601730Y588572D01*
X601225Y588615D01*
X600721Y588671D01*
X600218Y588739D01*
X599718Y588820D01*
X599219Y588912D01*
X598723Y589017D01*
X598229Y589134D01*
X597739Y589263D01*
X597252Y589404D01*
X596768Y589557D01*
X596289Y589721D01*
X595813Y589898D01*
X595342Y590086D01*
X594876Y590285D01*
X594415Y590496D01*
X593959Y590718D01*
X593509Y590951D01*
X593064Y591195D01*
X592626Y591450D01*
X592194Y591716D01*
X591768Y591992D01*
X591350Y592278D01*
X590939Y592575D01*
X590535Y592881D01*
X590138Y593198D01*
X589750Y593523D01*
X589369Y593859D01*
X588997Y594203D01*
X588634Y594557D01*
X588279Y594919D01*
X587934Y595290D01*
X587597Y595670D01*
X587270Y596057D01*
X586952Y596453D01*
X586644Y596856D01*
X586347Y597266D01*
X586059Y597684D01*
X585782Y598108D01*
X585515Y598539D01*
X585259Y598977D01*
X585013Y599421D01*
X584779Y599870D01*
X584555Y600326D01*
X584343Y600786D01*
X584142Y601252D01*
X583953Y601722D01*
X583775Y602197D01*
X583609Y602676D01*
X583454Y603159D01*
X583312Y603646D01*
X583181Y604136D01*
X583063Y604629D01*
X582957Y605125D01*
X582863Y605623D01*
X582781Y606123D01*
X582711Y606626D01*
X582654Y607130D01*
X582609Y607635D01*
X582576Y608141D01*
X582556Y608647D01*
X582548Y609155D01*
X582553Y609662D01*
X582570Y610168D01*
X582599Y610675D01*
X582641Y611180D01*
X582695Y611684D01*
X582762Y612187D01*
X582841Y612688D01*
X582932Y613187D01*
X583035Y613683D01*
X583151Y614177D01*
X583278Y614668D01*
X583418Y615155D01*
X583569Y615639D01*
X583732Y616119D01*
X583907Y616595D01*
X584094Y617067D01*
X584292Y617534D01*
X584501Y617996D01*
X584722Y618452D01*
X584953Y618903D01*
X585196Y619349D01*
X585450Y619788D01*
X585714Y620220D01*
X585989Y620647D01*
X586274Y621066D01*
X586569Y621478D01*
X586874Y621883D01*
X587189Y622281D01*
X587514Y622670D01*
X587848Y623051D01*
X588192Y623424D01*
X588544Y623789D01*
X588906Y624145D01*
X589275Y624492D01*
X589654Y624829D01*
X590040Y625158D01*
X590435Y625477D01*
X590837Y625786D01*
X591246Y626085D01*
X591663Y626374D01*
X592087Y626652D01*
X592517Y626920D01*
X592954Y627178D01*
X593397Y627425D01*
X593846Y627661D01*
X594300Y627885D01*
X594760Y628099D01*
X595225Y628301D01*
X595695Y628492D01*
X596169Y628671D01*
X596648Y628839D01*
X597130Y628995D01*
X597617Y629139D01*
X598106Y629271D01*
X598599Y629391D01*
X599095Y629499D01*
X599593Y629594D01*
X600093Y629678D01*
X600595Y629749D01*
X601098Y629808D01*
X601603Y629854D01*
X602109Y629889D01*
X602616Y629910D01*
X603123Y629920D01*
D10*
X603377Y609600D03*
D11*
X101600Y553720D02*
X102107Y553710D01*
X102614Y553689D01*
X103120Y553654D01*
X103625Y553608D01*
X104128Y553549D01*
X104630Y553478D01*
X105130Y553394D01*
X105628Y553299D01*
X106124Y553191D01*
X106617Y553071D01*
X107106Y552939D01*
X107593Y552795D01*
X108075Y552639D01*
X108554Y552471D01*
X109028Y552292D01*
X109498Y552101D01*
X109963Y551899D01*
X110423Y551685D01*
X110877Y551461D01*
X111326Y551225D01*
X111769Y550978D01*
X112206Y550720D01*
X112636Y550452D01*
X113060Y550174D01*
X113477Y549885D01*
X113886Y549586D01*
X114288Y549277D01*
X114683Y548958D01*
X115069Y548629D01*
X115448Y548292D01*
X115817Y547945D01*
X116179Y547589D01*
X116531Y547224D01*
X116875Y546851D01*
X117209Y546470D01*
X117534Y546081D01*
X117849Y545683D01*
X118154Y545278D01*
X118449Y544866D01*
X118734Y544447D01*
X119009Y544020D01*
X119273Y543588D01*
X119527Y543149D01*
X119770Y542703D01*
X120001Y542252D01*
X120222Y541796D01*
X120431Y541334D01*
X120629Y540867D01*
X120816Y540395D01*
X120991Y539919D01*
X121154Y539439D01*
X121305Y538955D01*
X121445Y538468D01*
X121572Y537977D01*
X121688Y537483D01*
X121791Y536987D01*
X121882Y536488D01*
X121961Y535987D01*
X122028Y535484D01*
X122082Y534980D01*
X122124Y534475D01*
X122153Y533968D01*
X122170Y533462D01*
X122175Y532955D01*
X122167Y532447D01*
X122147Y531941D01*
X122114Y531435D01*
X122069Y530930D01*
X122012Y530426D01*
X121942Y529923D01*
X121860Y529423D01*
X121766Y528925D01*
X121660Y528429D01*
X121542Y527936D01*
X121411Y527446D01*
X121269Y526959D01*
X121114Y526476D01*
X120948Y525997D01*
X120770Y525522D01*
X120581Y525052D01*
X120380Y524586D01*
X120168Y524126D01*
X119944Y523670D01*
X119710Y523221D01*
X119464Y522777D01*
X119208Y522339D01*
X118941Y521908D01*
X118664Y521484D01*
X118376Y521066D01*
X118079Y520656D01*
X117771Y520253D01*
X117453Y519857D01*
X117126Y519470D01*
X116789Y519090D01*
X116444Y518719D01*
X116089Y518357D01*
X115726Y518003D01*
X115354Y517659D01*
X114973Y517323D01*
X114585Y516998D01*
X114188Y516681D01*
X113784Y516375D01*
X113373Y516078D01*
X112955Y515792D01*
X112529Y515516D01*
X112097Y515250D01*
X111659Y514995D01*
X111214Y514751D01*
X110764Y514518D01*
X110308Y514296D01*
X109847Y514085D01*
X109381Y513886D01*
X108910Y513698D01*
X108434Y513521D01*
X107955Y513357D01*
X107471Y513204D01*
X106984Y513063D01*
X106494Y512934D01*
X106000Y512817D01*
X105504Y512712D01*
X105005Y512620D01*
X104505Y512539D01*
X104002Y512471D01*
X103498Y512415D01*
X102993Y512372D01*
X102487Y512341D01*
X101980Y512322D01*
X101473Y512316D01*
X100966Y512322D01*
X100459Y512341D01*
X99953Y512372D01*
X99448Y512415D01*
X98944Y512471D01*
X98441Y512539D01*
X97941Y512620D01*
X97442Y512712D01*
X96946Y512817D01*
X96452Y512934D01*
X95962Y513063D01*
X95475Y513204D01*
X94991Y513357D01*
X94512Y513521D01*
X94036Y513698D01*
X93565Y513886D01*
X93099Y514085D01*
X92638Y514296D01*
X92182Y514518D01*
X91732Y514751D01*
X91287Y514995D01*
X90849Y515250D01*
X90417Y515516D01*
X89991Y515792D01*
X89573Y516078D01*
X89162Y516375D01*
X88758Y516681D01*
X88361Y516998D01*
X87973Y517323D01*
X87592Y517659D01*
X87220Y518003D01*
X86857Y518357D01*
X86502Y518719D01*
X86157Y519090D01*
X85820Y519470D01*
X85493Y519857D01*
X85175Y520253D01*
X84867Y520656D01*
X84570Y521066D01*
X84282Y521484D01*
X84005Y521908D01*
X83738Y522339D01*
X83482Y522777D01*
X83236Y523221D01*
X83002Y523670D01*
X82778Y524126D01*
X82566Y524586D01*
X82365Y525052D01*
X82176Y525522D01*
X81998Y525997D01*
X81832Y526476D01*
X81677Y526959D01*
X81535Y527446D01*
X81404Y527936D01*
X81286Y528429D01*
X81180Y528925D01*
X81086Y529423D01*
X81004Y529923D01*
X80934Y530426D01*
X80877Y530930D01*
X80832Y531435D01*
X80799Y531941D01*
X80779Y532447D01*
X80771Y532955D01*
X80776Y533462D01*
X80793Y533968D01*
X80822Y534475D01*
X80864Y534980D01*
X80918Y535484D01*
X80985Y535987D01*
X81064Y536488D01*
X81155Y536987D01*
X81258Y537483D01*
X81374Y537977D01*
X81501Y538468D01*
X81641Y538955D01*
X81792Y539439D01*
X81955Y539919D01*
X82130Y540395D01*
X82317Y540867D01*
X82515Y541334D01*
X82724Y541796D01*
X82945Y542252D01*
X83176Y542703D01*
X83419Y543149D01*
X83673Y543588D01*
X83937Y544020D01*
X84212Y544447D01*
X84497Y544866D01*
X84792Y545278D01*
X85097Y545683D01*
X85412Y546081D01*
X85737Y546470D01*
X86071Y546851D01*
X86415Y547224D01*
X86767Y547589D01*
X87129Y547945D01*
X87498Y548292D01*
X87877Y548629D01*
X88263Y548958D01*
X88658Y549277D01*
X89060Y549586D01*
X89469Y549885D01*
X89886Y550174D01*
X90310Y550452D01*
X90740Y550720D01*
X91177Y550978D01*
X91620Y551225D01*
X92069Y551461D01*
X92523Y551685D01*
X92983Y551899D01*
X93448Y552101D01*
X93918Y552292D01*
X94392Y552471D01*
X94871Y552639D01*
X95353Y552795D01*
X95840Y552939D01*
X96329Y553071D01*
X96822Y553191D01*
X97318Y553299D01*
X97816Y553394D01*
X98316Y553478D01*
X98818Y553549D01*
X99321Y553608D01*
X99826Y553654D01*
X100332Y553689D01*
X100839Y553710D01*
X101346Y553720D01*
D10*
X101600Y533400D03*
D11*
X101346Y439420D02*
X100839Y439410D01*
X100332Y439389D01*
X99826Y439354D01*
X99321Y439308D01*
X98818Y439249D01*
X98316Y439178D01*
X97816Y439094D01*
X97318Y438999D01*
X96822Y438891D01*
X96329Y438771D01*
X95840Y438639D01*
X95353Y438495D01*
X94871Y438339D01*
X94392Y438171D01*
X93918Y437992D01*
X93448Y437801D01*
X92983Y437599D01*
X92523Y437385D01*
X92069Y437161D01*
X91620Y436925D01*
X91177Y436678D01*
X90740Y436420D01*
X90310Y436152D01*
X89886Y435874D01*
X89469Y435585D01*
X89060Y435286D01*
X88658Y434977D01*
X88263Y434658D01*
X87877Y434329D01*
X87498Y433992D01*
X87129Y433645D01*
X86767Y433289D01*
X86415Y432924D01*
X86071Y432551D01*
X85737Y432170D01*
X85412Y431781D01*
X85097Y431383D01*
X84792Y430978D01*
X84497Y430566D01*
X84212Y430147D01*
X83937Y429720D01*
X83673Y429288D01*
X83419Y428849D01*
X83176Y428403D01*
X82945Y427952D01*
X82724Y427496D01*
X82515Y427034D01*
X82317Y426567D01*
X82130Y426095D01*
X81955Y425619D01*
X81792Y425139D01*
X81641Y424655D01*
X81501Y424168D01*
X81374Y423677D01*
X81258Y423183D01*
X81155Y422687D01*
X81064Y422188D01*
X80985Y421687D01*
X80918Y421184D01*
X80864Y420680D01*
X80822Y420175D01*
X80793Y419668D01*
X80776Y419162D01*
X80771Y418655D01*
X80779Y418147D01*
X80799Y417641D01*
X80832Y417135D01*
X80877Y416630D01*
X80934Y416126D01*
X81004Y415623D01*
X81086Y415123D01*
X81180Y414625D01*
X81286Y414129D01*
X81404Y413636D01*
X81535Y413146D01*
X81677Y412659D01*
X81832Y412176D01*
X81998Y411697D01*
X82176Y411222D01*
X82365Y410752D01*
X82566Y410286D01*
X82778Y409826D01*
X83002Y409370D01*
X83236Y408921D01*
X83482Y408477D01*
X83738Y408039D01*
X84005Y407608D01*
X84282Y407184D01*
X84570Y406766D01*
X84867Y406356D01*
X85175Y405953D01*
X85493Y405557D01*
X85820Y405170D01*
X86157Y404790D01*
X86502Y404419D01*
X86857Y404057D01*
X87220Y403703D01*
X87592Y403359D01*
X87973Y403023D01*
X88361Y402698D01*
X88758Y402381D01*
X89162Y402075D01*
X89573Y401778D01*
X89991Y401492D01*
X90417Y401216D01*
X90849Y400950D01*
X91287Y400695D01*
X91732Y400451D01*
X92182Y400218D01*
X92638Y399996D01*
X93099Y399785D01*
X93565Y399586D01*
X94036Y399398D01*
X94512Y399221D01*
X94991Y399057D01*
X95475Y398904D01*
X95962Y398763D01*
X96452Y398634D01*
X96946Y398517D01*
X97442Y398412D01*
X97941Y398320D01*
X98441Y398239D01*
X98944Y398171D01*
X99448Y398115D01*
X99953Y398072D01*
X100459Y398041D01*
X100966Y398022D01*
X101473Y398016D01*
X101980Y398022D01*
X102487Y398041D01*
X102993Y398072D01*
X103498Y398115D01*
X104002Y398171D01*
X104505Y398239D01*
X105005Y398320D01*
X105504Y398412D01*
X106000Y398517D01*
X106494Y398634D01*
X106984Y398763D01*
X107471Y398904D01*
X107955Y399057D01*
X108434Y399221D01*
X108910Y399398D01*
X109381Y399586D01*
X109847Y399785D01*
X110308Y399996D01*
X110764Y400218D01*
X111214Y400451D01*
X111659Y400695D01*
X112097Y400950D01*
X112529Y401216D01*
X112955Y401492D01*
X113373Y401778D01*
X113784Y402075D01*
X114188Y402381D01*
X114585Y402698D01*
X114973Y403023D01*
X115354Y403359D01*
X115726Y403703D01*
X116089Y404057D01*
X116444Y404419D01*
X116789Y404790D01*
X117126Y405170D01*
X117453Y405557D01*
X117771Y405953D01*
X118079Y406356D01*
X118376Y406766D01*
X118664Y407184D01*
X118941Y407608D01*
X119208Y408039D01*
X119464Y408477D01*
X119710Y408921D01*
X119944Y409370D01*
X120168Y409826D01*
X120380Y410286D01*
X120581Y410752D01*
X120770Y411222D01*
X120948Y411697D01*
X121114Y412176D01*
X121269Y412659D01*
X121411Y413146D01*
X121542Y413636D01*
X121660Y414129D01*
X121766Y414625D01*
X121860Y415123D01*
X121942Y415623D01*
X122012Y416126D01*
X122069Y416630D01*
X122114Y417135D01*
X122147Y417641D01*
X122167Y418147D01*
X122175Y418655D01*
X122170Y419162D01*
X122153Y419668D01*
X122124Y420175D01*
X122082Y420680D01*
X122028Y421184D01*
X121961Y421687D01*
X121882Y422188D01*
X121791Y422687D01*
X121688Y423183D01*
X121572Y423677D01*
X121445Y424168D01*
X121305Y424655D01*
X121154Y425139D01*
X120991Y425619D01*
X120816Y426095D01*
X120629Y426567D01*
X120431Y427034D01*
X120222Y427496D01*
X120001Y427952D01*
X119770Y428403D01*
X119527Y428849D01*
X119273Y429288D01*
X119009Y429720D01*
X118734Y430147D01*
X118449Y430566D01*
X118154Y430978D01*
X117849Y431383D01*
X117534Y431781D01*
X117209Y432170D01*
X116875Y432551D01*
X116531Y432924D01*
X116179Y433289D01*
X115817Y433645D01*
X115448Y433992D01*
X115069Y434329D01*
X114683Y434658D01*
X114288Y434977D01*
X113886Y435286D01*
X113477Y435585D01*
X113060Y435874D01*
X112636Y436152D01*
X112206Y436420D01*
X111769Y436678D01*
X111326Y436925D01*
X110877Y437161D01*
X110423Y437385D01*
X109963Y437599D01*
X109498Y437801D01*
X109028Y437992D01*
X108554Y438171D01*
X108075Y438339D01*
X107593Y438495D01*
X107106Y438639D01*
X106617Y438771D01*
X106124Y438891D01*
X105628Y438999D01*
X105130Y439094D01*
X104630Y439178D01*
X104128Y439249D01*
X103625Y439308D01*
X103120Y439354D01*
X102614Y439389D01*
X102107Y439410D01*
X101600Y439420D01*
D10*
X101600Y419100D03*
D11*
X101346Y325120D02*
X100839Y325110D01*
X100332Y325089D01*
X99826Y325054D01*
X99321Y325008D01*
X98818Y324949D01*
X98316Y324878D01*
X97816Y324794D01*
X97318Y324699D01*
X96822Y324591D01*
X96329Y324471D01*
X95840Y324339D01*
X95353Y324195D01*
X94871Y324039D01*
X94392Y323871D01*
X93918Y323692D01*
X93448Y323501D01*
X92983Y323299D01*
X92523Y323085D01*
X92069Y322861D01*
X91620Y322625D01*
X91177Y322378D01*
X90740Y322120D01*
X90310Y321852D01*
X89886Y321574D01*
X89469Y321285D01*
X89060Y320986D01*
X88658Y320677D01*
X88263Y320358D01*
X87877Y320029D01*
X87498Y319692D01*
X87129Y319345D01*
X86767Y318989D01*
X86415Y318624D01*
X86071Y318251D01*
X85737Y317870D01*
X85412Y317481D01*
X85097Y317083D01*
X84792Y316678D01*
X84497Y316266D01*
X84212Y315847D01*
X83937Y315420D01*
X83673Y314988D01*
X83419Y314549D01*
X83176Y314103D01*
X82945Y313652D01*
X82724Y313196D01*
X82515Y312734D01*
X82317Y312267D01*
X82130Y311795D01*
X81955Y311319D01*
X81792Y310839D01*
X81641Y310355D01*
X81501Y309868D01*
X81374Y309377D01*
X81258Y308883D01*
X81155Y308387D01*
X81064Y307888D01*
X80985Y307387D01*
X80918Y306884D01*
X80864Y306380D01*
X80822Y305875D01*
X80793Y305368D01*
X80776Y304862D01*
X80771Y304355D01*
X80779Y303847D01*
X80799Y303341D01*
X80832Y302835D01*
X80877Y302330D01*
X80934Y301826D01*
X81004Y301323D01*
X81086Y300823D01*
X81180Y300325D01*
X81286Y299829D01*
X81404Y299336D01*
X81535Y298846D01*
X81677Y298359D01*
X81832Y297876D01*
X81998Y297397D01*
X82176Y296922D01*
X82365Y296452D01*
X82566Y295986D01*
X82778Y295526D01*
X83002Y295070D01*
X83236Y294621D01*
X83482Y294177D01*
X83738Y293739D01*
X84005Y293308D01*
X84282Y292884D01*
X84570Y292466D01*
X84867Y292056D01*
X85175Y291653D01*
X85493Y291257D01*
X85820Y290870D01*
X86157Y290490D01*
X86502Y290119D01*
X86857Y289757D01*
X87220Y289403D01*
X87592Y289059D01*
X87973Y288723D01*
X88361Y288398D01*
X88758Y288081D01*
X89162Y287775D01*
X89573Y287478D01*
X89991Y287192D01*
X90417Y286916D01*
X90849Y286650D01*
X91287Y286395D01*
X91732Y286151D01*
X92182Y285918D01*
X92638Y285696D01*
X93099Y285485D01*
X93565Y285286D01*
X94036Y285098D01*
X94512Y284921D01*
X94991Y284757D01*
X95475Y284604D01*
X95962Y284463D01*
X96452Y284334D01*
X96946Y284217D01*
X97442Y284112D01*
X97941Y284020D01*
X98441Y283939D01*
X98944Y283871D01*
X99448Y283815D01*
X99953Y283772D01*
X100459Y283741D01*
X100966Y283722D01*
X101473Y283716D01*
X101980Y283722D01*
X102487Y283741D01*
X102993Y283772D01*
X103498Y283815D01*
X104002Y283871D01*
X104505Y283939D01*
X105005Y284020D01*
X105504Y284112D01*
X106000Y284217D01*
X106494Y284334D01*
X106984Y284463D01*
X107471Y284604D01*
X107955Y284757D01*
X108434Y284921D01*
X108910Y285098D01*
X109381Y285286D01*
X109847Y285485D01*
X110308Y285696D01*
X110764Y285918D01*
X111214Y286151D01*
X111659Y286395D01*
X112097Y286650D01*
X112529Y286916D01*
X112955Y287192D01*
X113373Y287478D01*
X113784Y287775D01*
X114188Y288081D01*
X114585Y288398D01*
X114973Y288723D01*
X115354Y289059D01*
X115726Y289403D01*
X116089Y289757D01*
X116444Y290119D01*
X116789Y290490D01*
X117126Y290870D01*
X117453Y291257D01*
X117771Y291653D01*
X118079Y292056D01*
X118376Y292466D01*
X118664Y292884D01*
X118941Y293308D01*
X119208Y293739D01*
X119464Y294177D01*
X119710Y294621D01*
X119944Y295070D01*
X120168Y295526D01*
X120380Y295986D01*
X120581Y296452D01*
X120770Y296922D01*
X120948Y297397D01*
X121114Y297876D01*
X121269Y298359D01*
X121411Y298846D01*
X121542Y299336D01*
X121660Y299829D01*
X121766Y300325D01*
X121860Y300823D01*
X121942Y301323D01*
X122012Y301826D01*
X122069Y302330D01*
X122114Y302835D01*
X122147Y303341D01*
X122167Y303847D01*
X122175Y304355D01*
X122170Y304862D01*
X122153Y305368D01*
X122124Y305875D01*
X122082Y306380D01*
X122028Y306884D01*
X121961Y307387D01*
X121882Y307888D01*
X121791Y308387D01*
X121688Y308883D01*
X121572Y309377D01*
X121445Y309868D01*
X121305Y310355D01*
X121154Y310839D01*
X120991Y311319D01*
X120816Y311795D01*
X120629Y312267D01*
X120431Y312734D01*
X120222Y313196D01*
X120001Y313652D01*
X119770Y314103D01*
X119527Y314549D01*
X119273Y314988D01*
X119009Y315420D01*
X118734Y315847D01*
X118449Y316266D01*
X118154Y316678D01*
X117849Y317083D01*
X117534Y317481D01*
X117209Y317870D01*
X116875Y318251D01*
X116531Y318624D01*
X116179Y318989D01*
X115817Y319345D01*
X115448Y319692D01*
X115069Y320029D01*
X114683Y320358D01*
X114288Y320677D01*
X113886Y320986D01*
X113477Y321285D01*
X113060Y321574D01*
X112636Y321852D01*
X112206Y322120D01*
X111769Y322378D01*
X111326Y322625D01*
X110877Y322861D01*
X110423Y323085D01*
X109963Y323299D01*
X109498Y323501D01*
X109028Y323692D01*
X108554Y323871D01*
X108075Y324039D01*
X107593Y324195D01*
X107106Y324339D01*
X106617Y324471D01*
X106124Y324591D01*
X105628Y324699D01*
X105130Y324794D01*
X104630Y324878D01*
X104128Y324949D01*
X103625Y325008D01*
X103120Y325054D01*
X102614Y325089D01*
X102107Y325110D01*
X101600Y325120D01*
D10*
X101600Y304800D03*
M02*
