G04 EAGLE Gerber RS-274X export*
G75*
%MOMM*%
%FSLAX34Y34*%
%LPD*%
%INSoldermask Top*%
%IPPOS*%
%AMOC8*
5,1,8,0,0,1.08239X$1,22.5*%
G01*
%ADD10C,0.203441*%


D10*
X203200Y522800D03*
X203200Y467800D03*
X203000Y495300D03*
X203200Y446600D03*
X203200Y391600D03*
X203000Y419100D03*
X203200Y370400D03*
X203200Y315400D03*
X203000Y342900D03*
X203200Y254000D03*
X317500Y522800D03*
X317500Y467800D03*
X317300Y495300D03*
X317500Y446600D03*
X317500Y391600D03*
X317300Y419100D03*
X317500Y370400D03*
X317500Y315400D03*
X317300Y342900D03*
X317500Y254000D03*
X431800Y522800D03*
X431800Y467800D03*
X431600Y495300D03*
X431800Y446600D03*
X431800Y391600D03*
X431600Y419100D03*
X431800Y370400D03*
X431800Y315400D03*
X431600Y342900D03*
X431800Y254000D03*
X546100Y522800D03*
X546100Y467800D03*
X545900Y495300D03*
X546100Y446600D03*
X546100Y391600D03*
X545900Y419100D03*
X546100Y370400D03*
X546100Y315400D03*
X545900Y342900D03*
X546100Y254000D03*
X660400Y522800D03*
X660400Y467800D03*
X660200Y495300D03*
X660400Y446600D03*
X660400Y391600D03*
X660200Y419100D03*
X660400Y370400D03*
X660400Y315400D03*
X660200Y342900D03*
X660400Y254000D03*
X774700Y522800D03*
X774700Y467800D03*
X774500Y495300D03*
X774700Y446600D03*
X774700Y391600D03*
X774500Y419100D03*
X774700Y370400D03*
X774700Y315400D03*
X774500Y342900D03*
X774700Y254000D03*
X889000Y522800D03*
X889000Y467800D03*
X888800Y495300D03*
X889000Y446600D03*
X889000Y391600D03*
X888800Y419100D03*
X889000Y370400D03*
X889000Y315400D03*
X888800Y342900D03*
X889000Y254000D03*
X1003300Y522800D03*
X1003300Y467800D03*
X1003100Y495300D03*
X1003300Y446600D03*
X1003300Y391600D03*
X1003100Y419100D03*
X1003300Y370400D03*
X1003300Y315400D03*
X1003100Y342900D03*
X1003300Y254000D03*
X603377Y609600D03*
X101600Y533400D03*
X101600Y419100D03*
X101600Y304800D03*
M02*
